%TF.GenerationSoftware,KiCad,Pcbnew,10.0.3*%
%TF.CreationDate,2026-06-25T13:13:26+04:00*%
%TF.ProjectId,layout,6c61796f-7574-42e6-9b69-6361645f7063,v0.0.0*%
%TF.SameCoordinates,Original*%
%TF.FileFunction,Copper,L2,Inr*%
%TF.FilePolarity,Positive*%
%FSLAX46Y46*%
G04 Gerber Fmt 4.6, Leading zero omitted, Abs format (unit mm)*
G04 Created by KiCad (PCBNEW 10.0.3) date 2026-06-25 13:13:26*
%MOMM*%
%LPD*%
G01*
G04 APERTURE LIST*
%TA.AperFunction,ComponentPad*%
%ADD10O,3.300000X1.500000*%
%TD*%
%TA.AperFunction,ComponentPad*%
%ADD11O,2.300000X1.500000*%
%TD*%
%TA.AperFunction,HeatsinkPad*%
%ADD12O,2.100000X1.000000*%
%TD*%
%TA.AperFunction,HeatsinkPad*%
%ADD13O,1.800000X1.000000*%
%TD*%
%TA.AperFunction,ViaPad*%
%ADD14C,0.500000*%
%TD*%
%TA.AperFunction,ViaPad*%
%ADD15C,0.600000*%
%TD*%
%TA.AperFunction,Conductor*%
%ADD16C,0.160000*%
%TD*%
%TA.AperFunction,Conductor*%
%ADD17C,0.200000*%
%TD*%
%TA.AperFunction,Conductor*%
%ADD18C,0.186700*%
%TD*%
G04 APERTURE END LIST*
D10*
%TO.N,GND*%
%TO.C,J1*%
X109740000Y-118250000D03*
X109740000Y-103750000D03*
D11*
X103780000Y-118250000D03*
X103780000Y-103750000D03*
%TD*%
D12*
%TO.N,GND*%
%TO.C,J2*%
X143200000Y-115320000D03*
D13*
X147380000Y-115320000D03*
D12*
X143200000Y-106680000D03*
D13*
X147380000Y-106680000D03*
%TD*%
D14*
%TO.N,ARC_TX*%
X116778177Y-114134076D03*
X128600000Y-109800000D03*
%TO.N,HDMI._HDMI_5V*%
X115504248Y-111007153D03*
X112300000Y-105790000D03*
X116770000Y-107200000D03*
D15*
%TO.N,VDD_3V3*%
X134070000Y-118440000D03*
D14*
X118240000Y-104280000D03*
X124725000Y-112525000D03*
X119250000Y-110950000D03*
D15*
X135605865Y-118290932D03*
D14*
X132110000Y-115330000D03*
X131992675Y-112929752D03*
X129929999Y-116930000D03*
X126200000Y-109860000D03*
X125510000Y-106830000D03*
D15*
X122150000Y-118100000D03*
D14*
X129800000Y-108460000D03*
D15*
X132170000Y-108390000D03*
D14*
X137030000Y-109150000D03*
X119900000Y-108000000D03*
X126164888Y-116945917D03*
X134940000Y-114830000D03*
%TO.N,GND*%
X128300000Y-111550000D03*
X128750000Y-119800000D03*
X108800000Y-107500001D03*
X134360000Y-107690000D03*
X121300000Y-105760000D03*
X126100000Y-113650000D03*
X133820000Y-112000000D03*
X147670000Y-119390000D03*
X128300000Y-113650000D03*
X139580000Y-113760000D03*
X127200000Y-112562500D03*
X144000000Y-117000000D03*
X137780000Y-111700000D03*
X119200000Y-114250000D03*
X126100000Y-111550000D03*
X149000000Y-105476401D03*
X141710000Y-107140000D03*
X106000000Y-111000000D03*
X141570000Y-114860000D03*
X115099171Y-108842136D03*
X142140000Y-120030000D03*
X126410000Y-118130000D03*
X115300000Y-104890000D03*
X124710000Y-111550000D03*
X119710000Y-102070000D03*
X149000000Y-116523599D03*
X101000000Y-105476401D03*
X147870000Y-102290000D03*
X140760000Y-102040000D03*
X120400000Y-116650000D03*
X138950000Y-118720000D03*
X137610000Y-104040000D03*
X130523599Y-120200000D03*
X107440000Y-120030000D03*
X118090000Y-107440000D03*
X112840000Y-103790000D03*
X101000000Y-116523599D03*
X106000000Y-116000000D03*
X134240000Y-116550000D03*
X122210000Y-115090000D03*
X121660000Y-110720000D03*
X131850000Y-118570000D03*
X121340000Y-108410000D03*
X106000000Y-106000000D03*
X130570000Y-101880000D03*
X119490000Y-120220000D03*
X107330000Y-102110000D03*
D15*
%TO.N,VDD_1V1*%
X123014914Y-113143156D03*
D14*
X131667106Y-114505850D03*
X131555062Y-112282500D03*
%TO.N,SWD_SWCLK*%
X124750000Y-113250000D03*
X118790000Y-116620000D03*
%TO.N,SWD_SWDIO*%
X124765270Y-113885270D03*
X119530000Y-116600000D03*
%TO.N,GP17*%
X123501267Y-117223879D03*
%TO.N,GP18*%
X124750000Y-117715117D03*
%TO.N,GP19*%
X124735000Y-117015000D03*
%TO.N,GP20*%
X125280000Y-115220000D03*
%TO.N,GP21*%
X125985005Y-115214354D03*
%TO.N,GP22*%
X126892810Y-115136063D03*
%TO.N,GP26*%
X128291826Y-115057635D03*
%TO.N,GP27*%
X129000000Y-115000000D03*
%TO.N,GP28*%
X128909999Y-117377691D03*
%TO.N,GP29*%
X129570000Y-117780000D03*
%TO.N,QSPI_IO3*%
X132020000Y-106760000D03*
X129905000Y-112055000D03*
%TO.N,QSPI_CLK*%
X129621763Y-111412024D03*
X131590000Y-105490000D03*
%TO.N,QSPI_IO0*%
X129826074Y-110485102D03*
X131018565Y-104220000D03*
%TO.N,QSPI_IO2*%
X132597499Y-110912659D03*
X138770000Y-104500000D03*
%TO.N,QSPI_IO1*%
X133500079Y-110912659D03*
X138767500Y-105770000D03*
%TO.N,QSPI_CS*%
X134402659Y-110912659D03*
X138770000Y-107040000D03*
%TO.N,CEC_NODE*%
X127620000Y-106820000D03*
X112873517Y-109806483D03*
%TO.N,DDC_SCL_5V*%
X112380736Y-108474819D03*
X114006121Y-110276542D03*
%TO.N,DDC_SDA_5V*%
X114472964Y-109810001D03*
X112524381Y-107830637D03*
%TO.N,HDMI._ARC14*%
X112124666Y-109097632D03*
X114058177Y-113934076D03*
%TO.N,VDD_5V*%
X139960000Y-116970000D03*
X138430000Y-111280000D03*
D15*
X139480000Y-115640000D03*
X141878686Y-113420000D03*
X136730865Y-115190932D03*
X141840000Y-108600000D03*
D14*
%TO.N,USB_D_P*%
X140550000Y-110950000D03*
X143900000Y-110250000D03*
%TO.N,USB_D_N*%
X143900000Y-110875003D03*
X140570000Y-112040000D03*
%TD*%
%TO.N,ARC_TX*%
D16*
X117305924Y-112554076D02*
X118224612Y-111635388D01*
X122594612Y-111635388D02*
X123910000Y-110320000D01*
X128080000Y-110320000D02*
X128600000Y-109800000D01*
X116778177Y-114134076D02*
X117305924Y-113606329D01*
X118224612Y-111635388D02*
X122594612Y-111635388D01*
X123910000Y-110320000D02*
X128080000Y-110320000D01*
X117305924Y-113606329D02*
X117305924Y-112554076D01*
%TO.N,QSPI_IO3*%
D17*
X131570000Y-110160000D02*
X129905000Y-111825000D01*
X132020000Y-106785686D02*
X131570000Y-107235686D01*
X132020000Y-106760000D02*
X132020000Y-106785686D01*
X131570000Y-107235686D02*
X131570000Y-110160000D01*
X129905000Y-111825000D02*
X129905000Y-112055000D01*
%TO.N,QSPI_CLK*%
X129773995Y-111259792D02*
X129621763Y-111412024D01*
X131590000Y-105490000D02*
X131470000Y-105610000D01*
X131470000Y-106770000D02*
X131170000Y-107070000D01*
X131170000Y-109890000D02*
X129800208Y-111259792D01*
X131170000Y-107070000D02*
X131170000Y-109890000D01*
X129800208Y-111259792D02*
X129773995Y-111259792D01*
X131470000Y-105610000D02*
X131470000Y-106770000D01*
%TO.N,QSPI_IO0*%
X130760000Y-109660000D02*
X129934898Y-110485102D01*
X130770000Y-106910000D02*
X130760000Y-106920000D01*
X131018565Y-104220000D02*
X131018565Y-106655749D01*
X130760000Y-106920000D02*
X130760000Y-109660000D01*
X131018565Y-106655749D02*
X130770000Y-106904314D01*
X130770000Y-106904314D02*
X130770000Y-106910000D01*
X129934898Y-110485102D02*
X129826074Y-110485102D01*
%TO.N,QSPI_IO2*%
X138217500Y-105542182D02*
X138217500Y-105629552D01*
X133484393Y-110362659D02*
X133147499Y-110362659D01*
X138770000Y-104500000D02*
X138220000Y-105050000D01*
X138220000Y-105539682D02*
X138217500Y-105542182D01*
X138220000Y-105050000D02*
X138220000Y-105539682D01*
X133147499Y-110362659D02*
X132597499Y-110912659D01*
X138217500Y-105629552D02*
X133484393Y-110362659D01*
%TO.N,QSPI_IO1*%
X133463909Y-110823909D02*
X133463909Y-110876489D01*
X138642738Y-105770000D02*
X138767500Y-105770000D01*
X133500079Y-110912659D02*
X138642738Y-105770000D01*
X133463909Y-110876489D02*
X133500079Y-110912659D01*
%TO.N,QSPI_CS*%
X137938424Y-107040000D02*
X134402659Y-110575765D01*
X134402659Y-110575765D02*
X134402659Y-110912659D01*
X138770000Y-107040000D02*
X137938424Y-107040000D01*
%TO.N,CEC_NODE*%
D16*
X121219756Y-109480000D02*
X115670000Y-109480000D01*
X115670000Y-109480000D02*
X114360000Y-110790000D01*
X113637035Y-110790000D02*
X113350000Y-110502965D01*
X127150000Y-106820000D02*
X125980000Y-107990000D01*
X127620000Y-106820000D02*
X127150000Y-106820000D01*
X113350000Y-110290000D02*
X112873517Y-109813517D01*
X113350000Y-110502965D02*
X113350000Y-110290000D01*
X125980000Y-107990000D02*
X122709756Y-107990000D01*
X122709756Y-107990000D02*
X121219756Y-109480000D01*
X112873517Y-109813517D02*
X112873517Y-109806483D01*
X114360000Y-110790000D02*
X113637035Y-110790000D01*
%TO.N,DDC_SCL_5V*%
X112380736Y-108620737D02*
X112380736Y-108474819D01*
X114006121Y-110246122D02*
X112380736Y-108620737D01*
X114006121Y-110276542D02*
X114006121Y-110246122D01*
%TO.N,DDC_SDA_5V*%
X112583701Y-107984819D02*
X112583701Y-107889957D01*
X114472964Y-109810001D02*
X114180001Y-109810001D01*
X112870736Y-108500736D02*
X112870736Y-108271854D01*
X112583701Y-107889957D02*
X112524381Y-107830637D01*
X112870736Y-108271854D02*
X112583701Y-107984819D01*
X114180001Y-109810001D02*
X112870736Y-108500736D01*
%TO.N,HDMI._ARC14*%
X113600000Y-111230000D02*
X112360000Y-109990000D01*
X112360000Y-109990000D02*
X112360000Y-109332966D01*
X114058177Y-113934076D02*
X113600000Y-113475899D01*
X112360000Y-109332966D02*
X112124666Y-109097632D01*
X113600000Y-113475899D02*
X113600000Y-111230000D01*
%TO.N,USB_D_P*%
D18*
X143750000Y-110400000D02*
X143900000Y-110250000D01*
X140909190Y-110950000D02*
X141459190Y-110400000D01*
X141459190Y-110400000D02*
X143750000Y-110400000D01*
X140550000Y-110950000D02*
X140909190Y-110950000D01*
%TO.N,USB_D_N*%
X141588300Y-110711700D02*
X143699353Y-110711700D01*
X140840000Y-111770000D02*
X140840000Y-111460000D01*
X143743347Y-110718350D02*
X143900000Y-110875003D01*
X143706003Y-110718350D02*
X143743347Y-110718350D01*
X140840000Y-111460000D02*
X141588300Y-110711700D01*
X143699353Y-110711700D02*
X143706003Y-110718350D01*
X140570000Y-112040000D02*
X140840000Y-111770000D01*
%TD*%
%TA.AperFunction,Conductor*%
%TO.N,GND*%
G36*
X147002777Y-101300655D02*
G01*
X147296701Y-101317162D01*
X147307724Y-101318404D01*
X147595224Y-101367252D01*
X147606018Y-101369715D01*
X147886251Y-101450449D01*
X147896722Y-101454113D01*
X148166134Y-101565708D01*
X148176136Y-101570525D01*
X148431353Y-101711578D01*
X148440748Y-101717481D01*
X148678591Y-101886239D01*
X148687242Y-101893139D01*
X148904696Y-102087468D01*
X148912531Y-102095303D01*
X149106859Y-102312755D01*
X149113761Y-102321411D01*
X149240157Y-102499548D01*
X149282515Y-102559246D01*
X149288421Y-102568646D01*
X149429474Y-102823863D01*
X149434291Y-102833865D01*
X149545884Y-103103273D01*
X149549551Y-103113752D01*
X149630280Y-103393966D01*
X149632750Y-103404790D01*
X149681594Y-103692270D01*
X149682837Y-103703302D01*
X149699344Y-103997222D01*
X149699500Y-104002773D01*
X149699500Y-117997226D01*
X149699344Y-118002777D01*
X149682837Y-118296697D01*
X149681594Y-118307729D01*
X149632750Y-118595209D01*
X149630280Y-118606033D01*
X149549551Y-118886247D01*
X149545884Y-118896726D01*
X149434291Y-119166134D01*
X149429474Y-119176136D01*
X149288421Y-119431353D01*
X149282515Y-119440753D01*
X149113769Y-119678579D01*
X149106851Y-119687252D01*
X148958628Y-119853114D01*
X148912538Y-119904689D01*
X148904689Y-119912538D01*
X148687252Y-120106851D01*
X148678579Y-120113769D01*
X148440753Y-120282515D01*
X148431353Y-120288421D01*
X148176136Y-120429474D01*
X148166134Y-120434291D01*
X147896726Y-120545884D01*
X147886247Y-120549551D01*
X147606033Y-120630280D01*
X147595209Y-120632750D01*
X147307729Y-120681594D01*
X147296697Y-120682837D01*
X147002778Y-120699344D01*
X146997227Y-120699500D01*
X103002773Y-120699500D01*
X102997222Y-120699344D01*
X102703302Y-120682837D01*
X102692270Y-120681594D01*
X102404790Y-120632750D01*
X102393966Y-120630280D01*
X102113752Y-120549551D01*
X102103273Y-120545884D01*
X101833865Y-120434291D01*
X101823863Y-120429474D01*
X101568646Y-120288421D01*
X101559246Y-120282515D01*
X101321411Y-120113761D01*
X101312755Y-120106859D01*
X101095303Y-119912531D01*
X101087468Y-119904696D01*
X100893139Y-119687242D01*
X100886239Y-119678591D01*
X100717481Y-119440748D01*
X100711578Y-119431353D01*
X100570525Y-119176136D01*
X100565708Y-119166134D01*
X100454115Y-118896726D01*
X100450448Y-118886247D01*
X100369715Y-118606018D01*
X100367252Y-118595224D01*
X100318404Y-118307724D01*
X100317162Y-118296697D01*
X100314360Y-118246809D01*
X100302416Y-118034109D01*
X100302416Y-118034108D01*
X121649500Y-118034108D01*
X121649500Y-118165892D01*
X121671183Y-118246814D01*
X121683609Y-118293190D01*
X121749496Y-118407309D01*
X121749498Y-118407311D01*
X121749500Y-118407314D01*
X121842686Y-118500500D01*
X121842688Y-118500501D01*
X121842690Y-118500503D01*
X121956810Y-118566390D01*
X121956808Y-118566390D01*
X121956812Y-118566391D01*
X121956814Y-118566392D01*
X122084108Y-118600500D01*
X122084110Y-118600500D01*
X122215890Y-118600500D01*
X122215892Y-118600500D01*
X122343186Y-118566392D01*
X122343188Y-118566390D01*
X122343190Y-118566390D01*
X122457309Y-118500503D01*
X122457309Y-118500502D01*
X122457314Y-118500500D01*
X122550500Y-118407314D01*
X122569672Y-118374108D01*
X133569500Y-118374108D01*
X133569500Y-118505892D01*
X133599579Y-118618151D01*
X133603609Y-118633190D01*
X133669496Y-118747309D01*
X133669498Y-118747311D01*
X133669500Y-118747314D01*
X133762686Y-118840500D01*
X133762688Y-118840501D01*
X133762690Y-118840503D01*
X133876810Y-118906390D01*
X133876808Y-118906390D01*
X133876812Y-118906391D01*
X133876814Y-118906392D01*
X134004108Y-118940500D01*
X134004110Y-118940500D01*
X134135890Y-118940500D01*
X134135892Y-118940500D01*
X134263186Y-118906392D01*
X134263188Y-118906390D01*
X134263190Y-118906390D01*
X134377309Y-118840503D01*
X134377309Y-118840502D01*
X134377314Y-118840500D01*
X134470500Y-118747314D01*
X134536392Y-118633186D01*
X134570500Y-118505892D01*
X134570500Y-118374108D01*
X134536392Y-118246814D01*
X134536390Y-118246811D01*
X134536390Y-118246809D01*
X134523822Y-118225040D01*
X135105365Y-118225040D01*
X135105365Y-118356824D01*
X135118894Y-118407314D01*
X135139474Y-118484122D01*
X135205361Y-118598241D01*
X135205363Y-118598243D01*
X135205365Y-118598246D01*
X135298551Y-118691432D01*
X135298553Y-118691433D01*
X135298555Y-118691435D01*
X135412675Y-118757322D01*
X135412673Y-118757322D01*
X135412677Y-118757323D01*
X135412679Y-118757324D01*
X135539973Y-118791432D01*
X135539975Y-118791432D01*
X135671755Y-118791432D01*
X135671757Y-118791432D01*
X135799051Y-118757324D01*
X135799053Y-118757322D01*
X135799055Y-118757322D01*
X135913174Y-118691435D01*
X135913174Y-118691434D01*
X135913179Y-118691432D01*
X136006365Y-118598246D01*
X136006368Y-118598241D01*
X136072255Y-118484122D01*
X136072255Y-118484120D01*
X136072257Y-118484118D01*
X136106365Y-118356824D01*
X136106365Y-118225040D01*
X136072257Y-118097746D01*
X136072255Y-118097743D01*
X136072255Y-118097741D01*
X136006368Y-117983622D01*
X136006366Y-117983620D01*
X136006365Y-117983618D01*
X135913179Y-117890432D01*
X135913176Y-117890430D01*
X135913174Y-117890428D01*
X135799054Y-117824541D01*
X135799056Y-117824541D01*
X135749664Y-117811307D01*
X135671757Y-117790432D01*
X135539973Y-117790432D01*
X135462065Y-117811307D01*
X135412674Y-117824541D01*
X135298555Y-117890428D01*
X135205361Y-117983622D01*
X135139474Y-118097741D01*
X135120404Y-118168910D01*
X135105365Y-118225040D01*
X134523822Y-118225040D01*
X134470503Y-118132690D01*
X134470501Y-118132688D01*
X134470500Y-118132686D01*
X134377314Y-118039500D01*
X134377311Y-118039498D01*
X134377309Y-118039496D01*
X134263189Y-117973609D01*
X134263191Y-117973609D01*
X134213799Y-117960375D01*
X134135892Y-117939500D01*
X134004108Y-117939500D01*
X133926200Y-117960375D01*
X133876809Y-117973609D01*
X133762690Y-118039496D01*
X133669496Y-118132690D01*
X133603609Y-118246809D01*
X133591182Y-118293190D01*
X133569500Y-118374108D01*
X122569672Y-118374108D01*
X122601993Y-118318126D01*
X122601997Y-118318119D01*
X122604992Y-118312930D01*
X122616392Y-118293186D01*
X122650500Y-118165892D01*
X122650500Y-118034108D01*
X122616392Y-117906814D01*
X122616390Y-117906811D01*
X122616390Y-117906809D01*
X122550503Y-117792690D01*
X122550501Y-117792688D01*
X122550500Y-117792686D01*
X122457314Y-117699500D01*
X122457311Y-117699498D01*
X122457309Y-117699496D01*
X122343189Y-117633609D01*
X122343191Y-117633609D01*
X122293799Y-117620375D01*
X122215892Y-117599500D01*
X122084108Y-117599500D01*
X122006200Y-117620375D01*
X121956809Y-117633609D01*
X121842690Y-117699496D01*
X121749496Y-117792690D01*
X121683609Y-117906809D01*
X121664539Y-117977978D01*
X121649500Y-118034108D01*
X100302416Y-118034108D01*
X100302363Y-118033171D01*
X100300656Y-118002778D01*
X100300656Y-118002777D01*
X100300500Y-117997226D01*
X100300500Y-117164570D01*
X123050767Y-117164570D01*
X123050767Y-117283188D01*
X123074714Y-117372558D01*
X123081469Y-117397769D01*
X123140774Y-117500487D01*
X123140776Y-117500489D01*
X123140778Y-117500492D01*
X123224654Y-117584368D01*
X123224656Y-117584369D01*
X123224658Y-117584371D01*
X123327377Y-117643676D01*
X123327378Y-117643676D01*
X123327381Y-117643678D01*
X123441958Y-117674379D01*
X123441960Y-117674379D01*
X123560574Y-117674379D01*
X123560576Y-117674379D01*
X123675153Y-117643678D01*
X123675155Y-117643676D01*
X123675157Y-117643676D01*
X123777875Y-117584371D01*
X123777875Y-117584370D01*
X123777880Y-117584368D01*
X123861756Y-117500492D01*
X123897545Y-117438504D01*
X123921064Y-117397769D01*
X123921064Y-117397767D01*
X123921066Y-117397765D01*
X123951767Y-117283188D01*
X123951767Y-117164570D01*
X123921066Y-117049993D01*
X123915180Y-117039799D01*
X123891453Y-116998702D01*
X123891452Y-116998700D01*
X123869390Y-116960489D01*
X123866620Y-116955691D01*
X124284500Y-116955691D01*
X124284500Y-117074309D01*
X124303143Y-117143886D01*
X124315202Y-117188890D01*
X124374507Y-117291608D01*
X124374509Y-117291610D01*
X124374511Y-117291613D01*
X124385454Y-117302556D01*
X124413230Y-117357071D01*
X124403659Y-117417503D01*
X124392619Y-117432713D01*
X124393460Y-117433358D01*
X124389507Y-117438508D01*
X124330202Y-117541226D01*
X124314588Y-117599500D01*
X124299500Y-117655808D01*
X124299500Y-117774426D01*
X124322086Y-117858717D01*
X124330202Y-117889007D01*
X124389507Y-117991725D01*
X124389509Y-117991727D01*
X124389511Y-117991730D01*
X124473387Y-118075606D01*
X124473389Y-118075607D01*
X124473391Y-118075609D01*
X124576110Y-118134914D01*
X124576111Y-118134914D01*
X124576114Y-118134916D01*
X124690691Y-118165617D01*
X124690693Y-118165617D01*
X124809307Y-118165617D01*
X124809309Y-118165617D01*
X124923886Y-118134916D01*
X124923888Y-118134914D01*
X124923890Y-118134914D01*
X125026608Y-118075609D01*
X125026608Y-118075608D01*
X125026613Y-118075606D01*
X125110489Y-117991730D01*
X125132336Y-117953890D01*
X125169797Y-117889007D01*
X125169797Y-117889005D01*
X125169799Y-117889003D01*
X125200500Y-117774426D01*
X125200500Y-117655808D01*
X125169799Y-117541231D01*
X125169797Y-117541228D01*
X125169797Y-117541226D01*
X125110492Y-117438508D01*
X125110490Y-117438506D01*
X125110489Y-117438504D01*
X125099544Y-117427559D01*
X125071769Y-117373045D01*
X125081340Y-117312613D01*
X125092393Y-117297414D01*
X125091540Y-117296759D01*
X125095485Y-117291616D01*
X125095489Y-117291613D01*
X125095492Y-117291608D01*
X125154797Y-117188890D01*
X125154797Y-117188888D01*
X125154799Y-117188886D01*
X125185500Y-117074309D01*
X125185500Y-116955691D01*
X125172116Y-116905741D01*
X125172116Y-116905739D01*
X125166990Y-116886608D01*
X125714388Y-116886608D01*
X125714388Y-117005226D01*
X125733584Y-117076867D01*
X125745090Y-117119807D01*
X125804395Y-117222525D01*
X125804397Y-117222527D01*
X125804399Y-117222530D01*
X125888275Y-117306406D01*
X125888277Y-117306407D01*
X125888279Y-117306409D01*
X125990998Y-117365714D01*
X125990999Y-117365714D01*
X125991002Y-117365716D01*
X126105579Y-117396417D01*
X126105581Y-117396417D01*
X126224195Y-117396417D01*
X126224197Y-117396417D01*
X126338774Y-117365716D01*
X126338776Y-117365714D01*
X126338778Y-117365714D01*
X126420758Y-117318382D01*
X128459499Y-117318382D01*
X128459499Y-117437000D01*
X128477289Y-117503391D01*
X128490201Y-117551581D01*
X128549506Y-117654299D01*
X128549508Y-117654301D01*
X128549510Y-117654304D01*
X128633386Y-117738180D01*
X128633388Y-117738181D01*
X128633390Y-117738183D01*
X128736109Y-117797488D01*
X128736110Y-117797488D01*
X128736113Y-117797490D01*
X128850690Y-117828191D01*
X128850692Y-117828191D01*
X128969305Y-117828191D01*
X128969308Y-117828191D01*
X129011035Y-117817010D01*
X129072134Y-117820212D01*
X129119684Y-117858717D01*
X129132281Y-117887011D01*
X129137587Y-117906809D01*
X129150202Y-117953890D01*
X129209507Y-118056608D01*
X129209509Y-118056610D01*
X129209511Y-118056613D01*
X129293387Y-118140489D01*
X129293389Y-118140490D01*
X129293391Y-118140492D01*
X129396110Y-118199797D01*
X129396111Y-118199797D01*
X129396114Y-118199799D01*
X129510691Y-118230500D01*
X129510693Y-118230500D01*
X129629307Y-118230500D01*
X129629309Y-118230500D01*
X129743886Y-118199799D01*
X129743888Y-118199797D01*
X129743890Y-118199797D01*
X129846608Y-118140492D01*
X129846608Y-118140491D01*
X129846613Y-118140489D01*
X129930489Y-118056613D01*
X129943482Y-118034109D01*
X129989797Y-117953890D01*
X129989797Y-117953888D01*
X129989799Y-117953886D01*
X130020500Y-117839309D01*
X130020500Y-117720691D01*
X129989799Y-117606114D01*
X129989797Y-117606111D01*
X129989797Y-117606109D01*
X129930492Y-117503391D01*
X129930490Y-117503389D01*
X129930489Y-117503387D01*
X129906603Y-117479501D01*
X129878828Y-117424987D01*
X129888399Y-117364555D01*
X129931664Y-117321290D01*
X129976609Y-117310500D01*
X129980094Y-117310500D01*
X129980094Y-117310499D01*
X130076866Y-117284569D01*
X130163631Y-117234476D01*
X130234475Y-117163632D01*
X130284568Y-117076867D01*
X130310499Y-116980094D01*
X130310499Y-116910691D01*
X139509500Y-116910691D01*
X139509500Y-117029309D01*
X139522243Y-117076867D01*
X139540202Y-117143890D01*
X139599507Y-117246608D01*
X139599509Y-117246610D01*
X139599511Y-117246613D01*
X139683387Y-117330489D01*
X139683389Y-117330490D01*
X139683391Y-117330492D01*
X139786110Y-117389797D01*
X139786111Y-117389797D01*
X139786114Y-117389799D01*
X139900691Y-117420500D01*
X139900693Y-117420500D01*
X140019307Y-117420500D01*
X140019309Y-117420500D01*
X140133886Y-117389799D01*
X140133888Y-117389797D01*
X140133890Y-117389797D01*
X140236608Y-117330492D01*
X140236608Y-117330491D01*
X140236613Y-117330489D01*
X140320489Y-117246613D01*
X140320492Y-117246608D01*
X140379797Y-117143890D01*
X140379797Y-117143888D01*
X140379799Y-117143886D01*
X140410500Y-117029309D01*
X140410500Y-116910691D01*
X140379799Y-116796114D01*
X140379797Y-116796111D01*
X140379797Y-116796109D01*
X140320492Y-116693391D01*
X140320490Y-116693389D01*
X140320489Y-116693387D01*
X140236613Y-116609511D01*
X140236610Y-116609509D01*
X140236608Y-116609507D01*
X140133889Y-116550202D01*
X140133890Y-116550202D01*
X140098394Y-116540691D01*
X140019309Y-116519500D01*
X139900691Y-116519500D01*
X139830567Y-116538289D01*
X139786109Y-116550202D01*
X139683391Y-116609507D01*
X139599507Y-116693391D01*
X139540202Y-116796109D01*
X139528144Y-116841110D01*
X139509500Y-116910691D01*
X130310499Y-116910691D01*
X130310499Y-116879906D01*
X130288045Y-116796109D01*
X130284569Y-116783136D01*
X130284568Y-116783135D01*
X130284568Y-116783133D01*
X130234475Y-116696368D01*
X130163631Y-116625524D01*
X130076866Y-116575431D01*
X130076863Y-116575430D01*
X130076862Y-116575429D01*
X129980095Y-116549500D01*
X129980093Y-116549500D01*
X129879905Y-116549500D01*
X129879902Y-116549500D01*
X129783135Y-116575429D01*
X129783134Y-116575430D01*
X129783132Y-116575430D01*
X129783132Y-116575431D01*
X129696367Y-116625524D01*
X129625523Y-116696368D01*
X129580767Y-116773890D01*
X129575429Y-116783135D01*
X129575428Y-116783136D01*
X129549499Y-116879903D01*
X129549499Y-116980096D01*
X129575428Y-117076863D01*
X129575429Y-117076864D01*
X129575430Y-117076867D01*
X129625523Y-117163632D01*
X129625525Y-117163634D01*
X129625528Y-117163639D01*
X129629474Y-117168782D01*
X129627414Y-117170361D01*
X129630040Y-117175516D01*
X129641664Y-117187721D01*
X129643582Y-117202092D01*
X129650165Y-117215013D01*
X129647528Y-117231661D01*
X129649758Y-117248368D01*
X129642862Y-117261122D01*
X129640594Y-117275445D01*
X129628675Y-117287363D01*
X129620659Y-117302191D01*
X129609307Y-117306731D01*
X129597329Y-117318710D01*
X129565481Y-117328630D01*
X129558962Y-117329500D01*
X129510691Y-117329500D01*
X129462788Y-117342335D01*
X129456439Y-117343183D01*
X129432334Y-117338759D01*
X129407862Y-117337477D01*
X129402740Y-117333329D01*
X129396258Y-117332140D01*
X129379357Y-117314393D01*
X129360313Y-117298971D01*
X129356487Y-117290379D01*
X129354062Y-117287832D01*
X129353509Y-117283688D01*
X129347717Y-117270679D01*
X129329798Y-117203805D01*
X129321187Y-117188890D01*
X129270491Y-117101082D01*
X129270489Y-117101080D01*
X129270488Y-117101078D01*
X129186612Y-117017202D01*
X129186609Y-117017200D01*
X129186607Y-117017198D01*
X129083888Y-116957893D01*
X129083889Y-116957893D01*
X129044243Y-116947270D01*
X128969308Y-116927191D01*
X128850690Y-116927191D01*
X128780566Y-116945980D01*
X128736108Y-116957893D01*
X128633390Y-117017198D01*
X128549506Y-117101082D01*
X128490201Y-117203800D01*
X128478259Y-117248368D01*
X128459499Y-117318382D01*
X126420758Y-117318382D01*
X126441496Y-117306409D01*
X126441496Y-117306408D01*
X126441501Y-117306406D01*
X126525377Y-117222530D01*
X126559383Y-117163631D01*
X126584685Y-117119807D01*
X126584685Y-117119805D01*
X126584687Y-117119803D01*
X126615388Y-117005226D01*
X126615388Y-116886608D01*
X126584687Y-116772031D01*
X126584685Y-116772028D01*
X126584685Y-116772026D01*
X126525380Y-116669308D01*
X126525378Y-116669306D01*
X126525377Y-116669304D01*
X126441501Y-116585428D01*
X126441498Y-116585426D01*
X126441496Y-116585424D01*
X126338777Y-116526119D01*
X126338778Y-116526119D01*
X126314075Y-116519500D01*
X126224197Y-116495417D01*
X126105579Y-116495417D01*
X126035455Y-116514206D01*
X125990997Y-116526119D01*
X125888279Y-116585424D01*
X125804395Y-116669308D01*
X125745090Y-116772026D01*
X125742113Y-116783136D01*
X125714388Y-116886608D01*
X125166990Y-116886608D01*
X125154799Y-116841114D01*
X125154797Y-116841110D01*
X125095492Y-116738391D01*
X125095490Y-116738389D01*
X125095489Y-116738387D01*
X125011613Y-116654511D01*
X125011610Y-116654509D01*
X125011608Y-116654507D01*
X124908889Y-116595202D01*
X124908890Y-116595202D01*
X124895351Y-116591574D01*
X124794309Y-116564500D01*
X124675691Y-116564500D01*
X124605567Y-116583289D01*
X124561109Y-116595202D01*
X124458391Y-116654507D01*
X124374507Y-116738391D01*
X124315202Y-116841109D01*
X124300331Y-116896608D01*
X124284500Y-116955691D01*
X123866620Y-116955691D01*
X123861756Y-116947266D01*
X123777880Y-116863390D01*
X123777877Y-116863388D01*
X123777875Y-116863386D01*
X123675156Y-116804081D01*
X123675157Y-116804081D01*
X123661618Y-116800453D01*
X123560576Y-116773379D01*
X123441958Y-116773379D01*
X123371834Y-116792168D01*
X123327376Y-116804081D01*
X123224658Y-116863386D01*
X123140774Y-116947270D01*
X123081469Y-117049988D01*
X123074268Y-117076863D01*
X123050767Y-117164570D01*
X100300500Y-117164570D01*
X100300500Y-116560691D01*
X118339500Y-116560691D01*
X118339500Y-116679309D01*
X118344071Y-116696368D01*
X118370202Y-116793890D01*
X118429507Y-116896608D01*
X118429509Y-116896610D01*
X118429511Y-116896613D01*
X118513387Y-116980489D01*
X118513389Y-116980490D01*
X118513391Y-116980492D01*
X118616110Y-117039797D01*
X118616111Y-117039797D01*
X118616114Y-117039799D01*
X118730691Y-117070500D01*
X118730693Y-117070500D01*
X118849307Y-117070500D01*
X118849309Y-117070500D01*
X118963886Y-117039799D01*
X118963888Y-117039797D01*
X118963890Y-117039797D01*
X119066608Y-116980492D01*
X119066608Y-116980491D01*
X119066613Y-116980489D01*
X119099998Y-116947103D01*
X119154513Y-116919328D01*
X119214945Y-116928899D01*
X119240000Y-116947102D01*
X119253387Y-116960489D01*
X119253389Y-116960490D01*
X119253391Y-116960492D01*
X119356110Y-117019797D01*
X119356111Y-117019797D01*
X119356114Y-117019799D01*
X119470691Y-117050500D01*
X119470693Y-117050500D01*
X119589307Y-117050500D01*
X119589309Y-117050500D01*
X119703886Y-117019799D01*
X119703888Y-117019797D01*
X119703890Y-117019797D01*
X119806608Y-116960492D01*
X119806608Y-116960491D01*
X119806613Y-116960489D01*
X119890489Y-116876613D01*
X119894227Y-116870139D01*
X119949797Y-116773890D01*
X119949797Y-116773888D01*
X119949799Y-116773886D01*
X119980500Y-116659309D01*
X119980500Y-116540691D01*
X119949799Y-116426114D01*
X119949797Y-116426111D01*
X119949797Y-116426109D01*
X119890492Y-116323391D01*
X119890490Y-116323389D01*
X119890489Y-116323387D01*
X119806613Y-116239511D01*
X119806610Y-116239509D01*
X119806608Y-116239507D01*
X119703889Y-116180202D01*
X119703890Y-116180202D01*
X119690351Y-116176574D01*
X119589309Y-116149500D01*
X119470691Y-116149500D01*
X119400567Y-116168289D01*
X119356109Y-116180202D01*
X119253391Y-116239507D01*
X119253390Y-116239508D01*
X119253387Y-116239510D01*
X119253387Y-116239511D01*
X119220001Y-116272896D01*
X119165487Y-116300672D01*
X119105055Y-116291101D01*
X119079999Y-116272897D01*
X119066613Y-116259511D01*
X119066610Y-116259509D01*
X119066608Y-116259507D01*
X118963889Y-116200202D01*
X118963890Y-116200202D01*
X118950351Y-116196574D01*
X118849309Y-116169500D01*
X118730691Y-116169500D01*
X118660567Y-116188289D01*
X118616109Y-116200202D01*
X118513391Y-116259507D01*
X118429507Y-116343391D01*
X118370202Y-116446109D01*
X118370201Y-116446114D01*
X118339500Y-116560691D01*
X100300500Y-116560691D01*
X100300500Y-115169903D01*
X124899500Y-115169903D01*
X124899500Y-115270096D01*
X124925429Y-115366863D01*
X124925430Y-115366864D01*
X124925431Y-115366867D01*
X124975524Y-115453632D01*
X125046368Y-115524476D01*
X125133133Y-115574569D01*
X125133135Y-115574569D01*
X125133136Y-115574570D01*
X125181519Y-115587534D01*
X125229903Y-115600499D01*
X125229905Y-115600500D01*
X125229906Y-115600500D01*
X125330095Y-115600500D01*
X125330095Y-115600499D01*
X125426867Y-115574569D01*
X125513632Y-115524476D01*
X125565323Y-115472784D01*
X125619837Y-115445008D01*
X125680269Y-115454579D01*
X125705325Y-115472782D01*
X125751373Y-115518830D01*
X125838138Y-115568923D01*
X125838140Y-115568923D01*
X125838141Y-115568924D01*
X125859212Y-115574570D01*
X125934908Y-115594853D01*
X125934910Y-115594854D01*
X125934911Y-115594854D01*
X126035100Y-115594854D01*
X126035100Y-115594853D01*
X126131872Y-115568923D01*
X126218637Y-115518830D01*
X126289481Y-115447986D01*
X126339574Y-115361221D01*
X126355018Y-115303582D01*
X126388341Y-115252271D01*
X126445463Y-115230344D01*
X126504563Y-115246180D01*
X126536381Y-115279708D01*
X126538240Y-115282929D01*
X126538241Y-115282930D01*
X126588334Y-115369695D01*
X126659178Y-115440539D01*
X126745943Y-115490632D01*
X126745945Y-115490632D01*
X126745946Y-115490633D01*
X126774339Y-115498241D01*
X126842713Y-115516562D01*
X126842715Y-115516563D01*
X126842716Y-115516563D01*
X126942905Y-115516563D01*
X126942905Y-115516562D01*
X127039677Y-115490632D01*
X127126442Y-115440539D01*
X127197286Y-115369695D01*
X127247379Y-115282930D01*
X127273310Y-115186157D01*
X127273310Y-115085969D01*
X127252294Y-115007538D01*
X127911326Y-115007538D01*
X127911326Y-115107731D01*
X127937255Y-115204498D01*
X127937256Y-115204499D01*
X127937257Y-115204502D01*
X127987350Y-115291267D01*
X128058194Y-115362111D01*
X128144959Y-115412204D01*
X128144961Y-115412204D01*
X128144962Y-115412205D01*
X128193345Y-115425169D01*
X128241729Y-115438134D01*
X128241731Y-115438135D01*
X128241732Y-115438135D01*
X128341921Y-115438135D01*
X128341921Y-115438134D01*
X128438693Y-115412204D01*
X128525458Y-115362111D01*
X128596302Y-115291267D01*
X128596303Y-115291264D01*
X128600890Y-115286678D01*
X128601968Y-115287756D01*
X128646097Y-115257420D01*
X128707262Y-115259015D01*
X128744226Y-115282334D01*
X128766368Y-115304476D01*
X128853133Y-115354569D01*
X128853135Y-115354569D01*
X128853136Y-115354570D01*
X128899017Y-115366864D01*
X128949903Y-115380499D01*
X128949905Y-115380500D01*
X128949906Y-115380500D01*
X129050095Y-115380500D01*
X129050095Y-115380499D01*
X129146867Y-115354569D01*
X129233632Y-115304476D01*
X129304476Y-115233632D01*
X129354569Y-115146867D01*
X129380500Y-115050094D01*
X129380500Y-114949906D01*
X129358282Y-114866988D01*
X129354570Y-114853136D01*
X129354569Y-114853135D01*
X129354569Y-114853133D01*
X129304476Y-114766368D01*
X129233632Y-114695524D01*
X129146867Y-114645431D01*
X129146864Y-114645430D01*
X129146863Y-114645429D01*
X129050096Y-114619500D01*
X129050094Y-114619500D01*
X128949906Y-114619500D01*
X128949903Y-114619500D01*
X128853136Y-114645429D01*
X128853135Y-114645430D01*
X128853133Y-114645430D01*
X128853133Y-114645431D01*
X128766368Y-114695524D01*
X128695524Y-114766368D01*
X128695522Y-114766370D01*
X128690936Y-114770957D01*
X128689861Y-114769882D01*
X128645703Y-114800221D01*
X128584539Y-114798611D01*
X128547598Y-114775299D01*
X128525458Y-114753159D01*
X128438693Y-114703066D01*
X128438690Y-114703065D01*
X128438689Y-114703064D01*
X128341922Y-114677135D01*
X128341920Y-114677135D01*
X128241732Y-114677135D01*
X128241729Y-114677135D01*
X128144962Y-114703064D01*
X128144961Y-114703065D01*
X128144959Y-114703065D01*
X128144959Y-114703066D01*
X128058194Y-114753159D01*
X127987350Y-114824003D01*
X127937585Y-114910201D01*
X127937256Y-114910770D01*
X127937255Y-114910771D01*
X127911326Y-115007538D01*
X127252294Y-115007538D01*
X127247379Y-114989196D01*
X127197286Y-114902431D01*
X127126442Y-114831587D01*
X127039677Y-114781494D01*
X127039674Y-114781493D01*
X127039673Y-114781492D01*
X126942906Y-114755563D01*
X126942904Y-114755563D01*
X126842716Y-114755563D01*
X126842713Y-114755563D01*
X126745946Y-114781492D01*
X126745945Y-114781493D01*
X126745943Y-114781493D01*
X126745943Y-114781494D01*
X126659178Y-114831587D01*
X126588334Y-114902431D01*
X126543134Y-114980722D01*
X126538240Y-114989198D01*
X126522796Y-115046833D01*
X126489471Y-115098147D01*
X126432349Y-115120072D01*
X126373249Y-115104235D01*
X126341433Y-115070708D01*
X126339574Y-115067489D01*
X126339574Y-115067487D01*
X126289481Y-114980722D01*
X126218637Y-114909878D01*
X126131872Y-114859785D01*
X126131869Y-114859784D01*
X126131868Y-114859783D01*
X126035101Y-114833854D01*
X126035099Y-114833854D01*
X125934911Y-114833854D01*
X125934908Y-114833854D01*
X125838141Y-114859783D01*
X125838140Y-114859784D01*
X125838138Y-114859784D01*
X125838138Y-114859785D01*
X125787001Y-114889309D01*
X125751370Y-114909880D01*
X125699682Y-114961568D01*
X125645165Y-114989345D01*
X125584733Y-114979773D01*
X125559678Y-114961570D01*
X125513632Y-114915524D01*
X125426867Y-114865431D01*
X125426864Y-114865430D01*
X125426863Y-114865429D01*
X125330096Y-114839500D01*
X125330094Y-114839500D01*
X125229906Y-114839500D01*
X125229903Y-114839500D01*
X125133136Y-114865429D01*
X125133135Y-114865430D01*
X125133133Y-114865430D01*
X125133133Y-114865431D01*
X125046368Y-114915524D01*
X124975524Y-114986368D01*
X124953361Y-115024757D01*
X124925430Y-115073135D01*
X124925429Y-115073136D01*
X124899500Y-115169903D01*
X100300500Y-115169903D01*
X100300500Y-109038323D01*
X111674166Y-109038323D01*
X111674166Y-109156941D01*
X111685243Y-109198281D01*
X111704868Y-109271522D01*
X111764173Y-109374240D01*
X111764175Y-109374242D01*
X111764177Y-109374245D01*
X111848053Y-109458121D01*
X111848055Y-109458122D01*
X111848057Y-109458124D01*
X111950776Y-109517429D01*
X111950777Y-109517429D01*
X111950780Y-109517431D01*
X112006124Y-109532260D01*
X112057437Y-109565583D01*
X112079364Y-109622704D01*
X112079500Y-109627886D01*
X112079500Y-110026929D01*
X112079499Y-110026929D01*
X112088940Y-110062159D01*
X112096559Y-110090593D01*
X112097477Y-110094016D01*
X112097480Y-110094028D01*
X112098615Y-110098269D01*
X112098617Y-110098272D01*
X112131120Y-110154569D01*
X112135544Y-110162231D01*
X112187769Y-110214456D01*
X112187771Y-110214457D01*
X113290504Y-111317190D01*
X113318281Y-111371707D01*
X113319500Y-111387194D01*
X113319500Y-113512830D01*
X113334658Y-113569397D01*
X113334659Y-113569400D01*
X113338616Y-113584168D01*
X113375544Y-113648130D01*
X113427769Y-113700355D01*
X113427771Y-113700356D01*
X113578681Y-113851266D01*
X113606458Y-113905783D01*
X113607677Y-113921270D01*
X113607677Y-113993385D01*
X113623186Y-114051265D01*
X113638379Y-114107966D01*
X113697684Y-114210684D01*
X113697686Y-114210686D01*
X113697688Y-114210689D01*
X113781564Y-114294565D01*
X113781566Y-114294566D01*
X113781568Y-114294568D01*
X113884287Y-114353873D01*
X113884288Y-114353873D01*
X113884291Y-114353875D01*
X113998868Y-114384576D01*
X113998870Y-114384576D01*
X114117484Y-114384576D01*
X114117486Y-114384576D01*
X114232063Y-114353875D01*
X114232065Y-114353873D01*
X114232067Y-114353873D01*
X114334785Y-114294568D01*
X114334785Y-114294567D01*
X114334790Y-114294565D01*
X114418666Y-114210689D01*
X114477976Y-114107962D01*
X114486871Y-114074767D01*
X116327677Y-114074767D01*
X116327677Y-114193385D01*
X116347073Y-114265770D01*
X116358379Y-114307966D01*
X116417684Y-114410684D01*
X116417686Y-114410686D01*
X116417688Y-114410689D01*
X116501564Y-114494565D01*
X116501566Y-114494566D01*
X116501568Y-114494568D01*
X116604287Y-114553873D01*
X116604288Y-114553873D01*
X116604291Y-114553875D01*
X116718868Y-114584576D01*
X116718870Y-114584576D01*
X116837484Y-114584576D01*
X116837486Y-114584576D01*
X116952063Y-114553875D01*
X116952065Y-114553873D01*
X116952067Y-114553873D01*
X117054785Y-114494568D01*
X117054785Y-114494567D01*
X117054790Y-114494565D01*
X117102814Y-114446541D01*
X131216606Y-114446541D01*
X131216606Y-114565159D01*
X131243680Y-114666201D01*
X131247308Y-114679740D01*
X131306613Y-114782458D01*
X131306615Y-114782460D01*
X131306617Y-114782463D01*
X131390493Y-114866339D01*
X131390495Y-114866340D01*
X131390497Y-114866342D01*
X131493216Y-114925647D01*
X131493217Y-114925647D01*
X131493220Y-114925649D01*
X131607797Y-114956350D01*
X131607799Y-114956350D01*
X131634062Y-114956350D01*
X131692253Y-114975257D01*
X131728217Y-115024757D01*
X131728217Y-115085943D01*
X131719798Y-115104851D01*
X131690202Y-115156111D01*
X131690201Y-115156113D01*
X131690201Y-115156114D01*
X131659500Y-115270691D01*
X131659500Y-115389309D01*
X131681868Y-115472786D01*
X131690202Y-115503890D01*
X131749507Y-115606608D01*
X131749509Y-115606610D01*
X131749511Y-115606613D01*
X131833387Y-115690489D01*
X131833389Y-115690490D01*
X131833391Y-115690492D01*
X131936110Y-115749797D01*
X131936111Y-115749797D01*
X131936114Y-115749799D01*
X132050691Y-115780500D01*
X132050693Y-115780500D01*
X132169307Y-115780500D01*
X132169309Y-115780500D01*
X132283886Y-115749799D01*
X132283888Y-115749797D01*
X132283890Y-115749797D01*
X132386608Y-115690492D01*
X132386608Y-115690491D01*
X132386613Y-115690489D01*
X132470489Y-115606613D01*
X132488990Y-115574569D01*
X132529797Y-115503890D01*
X132529797Y-115503888D01*
X132529799Y-115503886D01*
X132560500Y-115389309D01*
X132560500Y-115270691D01*
X132529799Y-115156114D01*
X132529797Y-115156111D01*
X132529797Y-115156109D01*
X132470492Y-115053391D01*
X132470490Y-115053389D01*
X132470489Y-115053387D01*
X132386613Y-114969511D01*
X132386610Y-114969509D01*
X132386608Y-114969507D01*
X132283889Y-114910202D01*
X132283890Y-114910202D01*
X132254888Y-114902431D01*
X132169309Y-114879500D01*
X132143044Y-114879500D01*
X132132980Y-114876230D01*
X132122459Y-114877336D01*
X132104537Y-114866988D01*
X132084853Y-114860593D01*
X132078633Y-114852032D01*
X132069472Y-114846743D01*
X132061055Y-114827838D01*
X132048889Y-114811093D01*
X132048889Y-114800511D01*
X132044586Y-114790847D01*
X132048871Y-114770691D01*
X134489500Y-114770691D01*
X134489500Y-114889309D01*
X134505736Y-114949903D01*
X134520202Y-115003890D01*
X134579507Y-115106608D01*
X134579509Y-115106610D01*
X134579511Y-115106613D01*
X134663387Y-115190489D01*
X134663389Y-115190490D01*
X134663391Y-115190492D01*
X134766110Y-115249797D01*
X134766111Y-115249797D01*
X134766114Y-115249799D01*
X134880691Y-115280500D01*
X134880693Y-115280500D01*
X134999307Y-115280500D01*
X134999309Y-115280500D01*
X135113886Y-115249799D01*
X135113888Y-115249797D01*
X135113890Y-115249797D01*
X135216608Y-115190492D01*
X135216608Y-115190491D01*
X135216613Y-115190489D01*
X135282062Y-115125040D01*
X136230365Y-115125040D01*
X136230365Y-115256824D01*
X136256556Y-115354570D01*
X136264474Y-115384122D01*
X136330361Y-115498241D01*
X136330363Y-115498243D01*
X136330365Y-115498246D01*
X136423551Y-115591432D01*
X136423553Y-115591433D01*
X136423555Y-115591435D01*
X136537675Y-115657322D01*
X136537673Y-115657322D01*
X136537677Y-115657323D01*
X136537679Y-115657324D01*
X136664973Y-115691432D01*
X136664975Y-115691432D01*
X136796755Y-115691432D01*
X136796757Y-115691432D01*
X136924051Y-115657324D01*
X136924053Y-115657322D01*
X136924055Y-115657322D01*
X137038174Y-115591435D01*
X137038174Y-115591434D01*
X137038179Y-115591432D01*
X137055503Y-115574108D01*
X138979500Y-115574108D01*
X138979500Y-115705892D01*
X138991265Y-115749799D01*
X139013609Y-115833190D01*
X139079496Y-115947309D01*
X139079498Y-115947311D01*
X139079500Y-115947314D01*
X139172686Y-116040500D01*
X139172688Y-116040501D01*
X139172690Y-116040503D01*
X139286810Y-116106390D01*
X139286808Y-116106390D01*
X139286812Y-116106391D01*
X139286814Y-116106392D01*
X139414108Y-116140500D01*
X139414110Y-116140500D01*
X139545890Y-116140500D01*
X139545892Y-116140500D01*
X139673186Y-116106392D01*
X139673188Y-116106390D01*
X139673190Y-116106390D01*
X139787309Y-116040503D01*
X139787309Y-116040502D01*
X139787314Y-116040500D01*
X139880500Y-115947314D01*
X139946392Y-115833186D01*
X139980500Y-115705892D01*
X139980500Y-115574108D01*
X139946392Y-115446814D01*
X139946390Y-115446811D01*
X139946390Y-115446809D01*
X139880503Y-115332690D01*
X139880501Y-115332688D01*
X139880500Y-115332686D01*
X139787314Y-115239500D01*
X139787311Y-115239498D01*
X139787309Y-115239496D01*
X139673189Y-115173609D01*
X139673191Y-115173609D01*
X139623799Y-115160375D01*
X139545892Y-115139500D01*
X139414108Y-115139500D01*
X139336200Y-115160375D01*
X139286809Y-115173609D01*
X139172690Y-115239496D01*
X139079496Y-115332690D01*
X139013609Y-115446809D01*
X139013608Y-115446814D01*
X138979500Y-115574108D01*
X137055503Y-115574108D01*
X137131365Y-115498246D01*
X137131368Y-115498241D01*
X137197255Y-115384122D01*
X137197255Y-115384120D01*
X137197257Y-115384118D01*
X137231365Y-115256824D01*
X137231365Y-115125040D01*
X137197257Y-114997746D01*
X137197255Y-114997743D01*
X137197255Y-114997741D01*
X137131368Y-114883622D01*
X137131366Y-114883620D01*
X137131365Y-114883618D01*
X137038179Y-114790432D01*
X137038176Y-114790430D01*
X137038174Y-114790428D01*
X136924054Y-114724541D01*
X136924056Y-114724541D01*
X136874664Y-114711307D01*
X136796757Y-114690432D01*
X136664973Y-114690432D01*
X136587065Y-114711307D01*
X136537674Y-114724541D01*
X136423555Y-114790428D01*
X136330361Y-114883622D01*
X136264474Y-114997741D01*
X136250446Y-115050096D01*
X136230365Y-115125040D01*
X135282062Y-115125040D01*
X135300489Y-115106613D01*
X135359799Y-115003886D01*
X135390500Y-114889309D01*
X135390500Y-114770691D01*
X135359799Y-114656114D01*
X135359797Y-114656111D01*
X135359797Y-114656109D01*
X135300492Y-114553391D01*
X135300490Y-114553389D01*
X135300489Y-114553387D01*
X135216613Y-114469511D01*
X135216610Y-114469509D01*
X135216608Y-114469507D01*
X135113889Y-114410202D01*
X135113890Y-114410202D01*
X135100351Y-114406574D01*
X134999309Y-114379500D01*
X134880691Y-114379500D01*
X134839445Y-114390552D01*
X134766109Y-114410202D01*
X134663391Y-114469507D01*
X134579507Y-114553391D01*
X134520202Y-114656109D01*
X134520201Y-114656114D01*
X134489500Y-114770691D01*
X132048871Y-114770691D01*
X132048889Y-114770604D01*
X132048889Y-114749907D01*
X132057308Y-114730999D01*
X132066718Y-114714701D01*
X132066719Y-114714699D01*
X132086903Y-114679740D01*
X132086903Y-114679738D01*
X132086905Y-114679736D01*
X132117606Y-114565159D01*
X132117606Y-114446541D01*
X132086905Y-114331964D01*
X132086903Y-114331961D01*
X132086903Y-114331959D01*
X132027598Y-114229241D01*
X132027596Y-114229239D01*
X132027595Y-114229237D01*
X131943719Y-114145361D01*
X131943716Y-114145359D01*
X131943714Y-114145357D01*
X131840995Y-114086052D01*
X131840996Y-114086052D01*
X131819387Y-114080262D01*
X131726415Y-114055350D01*
X131607797Y-114055350D01*
X131537673Y-114074139D01*
X131493215Y-114086052D01*
X131390497Y-114145357D01*
X131306613Y-114229241D01*
X131247308Y-114331959D01*
X131234519Y-114379688D01*
X131216606Y-114446541D01*
X117102814Y-114446541D01*
X117138666Y-114410689D01*
X117138948Y-114410201D01*
X117150293Y-114390552D01*
X117197974Y-114307966D01*
X117197974Y-114307964D01*
X117197976Y-114307962D01*
X117228677Y-114193385D01*
X117228677Y-114121269D01*
X117247584Y-114063078D01*
X117257674Y-114051265D01*
X117373575Y-113935364D01*
X117530380Y-113778560D01*
X117567308Y-113714598D01*
X117586424Y-113643258D01*
X117586424Y-113569400D01*
X117586424Y-113086480D01*
X122584414Y-113086480D01*
X122584414Y-113199832D01*
X122613752Y-113309323D01*
X122670428Y-113407489D01*
X122750581Y-113487642D01*
X122848747Y-113544318D01*
X122958238Y-113573656D01*
X122958240Y-113573656D01*
X123071588Y-113573656D01*
X123071590Y-113573656D01*
X123181081Y-113544318D01*
X123279247Y-113487642D01*
X123359400Y-113407489D01*
X123416076Y-113309323D01*
X123445414Y-113199832D01*
X123445414Y-113086480D01*
X123416076Y-112976989D01*
X123359400Y-112878823D01*
X123279247Y-112798670D01*
X123181081Y-112741994D01*
X123071590Y-112712656D01*
X122958238Y-112712656D01*
X122848747Y-112741994D01*
X122750581Y-112798670D01*
X122670428Y-112878823D01*
X122613752Y-112976989D01*
X122584414Y-113086480D01*
X117586424Y-113086480D01*
X117586424Y-112711270D01*
X117605331Y-112653079D01*
X117615420Y-112641266D01*
X117781783Y-112474903D01*
X124344500Y-112474903D01*
X124344500Y-112575096D01*
X124370429Y-112671863D01*
X124370430Y-112671864D01*
X124370431Y-112671867D01*
X124420524Y-112758632D01*
X124491368Y-112829476D01*
X124491370Y-112829477D01*
X124491889Y-112829996D01*
X124519666Y-112884513D01*
X124510095Y-112944945D01*
X124491891Y-112970000D01*
X124445524Y-113016368D01*
X124405046Y-113086480D01*
X124395430Y-113103135D01*
X124395429Y-113103136D01*
X124369500Y-113199903D01*
X124369500Y-113300096D01*
X124395429Y-113396863D01*
X124395430Y-113396864D01*
X124395431Y-113396867D01*
X124445524Y-113483632D01*
X124467160Y-113505268D01*
X124494936Y-113559783D01*
X124485365Y-113620215D01*
X124467161Y-113645270D01*
X124460794Y-113651638D01*
X124417106Y-113727310D01*
X124410700Y-113738405D01*
X124410699Y-113738406D01*
X124384770Y-113835173D01*
X124384770Y-113935366D01*
X124410699Y-114032133D01*
X124410700Y-114032134D01*
X124410701Y-114032137D01*
X124460794Y-114118902D01*
X124531638Y-114189746D01*
X124618403Y-114239839D01*
X124618405Y-114239839D01*
X124618406Y-114239840D01*
X124666789Y-114252804D01*
X124715173Y-114265769D01*
X124715175Y-114265770D01*
X124715176Y-114265770D01*
X124815365Y-114265770D01*
X124815365Y-114265769D01*
X124912137Y-114239839D01*
X124998902Y-114189746D01*
X125069746Y-114118902D01*
X125119839Y-114032137D01*
X125145770Y-113935364D01*
X125145770Y-113835176D01*
X125119839Y-113738403D01*
X125069746Y-113651638D01*
X125048109Y-113630001D01*
X125020334Y-113575487D01*
X125029905Y-113515055D01*
X125048108Y-113489999D01*
X125054476Y-113483632D01*
X125104569Y-113396867D01*
X125130500Y-113300094D01*
X125130500Y-113199906D01*
X125107129Y-113112686D01*
X125104570Y-113103136D01*
X125104569Y-113103135D01*
X125104569Y-113103133D01*
X125054476Y-113016368D01*
X124983632Y-112945524D01*
X124983629Y-112945522D01*
X124983111Y-112945004D01*
X124955334Y-112890487D01*
X124964905Y-112830055D01*
X124983108Y-112804999D01*
X125029476Y-112758632D01*
X125079569Y-112671867D01*
X125105500Y-112575094D01*
X125105500Y-112474906D01*
X125087993Y-112409570D01*
X125079570Y-112378136D01*
X125079569Y-112378135D01*
X125079569Y-112378133D01*
X125029476Y-112291368D01*
X124958632Y-112220524D01*
X124871867Y-112170431D01*
X124871864Y-112170430D01*
X124871863Y-112170429D01*
X124775096Y-112144500D01*
X124775094Y-112144500D01*
X124674906Y-112144500D01*
X124674903Y-112144500D01*
X124578136Y-112170429D01*
X124578135Y-112170430D01*
X124578133Y-112170430D01*
X124578133Y-112170431D01*
X124491368Y-112220524D01*
X124420524Y-112291368D01*
X124381203Y-112359476D01*
X124370430Y-112378135D01*
X124370429Y-112378136D01*
X124344500Y-112474903D01*
X117781783Y-112474903D01*
X118311802Y-111944884D01*
X118366319Y-111917107D01*
X118381806Y-111915888D01*
X122631538Y-111915888D01*
X122631540Y-111915888D01*
X122702881Y-111896772D01*
X122766843Y-111859844D01*
X122819068Y-111807619D01*
X122855996Y-111743657D01*
X122875112Y-111672316D01*
X122875112Y-111672312D01*
X122875469Y-111670980D01*
X122901090Y-111626601D01*
X123165764Y-111361927D01*
X129241263Y-111361927D01*
X129241263Y-111462120D01*
X129267192Y-111558887D01*
X129267193Y-111558888D01*
X129267194Y-111558891D01*
X129317287Y-111645656D01*
X129388131Y-111716500D01*
X129474896Y-111766593D01*
X129486613Y-111769732D01*
X129537927Y-111803055D01*
X129559855Y-111860176D01*
X129552458Y-111903238D01*
X129550430Y-111908133D01*
X129524500Y-112004903D01*
X129524500Y-112105096D01*
X129550429Y-112201863D01*
X129550430Y-112201864D01*
X129550431Y-112201867D01*
X129600524Y-112288632D01*
X129671368Y-112359476D01*
X129758133Y-112409569D01*
X129758135Y-112409569D01*
X129758136Y-112409570D01*
X129806519Y-112422534D01*
X129854903Y-112435499D01*
X129854905Y-112435500D01*
X129854906Y-112435500D01*
X129955095Y-112435500D01*
X129955095Y-112435499D01*
X130051867Y-112409569D01*
X130138632Y-112359476D01*
X130209476Y-112288632D01*
X130241939Y-112232403D01*
X131174562Y-112232403D01*
X131174562Y-112332596D01*
X131200491Y-112429363D01*
X131200492Y-112429364D01*
X131200493Y-112429367D01*
X131250586Y-112516132D01*
X131321430Y-112586976D01*
X131408195Y-112637069D01*
X131408197Y-112637069D01*
X131408198Y-112637070D01*
X131495917Y-112660575D01*
X131547231Y-112693899D01*
X131569157Y-112751020D01*
X131565920Y-112781823D01*
X131552997Y-112830055D01*
X131542175Y-112870443D01*
X131542175Y-112989061D01*
X131568279Y-113086481D01*
X131572877Y-113103642D01*
X131632182Y-113206360D01*
X131632184Y-113206362D01*
X131632186Y-113206365D01*
X131716062Y-113290241D01*
X131716064Y-113290242D01*
X131716066Y-113290244D01*
X131818785Y-113349549D01*
X131818786Y-113349549D01*
X131818789Y-113349551D01*
X131933366Y-113380252D01*
X131933368Y-113380252D01*
X132051982Y-113380252D01*
X132051984Y-113380252D01*
X132149554Y-113354108D01*
X141378186Y-113354108D01*
X141378186Y-113485892D01*
X141400561Y-113569397D01*
X141412295Y-113613190D01*
X141478182Y-113727309D01*
X141478184Y-113727311D01*
X141478186Y-113727314D01*
X141571372Y-113820500D01*
X141571374Y-113820501D01*
X141571376Y-113820503D01*
X141685496Y-113886390D01*
X141685494Y-113886390D01*
X141685498Y-113886391D01*
X141685500Y-113886392D01*
X141812794Y-113920500D01*
X141812796Y-113920500D01*
X141944576Y-113920500D01*
X141944578Y-113920500D01*
X142071872Y-113886392D01*
X142071874Y-113886390D01*
X142071876Y-113886390D01*
X142185451Y-113820817D01*
X143174500Y-113820817D01*
X143174500Y-113959183D01*
X143210312Y-114092836D01*
X143279495Y-114212665D01*
X143377335Y-114310505D01*
X143497164Y-114379688D01*
X143630817Y-114415500D01*
X143630819Y-114415500D01*
X143769181Y-114415500D01*
X143769183Y-114415500D01*
X143902836Y-114379688D01*
X144022665Y-114310505D01*
X144120505Y-114212665D01*
X144189688Y-114092836D01*
X144225500Y-113959183D01*
X144225500Y-113820817D01*
X144189688Y-113687164D01*
X144120505Y-113567335D01*
X144022665Y-113469495D01*
X143902836Y-113400312D01*
X143769183Y-113364500D01*
X143630817Y-113364500D01*
X143497164Y-113400312D01*
X143377335Y-113469495D01*
X143279495Y-113567335D01*
X143210312Y-113687164D01*
X143174500Y-113820817D01*
X142185451Y-113820817D01*
X142185995Y-113820503D01*
X142185995Y-113820502D01*
X142186000Y-113820500D01*
X142279186Y-113727314D01*
X142305142Y-113682357D01*
X142345076Y-113613190D01*
X142345076Y-113613188D01*
X142345078Y-113613186D01*
X142379186Y-113485892D01*
X142379186Y-113354108D01*
X142345078Y-113226814D01*
X142345076Y-113226811D01*
X142345076Y-113226809D01*
X142279189Y-113112690D01*
X142279187Y-113112688D01*
X142279186Y-113112686D01*
X142186000Y-113019500D01*
X142185997Y-113019498D01*
X142185995Y-113019496D01*
X142071875Y-112953609D01*
X142071877Y-112953609D01*
X142022485Y-112940375D01*
X141944578Y-112919500D01*
X141812794Y-112919500D01*
X141734886Y-112940375D01*
X141685495Y-112953609D01*
X141571376Y-113019496D01*
X141478182Y-113112690D01*
X141412295Y-113226809D01*
X141412294Y-113226814D01*
X141378186Y-113354108D01*
X132149554Y-113354108D01*
X132166561Y-113349551D01*
X132166563Y-113349549D01*
X132166565Y-113349549D01*
X132269283Y-113290244D01*
X132269283Y-113290243D01*
X132269288Y-113290241D01*
X132353164Y-113206365D01*
X132412474Y-113103638D01*
X132443175Y-112989061D01*
X132443175Y-112870443D01*
X132412474Y-112755866D01*
X132412472Y-112755863D01*
X132412472Y-112755861D01*
X132353167Y-112653143D01*
X132353165Y-112653141D01*
X132353164Y-112653139D01*
X132269288Y-112569263D01*
X132269285Y-112569261D01*
X132269283Y-112569259D01*
X132166564Y-112509954D01*
X132166565Y-112509954D01*
X132114133Y-112495905D01*
X132051984Y-112479252D01*
X132025284Y-112479252D01*
X131967093Y-112460345D01*
X131931129Y-112410845D01*
X131929658Y-112354627D01*
X131935562Y-112332594D01*
X131935562Y-112232405D01*
X131935561Y-112232403D01*
X131930600Y-112213890D01*
X131909631Y-112135633D01*
X131859538Y-112048868D01*
X131788694Y-111978024D01*
X131701929Y-111927931D01*
X131701926Y-111927930D01*
X131701925Y-111927929D01*
X131605158Y-111902000D01*
X131605156Y-111902000D01*
X131504968Y-111902000D01*
X131504965Y-111902000D01*
X131408198Y-111927929D01*
X131408197Y-111927930D01*
X131408195Y-111927930D01*
X131408195Y-111927931D01*
X131321430Y-111978024D01*
X131250586Y-112048868D01*
X131218125Y-112105094D01*
X131200492Y-112135635D01*
X131200491Y-112135636D01*
X131174562Y-112232403D01*
X130241939Y-112232403D01*
X130259569Y-112201867D01*
X130285500Y-112105094D01*
X130285500Y-112004906D01*
X130259569Y-111908133D01*
X130256658Y-111903092D01*
X130243935Y-111843246D01*
X130268818Y-111787349D01*
X130272369Y-111783606D01*
X131202626Y-110853350D01*
X132146999Y-110853350D01*
X132146999Y-110971968D01*
X132162224Y-111028788D01*
X132177701Y-111086549D01*
X132237006Y-111189267D01*
X132237008Y-111189269D01*
X132237010Y-111189272D01*
X132320886Y-111273148D01*
X132320888Y-111273149D01*
X132320890Y-111273151D01*
X132423609Y-111332456D01*
X132423610Y-111332456D01*
X132423613Y-111332458D01*
X132538190Y-111363159D01*
X132538192Y-111363159D01*
X132656806Y-111363159D01*
X132656808Y-111363159D01*
X132771385Y-111332458D01*
X132771387Y-111332456D01*
X132771389Y-111332456D01*
X132874107Y-111273151D01*
X132874107Y-111273150D01*
X132874112Y-111273148D01*
X132957988Y-111189272D01*
X132963052Y-111180501D01*
X133008521Y-111139559D01*
X133069371Y-111133163D01*
X133122360Y-111163755D01*
X133134526Y-111180501D01*
X133138067Y-111186635D01*
X133139590Y-111189272D01*
X133223466Y-111273148D01*
X133223468Y-111273149D01*
X133223470Y-111273151D01*
X133326189Y-111332456D01*
X133326190Y-111332456D01*
X133326193Y-111332458D01*
X133440770Y-111363159D01*
X133440772Y-111363159D01*
X133559386Y-111363159D01*
X133559388Y-111363159D01*
X133673965Y-111332458D01*
X133673967Y-111332456D01*
X133673969Y-111332456D01*
X133776687Y-111273151D01*
X133776687Y-111273150D01*
X133776692Y-111273148D01*
X133860568Y-111189272D01*
X133865632Y-111180501D01*
X133911101Y-111139559D01*
X133971951Y-111133163D01*
X134024940Y-111163755D01*
X134037106Y-111180501D01*
X134040647Y-111186635D01*
X134042170Y-111189272D01*
X134126046Y-111273148D01*
X134126048Y-111273149D01*
X134126050Y-111273151D01*
X134228769Y-111332456D01*
X134228770Y-111332456D01*
X134228773Y-111332458D01*
X134343350Y-111363159D01*
X134343352Y-111363159D01*
X134461966Y-111363159D01*
X134461968Y-111363159D01*
X134576545Y-111332458D01*
X134576547Y-111332456D01*
X134576549Y-111332456D01*
X134679267Y-111273151D01*
X134679267Y-111273150D01*
X134679272Y-111273148D01*
X134731729Y-111220691D01*
X137979500Y-111220691D01*
X137979500Y-111339309D01*
X138006574Y-111440351D01*
X138010202Y-111453890D01*
X138069507Y-111556608D01*
X138069509Y-111556610D01*
X138069511Y-111556613D01*
X138153387Y-111640489D01*
X138153389Y-111640490D01*
X138153391Y-111640492D01*
X138256110Y-111699797D01*
X138256111Y-111699797D01*
X138256114Y-111699799D01*
X138370691Y-111730500D01*
X138370693Y-111730500D01*
X138489307Y-111730500D01*
X138489309Y-111730500D01*
X138603886Y-111699799D01*
X138603888Y-111699797D01*
X138603890Y-111699797D01*
X138706608Y-111640492D01*
X138706608Y-111640491D01*
X138706613Y-111640489D01*
X138790489Y-111556613D01*
X138792737Y-111552720D01*
X138849797Y-111453890D01*
X138849797Y-111453888D01*
X138849799Y-111453886D01*
X138880500Y-111339309D01*
X138880500Y-111220691D01*
X138849799Y-111106114D01*
X138849797Y-111106111D01*
X138849797Y-111106109D01*
X138790492Y-111003391D01*
X138790490Y-111003389D01*
X138790489Y-111003387D01*
X138706613Y-110919511D01*
X138706610Y-110919509D01*
X138706608Y-110919507D01*
X138656697Y-110890691D01*
X140099500Y-110890691D01*
X140099500Y-111009309D01*
X140120196Y-111086547D01*
X140130202Y-111123890D01*
X140189507Y-111226608D01*
X140189509Y-111226610D01*
X140189511Y-111226613D01*
X140273387Y-111310489D01*
X140273389Y-111310490D01*
X140273391Y-111310492D01*
X140376110Y-111369797D01*
X140376108Y-111369797D01*
X140376112Y-111369798D01*
X140376114Y-111369799D01*
X140472775Y-111395699D01*
X140475040Y-111397170D01*
X140477743Y-111397170D01*
X140500503Y-111413706D01*
X140524087Y-111429022D01*
X140525055Y-111431544D01*
X140527243Y-111433134D01*
X140535934Y-111459884D01*
X140546014Y-111486144D01*
X140546150Y-111491325D01*
X140546150Y-111504033D01*
X140527243Y-111562224D01*
X140477743Y-111598188D01*
X140472774Y-111599659D01*
X140396114Y-111620200D01*
X140396110Y-111620202D01*
X140293391Y-111679507D01*
X140209507Y-111763391D01*
X140150202Y-111866109D01*
X140138942Y-111908133D01*
X140119500Y-111980691D01*
X140119500Y-112099309D01*
X140121051Y-112105096D01*
X140150202Y-112213890D01*
X140209507Y-112316608D01*
X140209509Y-112316610D01*
X140209511Y-112316613D01*
X140293387Y-112400489D01*
X140293389Y-112400490D01*
X140293391Y-112400492D01*
X140396110Y-112459797D01*
X140396111Y-112459797D01*
X140396114Y-112459799D01*
X140510691Y-112490500D01*
X140510693Y-112490500D01*
X140629307Y-112490500D01*
X140629309Y-112490500D01*
X140743886Y-112459799D01*
X140743888Y-112459797D01*
X140743890Y-112459797D01*
X140846608Y-112400492D01*
X140846608Y-112400491D01*
X140846613Y-112400489D01*
X140930489Y-112316613D01*
X140930492Y-112316608D01*
X140989797Y-112213890D01*
X140989797Y-112213888D01*
X140989799Y-112213886D01*
X141020500Y-112099309D01*
X141020500Y-112046073D01*
X141039407Y-111987882D01*
X141049494Y-111976071D01*
X141075139Y-111950428D01*
X141113825Y-111883422D01*
X141133850Y-111808686D01*
X141133850Y-111731313D01*
X141133850Y-111622724D01*
X141152757Y-111564533D01*
X141162846Y-111552720D01*
X141681020Y-111034546D01*
X141735537Y-111006769D01*
X141751024Y-111005550D01*
X143398021Y-111005550D01*
X143456212Y-111024457D01*
X143483757Y-111055049D01*
X143523501Y-111123886D01*
X143539511Y-111151616D01*
X143623387Y-111235492D01*
X143623389Y-111235493D01*
X143623391Y-111235495D01*
X143726110Y-111294800D01*
X143726111Y-111294800D01*
X143726114Y-111294802D01*
X143840691Y-111325503D01*
X143840693Y-111325503D01*
X143959307Y-111325503D01*
X143959309Y-111325503D01*
X144073886Y-111294802D01*
X144073888Y-111294800D01*
X144073890Y-111294800D01*
X144176608Y-111235495D01*
X144176608Y-111235494D01*
X144176613Y-111235492D01*
X144260489Y-111151616D01*
X144298058Y-111086545D01*
X144319797Y-111048893D01*
X144319797Y-111048891D01*
X144319799Y-111048889D01*
X144350500Y-110934312D01*
X144350500Y-110815694D01*
X144319799Y-110701117D01*
X144319797Y-110701114D01*
X144319797Y-110701112D01*
X144268348Y-110612001D01*
X144255626Y-110552153D01*
X144268347Y-110513002D01*
X144319799Y-110423886D01*
X144350500Y-110309309D01*
X144350500Y-110190691D01*
X144319799Y-110076114D01*
X144319797Y-110076111D01*
X144319797Y-110076109D01*
X144260492Y-109973391D01*
X144260490Y-109973389D01*
X144260489Y-109973387D01*
X144176613Y-109889511D01*
X144176610Y-109889509D01*
X144176608Y-109889507D01*
X144073889Y-109830202D01*
X144073890Y-109830202D01*
X144060351Y-109826574D01*
X143959309Y-109799500D01*
X143840691Y-109799500D01*
X143801856Y-109809906D01*
X143726109Y-109830202D01*
X143623391Y-109889507D01*
X143539507Y-109973391D01*
X143491438Y-110056650D01*
X143445969Y-110097591D01*
X143405702Y-110106150D01*
X141497876Y-110106150D01*
X141420503Y-110106150D01*
X141412550Y-110108281D01*
X141388548Y-110114712D01*
X141388547Y-110114711D01*
X141345768Y-110126174D01*
X141345764Y-110126176D01*
X141278766Y-110164857D01*
X141278757Y-110164864D01*
X141278753Y-110164869D01*
X140897761Y-110545860D01*
X140843245Y-110573637D01*
X140782813Y-110564066D01*
X140778258Y-110561592D01*
X140723889Y-110530202D01*
X140723890Y-110530202D01*
X140710351Y-110526574D01*
X140609309Y-110499500D01*
X140490691Y-110499500D01*
X140440309Y-110513000D01*
X140376109Y-110530202D01*
X140273391Y-110589507D01*
X140189507Y-110673391D01*
X140130202Y-110776109D01*
X140119595Y-110815695D01*
X140099500Y-110890691D01*
X138656697Y-110890691D01*
X138603889Y-110860202D01*
X138603890Y-110860202D01*
X138590351Y-110856574D01*
X138489309Y-110829500D01*
X138370691Y-110829500D01*
X138300567Y-110848289D01*
X138256109Y-110860202D01*
X138153391Y-110919507D01*
X138069507Y-111003391D01*
X138010202Y-111106109D01*
X137998009Y-111151616D01*
X137979500Y-111220691D01*
X134731729Y-111220691D01*
X134763148Y-111189272D01*
X134822458Y-111086545D01*
X134853159Y-110971968D01*
X134853159Y-110853350D01*
X134822458Y-110738773D01*
X134822456Y-110738770D01*
X134822456Y-110738768D01*
X134802669Y-110704496D01*
X134789947Y-110644648D01*
X134814834Y-110588752D01*
X134818382Y-110585011D01*
X136415899Y-108987495D01*
X136470413Y-108959720D01*
X136530845Y-108969291D01*
X136574110Y-109012556D01*
X136583681Y-109072988D01*
X136581529Y-109083117D01*
X136579500Y-109090691D01*
X136579500Y-109209309D01*
X136595839Y-109270287D01*
X136610202Y-109323890D01*
X136669507Y-109426608D01*
X136669509Y-109426610D01*
X136669511Y-109426613D01*
X136753387Y-109510489D01*
X136753389Y-109510490D01*
X136753391Y-109510492D01*
X136856110Y-109569797D01*
X136856111Y-109569797D01*
X136856114Y-109569799D01*
X136970691Y-109600500D01*
X136970693Y-109600500D01*
X137089307Y-109600500D01*
X137089309Y-109600500D01*
X137203886Y-109569799D01*
X137203888Y-109569797D01*
X137203890Y-109569797D01*
X137306608Y-109510492D01*
X137306608Y-109510491D01*
X137306613Y-109510489D01*
X137390489Y-109426613D01*
X137420727Y-109374240D01*
X137449797Y-109323890D01*
X137449797Y-109323888D01*
X137449799Y-109323886D01*
X137480500Y-109209309D01*
X137480500Y-109090691D01*
X137449799Y-108976114D01*
X137449797Y-108976111D01*
X137449797Y-108976109D01*
X137390492Y-108873391D01*
X137390490Y-108873389D01*
X137390489Y-108873387D01*
X137306613Y-108789511D01*
X137306610Y-108789509D01*
X137306608Y-108789507D01*
X137203889Y-108730202D01*
X137203890Y-108730202D01*
X137190351Y-108726574D01*
X137089309Y-108699500D01*
X136970691Y-108699500D01*
X136967901Y-108700247D01*
X136963117Y-108701529D01*
X136957763Y-108701247D01*
X136952988Y-108703681D01*
X136927644Y-108699667D01*
X136902016Y-108698322D01*
X136897850Y-108694948D01*
X136892556Y-108694110D01*
X136874407Y-108675961D01*
X136854469Y-108659813D01*
X136853082Y-108654636D01*
X136849291Y-108650845D01*
X136845276Y-108625497D01*
X136838637Y-108600712D01*
X136840558Y-108595707D01*
X136839720Y-108590413D01*
X136851370Y-108567546D01*
X136860568Y-108543592D01*
X136867482Y-108535912D01*
X136869286Y-108534108D01*
X141339500Y-108534108D01*
X141339500Y-108665892D01*
X141365915Y-108764475D01*
X141373609Y-108793190D01*
X141439496Y-108907309D01*
X141439498Y-108907311D01*
X141439500Y-108907314D01*
X141532686Y-109000500D01*
X141532688Y-109000501D01*
X141532690Y-109000503D01*
X141646810Y-109066390D01*
X141646808Y-109066390D01*
X141646812Y-109066391D01*
X141646814Y-109066392D01*
X141774108Y-109100500D01*
X141774110Y-109100500D01*
X141905890Y-109100500D01*
X141905892Y-109100500D01*
X142033186Y-109066392D01*
X142033188Y-109066390D01*
X142033190Y-109066390D01*
X142147309Y-109000503D01*
X142147309Y-109000502D01*
X142147314Y-109000500D01*
X142240500Y-108907314D01*
X142279076Y-108840499D01*
X142306390Y-108793190D01*
X142306390Y-108793188D01*
X142306392Y-108793186D01*
X142340500Y-108665892D01*
X142340500Y-108534108D01*
X142306392Y-108406814D01*
X142306390Y-108406811D01*
X142306390Y-108406809D01*
X142240503Y-108292690D01*
X142240501Y-108292688D01*
X142240500Y-108292686D01*
X142147314Y-108199500D01*
X142147311Y-108199498D01*
X142147309Y-108199496D01*
X142033189Y-108133609D01*
X142033191Y-108133609D01*
X142027341Y-108132042D01*
X141905892Y-108099500D01*
X141774108Y-108099500D01*
X141696200Y-108120375D01*
X141646809Y-108133609D01*
X141532690Y-108199496D01*
X141439496Y-108292690D01*
X141373609Y-108406809D01*
X141366681Y-108432665D01*
X141339500Y-108534108D01*
X136869286Y-108534108D01*
X137362577Y-108040817D01*
X143174500Y-108040817D01*
X143174500Y-108179183D01*
X143210312Y-108312836D01*
X143279495Y-108432665D01*
X143377335Y-108530505D01*
X143497164Y-108599688D01*
X143630817Y-108635500D01*
X143630819Y-108635500D01*
X143769181Y-108635500D01*
X143769183Y-108635500D01*
X143902836Y-108599688D01*
X144022665Y-108530505D01*
X144120505Y-108432665D01*
X144189688Y-108312836D01*
X144225500Y-108179183D01*
X144225500Y-108040817D01*
X144189688Y-107907164D01*
X144120505Y-107787335D01*
X144022665Y-107689495D01*
X143902836Y-107620312D01*
X143769183Y-107584500D01*
X143630817Y-107584500D01*
X143497164Y-107620312D01*
X143377335Y-107689495D01*
X143279495Y-107787335D01*
X143210312Y-107907164D01*
X143174500Y-108040817D01*
X137362577Y-108040817D01*
X138033899Y-107369496D01*
X138088416Y-107341719D01*
X138103903Y-107340500D01*
X138392390Y-107340500D01*
X138450581Y-107359407D01*
X138462393Y-107369495D01*
X138493387Y-107400489D01*
X138493389Y-107400490D01*
X138493390Y-107400491D01*
X138493391Y-107400492D01*
X138596110Y-107459797D01*
X138596111Y-107459797D01*
X138596114Y-107459799D01*
X138710691Y-107490500D01*
X138710693Y-107490500D01*
X138829307Y-107490500D01*
X138829309Y-107490500D01*
X138943886Y-107459799D01*
X138943888Y-107459797D01*
X138943890Y-107459797D01*
X139046608Y-107400492D01*
X139046608Y-107400491D01*
X139046613Y-107400489D01*
X139130489Y-107316613D01*
X139163575Y-107259307D01*
X139189797Y-107213890D01*
X139189797Y-107213888D01*
X139189799Y-107213886D01*
X139220500Y-107099309D01*
X139220500Y-106980691D01*
X139189799Y-106866114D01*
X139189797Y-106866111D01*
X139189797Y-106866109D01*
X139130492Y-106763391D01*
X139130490Y-106763389D01*
X139130489Y-106763387D01*
X139046613Y-106679511D01*
X139046610Y-106679509D01*
X139046608Y-106679507D01*
X138943889Y-106620202D01*
X138943890Y-106620202D01*
X138930351Y-106616574D01*
X138829309Y-106589500D01*
X138710691Y-106589500D01*
X138640567Y-106608289D01*
X138596109Y-106620202D01*
X138493391Y-106679507D01*
X138462393Y-106710505D01*
X138455275Y-106714131D01*
X138450581Y-106720593D01*
X138428531Y-106727757D01*
X138407876Y-106738281D01*
X138392390Y-106739500D01*
X138337217Y-106739500D01*
X138279026Y-106720593D01*
X138243062Y-106671093D01*
X138243062Y-106609907D01*
X138267213Y-106570497D01*
X138596018Y-106241690D01*
X138650535Y-106213912D01*
X138691642Y-106216065D01*
X138708191Y-106220500D01*
X138708193Y-106220500D01*
X138826807Y-106220500D01*
X138826809Y-106220500D01*
X138941386Y-106189799D01*
X138941388Y-106189797D01*
X138941390Y-106189797D01*
X139044108Y-106130492D01*
X139044108Y-106130491D01*
X139044113Y-106130489D01*
X139127989Y-106046613D01*
X139175752Y-105963886D01*
X139187297Y-105943890D01*
X139187297Y-105943888D01*
X139187299Y-105943886D01*
X139218000Y-105829309D01*
X139218000Y-105710691D01*
X139187299Y-105596114D01*
X139187297Y-105596111D01*
X139187297Y-105596109D01*
X139127992Y-105493391D01*
X139127990Y-105493389D01*
X139127989Y-105493387D01*
X139044113Y-105409511D01*
X139044110Y-105409509D01*
X139044108Y-105409507D01*
X138941389Y-105350202D01*
X138941390Y-105350202D01*
X138927851Y-105346574D01*
X138826809Y-105319500D01*
X138708191Y-105319500D01*
X138682493Y-105326385D01*
X138645122Y-105336399D01*
X138617042Y-105334927D01*
X138588907Y-105334927D01*
X138586719Y-105333337D01*
X138584021Y-105333196D01*
X138562168Y-105315499D01*
X138539407Y-105298963D01*
X138538571Y-105296392D01*
X138536471Y-105294691D01*
X138520500Y-105240772D01*
X138520500Y-105215479D01*
X138539407Y-105157288D01*
X138549496Y-105145475D01*
X138715475Y-104979496D01*
X138769992Y-104951719D01*
X138785479Y-104950500D01*
X138829307Y-104950500D01*
X138829309Y-104950500D01*
X138943886Y-104919799D01*
X138943888Y-104919797D01*
X138943890Y-104919797D01*
X139046608Y-104860492D01*
X139046608Y-104860491D01*
X139046613Y-104860489D01*
X139130489Y-104776613D01*
X139189799Y-104673886D01*
X139220500Y-104559309D01*
X139220500Y-104440691D01*
X139189799Y-104326114D01*
X139189797Y-104326111D01*
X139189797Y-104326109D01*
X139130492Y-104223391D01*
X139130490Y-104223389D01*
X139130489Y-104223387D01*
X139046613Y-104139511D01*
X139046610Y-104139509D01*
X139046608Y-104139507D01*
X138943889Y-104080202D01*
X138943890Y-104080202D01*
X138930351Y-104076574D01*
X138829309Y-104049500D01*
X138710691Y-104049500D01*
X138640567Y-104068289D01*
X138596109Y-104080202D01*
X138493391Y-104139507D01*
X138409507Y-104223391D01*
X138350202Y-104326109D01*
X138319500Y-104440692D01*
X138319500Y-104484521D01*
X138300593Y-104542712D01*
X138290504Y-104554525D01*
X138035489Y-104809540D01*
X138035488Y-104809539D01*
X137979539Y-104865489D01*
X137939980Y-104934007D01*
X137939978Y-104934011D01*
X137919500Y-105010435D01*
X137919500Y-105461573D01*
X137900593Y-105519764D01*
X137890504Y-105531577D01*
X133388918Y-110033163D01*
X133334401Y-110060940D01*
X133318914Y-110062159D01*
X133107934Y-110062159D01*
X133031511Y-110082637D01*
X132975956Y-110114712D01*
X132962987Y-110122199D01*
X132652023Y-110433163D01*
X132597507Y-110460940D01*
X132582020Y-110462159D01*
X132538190Y-110462159D01*
X132468066Y-110480948D01*
X132423608Y-110492861D01*
X132320890Y-110552166D01*
X132237006Y-110636050D01*
X132177701Y-110738768D01*
X132177700Y-110738773D01*
X132146999Y-110853350D01*
X131202626Y-110853350D01*
X131571566Y-110484410D01*
X131615942Y-110458790D01*
X131685989Y-110440021D01*
X131685991Y-110440019D01*
X131685993Y-110440019D01*
X131713936Y-110423886D01*
X131754511Y-110400460D01*
X131810460Y-110344511D01*
X131850021Y-110275989D01*
X131870500Y-110199562D01*
X131870500Y-108956924D01*
X131889407Y-108898733D01*
X131938907Y-108862769D01*
X131995120Y-108861297D01*
X132104108Y-108890500D01*
X132104110Y-108890500D01*
X132235890Y-108890500D01*
X132235892Y-108890500D01*
X132363186Y-108856392D01*
X132363188Y-108856390D01*
X132363190Y-108856390D01*
X132477309Y-108790503D01*
X132477309Y-108790502D01*
X132477314Y-108790500D01*
X132570500Y-108697314D01*
X132572626Y-108693632D01*
X132636390Y-108583190D01*
X132636390Y-108583188D01*
X132636392Y-108583186D01*
X132670500Y-108455892D01*
X132670500Y-108324108D01*
X132636392Y-108196814D01*
X132636390Y-108196811D01*
X132636390Y-108196809D01*
X132570503Y-108082690D01*
X132570501Y-108082688D01*
X132570500Y-108082686D01*
X132477314Y-107989500D01*
X132477311Y-107989498D01*
X132477309Y-107989496D01*
X132363189Y-107923609D01*
X132363191Y-107923609D01*
X132313799Y-107910375D01*
X132235892Y-107889500D01*
X132104108Y-107889500D01*
X132062438Y-107900665D01*
X131995122Y-107918702D01*
X131934021Y-107915499D01*
X131886471Y-107876994D01*
X131870500Y-107823075D01*
X131870500Y-107401165D01*
X131872968Y-107393567D01*
X131871719Y-107385678D01*
X131882243Y-107365022D01*
X131889407Y-107342974D01*
X131899496Y-107331161D01*
X131991161Y-107239496D01*
X132045678Y-107211719D01*
X132061165Y-107210500D01*
X132079307Y-107210500D01*
X132079309Y-107210500D01*
X132193886Y-107179799D01*
X132193888Y-107179797D01*
X132193890Y-107179797D01*
X132296608Y-107120492D01*
X132296608Y-107120491D01*
X132296613Y-107120489D01*
X132380489Y-107036613D01*
X132399384Y-107003886D01*
X132439797Y-106933890D01*
X132439797Y-106933888D01*
X132439799Y-106933886D01*
X132470500Y-106819309D01*
X132470500Y-106700691D01*
X132439799Y-106586114D01*
X132439797Y-106586111D01*
X132439797Y-106586109D01*
X132380492Y-106483391D01*
X132380490Y-106483389D01*
X132380489Y-106483387D01*
X132296613Y-106399511D01*
X132296610Y-106399509D01*
X132296608Y-106399507D01*
X132193889Y-106340202D01*
X132193890Y-106340202D01*
X132180351Y-106336574D01*
X132079309Y-106309500D01*
X131960691Y-106309500D01*
X131895123Y-106327069D01*
X131834021Y-106323866D01*
X131786471Y-106285361D01*
X131770500Y-106231442D01*
X131770500Y-105963137D01*
X131789407Y-105904946D01*
X131819999Y-105877401D01*
X131866613Y-105850489D01*
X131950489Y-105766613D01*
X131971229Y-105730691D01*
X132009797Y-105663890D01*
X132009797Y-105663888D01*
X132009799Y-105663886D01*
X132040500Y-105549309D01*
X132040500Y-105430691D01*
X132009799Y-105316114D01*
X132009797Y-105316111D01*
X132009797Y-105316109D01*
X131950492Y-105213391D01*
X131950490Y-105213389D01*
X131950489Y-105213387D01*
X131866613Y-105129511D01*
X131866610Y-105129509D01*
X131866608Y-105129507D01*
X131763889Y-105070202D01*
X131763890Y-105070202D01*
X131750351Y-105066574D01*
X131649309Y-105039500D01*
X131530691Y-105039500D01*
X131443686Y-105062812D01*
X131382587Y-105059611D01*
X131335037Y-105021105D01*
X131319065Y-104967186D01*
X131319065Y-104597609D01*
X131337972Y-104539418D01*
X131348055Y-104527611D01*
X131379054Y-104496613D01*
X131379057Y-104496608D01*
X131438362Y-104393890D01*
X131438362Y-104393888D01*
X131438364Y-104393886D01*
X131469065Y-104279309D01*
X131469065Y-104160691D01*
X131438364Y-104046114D01*
X131438362Y-104046111D01*
X131438362Y-104046109D01*
X131379057Y-103943391D01*
X131379055Y-103943389D01*
X131379054Y-103943387D01*
X131295178Y-103859511D01*
X131295175Y-103859509D01*
X131295173Y-103859507D01*
X131192454Y-103800202D01*
X131192455Y-103800202D01*
X131178916Y-103796574D01*
X131077874Y-103769500D01*
X130959256Y-103769500D01*
X130889132Y-103788289D01*
X130844674Y-103800202D01*
X130741956Y-103859507D01*
X130658072Y-103943391D01*
X130598767Y-104046109D01*
X130589632Y-104080201D01*
X130568065Y-104160691D01*
X130568065Y-104279309D01*
X130584142Y-104339307D01*
X130598767Y-104393890D01*
X130658072Y-104496608D01*
X130658074Y-104496610D01*
X130658076Y-104496613D01*
X130689070Y-104527607D01*
X130716846Y-104582122D01*
X130718065Y-104597609D01*
X130718065Y-106490270D01*
X130699158Y-106548461D01*
X130689069Y-106560274D01*
X130585489Y-106663854D01*
X130585488Y-106663853D01*
X130529542Y-106719800D01*
X130529536Y-106719807D01*
X130526590Y-106724911D01*
X130519652Y-106735294D01*
X130479979Y-106804011D01*
X130479977Y-106804015D01*
X130459500Y-106880435D01*
X130459500Y-106959564D01*
X130479977Y-107035984D01*
X130479977Y-107035985D01*
X130479979Y-107035988D01*
X130516237Y-107098791D01*
X130529500Y-107148288D01*
X130529500Y-109523515D01*
X130510593Y-109581706D01*
X130500504Y-109593519D01*
X130005904Y-110088118D01*
X129951387Y-110115895D01*
X129910279Y-110113741D01*
X129876170Y-110104602D01*
X129876168Y-110104602D01*
X129775980Y-110104602D01*
X129775977Y-110104602D01*
X129679210Y-110130531D01*
X129679209Y-110130532D01*
X129679207Y-110130532D01*
X129679207Y-110130533D01*
X129592442Y-110180626D01*
X129521598Y-110251470D01*
X129495490Y-110296692D01*
X129471504Y-110338237D01*
X129471503Y-110338238D01*
X129445574Y-110435005D01*
X129445574Y-110535198D01*
X129471503Y-110631965D01*
X129471504Y-110631966D01*
X129471505Y-110631969D01*
X129521598Y-110718734D01*
X129592442Y-110789578D01*
X129679207Y-110839671D01*
X129679209Y-110839671D01*
X129679212Y-110839673D01*
X129682560Y-110841060D01*
X129684533Y-110842745D01*
X129684827Y-110842915D01*
X129684795Y-110842969D01*
X129729086Y-110880796D01*
X129743370Y-110940291D01*
X129719956Y-110996819D01*
X129667787Y-111028788D01*
X129644675Y-111031524D01*
X129571666Y-111031524D01*
X129474899Y-111057453D01*
X129474898Y-111057454D01*
X129474896Y-111057454D01*
X129474896Y-111057455D01*
X129388131Y-111107548D01*
X129317287Y-111178392D01*
X129292866Y-111220692D01*
X129267193Y-111265159D01*
X129267192Y-111265160D01*
X129241263Y-111361927D01*
X123165764Y-111361927D01*
X123968196Y-110559496D01*
X124022713Y-110531719D01*
X124038200Y-110530500D01*
X128121871Y-110530500D01*
X128190866Y-110501921D01*
X128199237Y-110498454D01*
X128199237Y-110498453D01*
X128199239Y-110498453D01*
X128488194Y-110209496D01*
X128542711Y-110181719D01*
X128558198Y-110180500D01*
X128650095Y-110180500D01*
X128650095Y-110180499D01*
X128746867Y-110154569D01*
X128833632Y-110104476D01*
X128904476Y-110033632D01*
X128954569Y-109946867D01*
X128980500Y-109850094D01*
X128980500Y-109749906D01*
X128964949Y-109691871D01*
X128954570Y-109653136D01*
X128954569Y-109653135D01*
X128954569Y-109653133D01*
X128904476Y-109566368D01*
X128833632Y-109495524D01*
X128746867Y-109445431D01*
X128746864Y-109445430D01*
X128746863Y-109445429D01*
X128650096Y-109419500D01*
X128650094Y-109419500D01*
X128549906Y-109419500D01*
X128549903Y-109419500D01*
X128453136Y-109445429D01*
X128453135Y-109445430D01*
X128453133Y-109445430D01*
X128453133Y-109445431D01*
X128366368Y-109495524D01*
X128295524Y-109566368D01*
X128245954Y-109652228D01*
X128245430Y-109653135D01*
X128245429Y-109653136D01*
X128219500Y-109749903D01*
X128219500Y-109841800D01*
X128200593Y-109899991D01*
X128190504Y-109911803D01*
X128021805Y-110080503D01*
X127967288Y-110108281D01*
X127951801Y-110109500D01*
X126656088Y-110109500D01*
X126597897Y-110090593D01*
X126561933Y-110041093D01*
X126560462Y-109984876D01*
X126580499Y-109910096D01*
X126580500Y-109910094D01*
X126580500Y-109809905D01*
X126580499Y-109809903D01*
X126577711Y-109799500D01*
X126554569Y-109713133D01*
X126504476Y-109626368D01*
X126433632Y-109555524D01*
X126346867Y-109505431D01*
X126346864Y-109505430D01*
X126346863Y-109505429D01*
X126250096Y-109479500D01*
X126250094Y-109479500D01*
X126149906Y-109479500D01*
X126149903Y-109479500D01*
X126053136Y-109505429D01*
X126053135Y-109505430D01*
X126053133Y-109505430D01*
X126053133Y-109505431D01*
X125966368Y-109555524D01*
X125895524Y-109626368D01*
X125847196Y-109710077D01*
X125845430Y-109713135D01*
X125845429Y-109713136D01*
X125819500Y-109809903D01*
X125819500Y-109910096D01*
X125839538Y-109984876D01*
X125836337Y-110045978D01*
X125797832Y-110093528D01*
X125743912Y-110109500D01*
X123868129Y-110109500D01*
X123848166Y-110117769D01*
X123848164Y-110117770D01*
X123848163Y-110117769D01*
X123790764Y-110141544D01*
X122606416Y-111325892D01*
X122551899Y-111353669D01*
X122536412Y-111354888D01*
X119707903Y-111354888D01*
X119649712Y-111335981D01*
X119613748Y-111286481D01*
X119613748Y-111225295D01*
X119622167Y-111206388D01*
X119669797Y-111123890D01*
X119669797Y-111123888D01*
X119669799Y-111123886D01*
X119700500Y-111009309D01*
X119700500Y-110890691D01*
X119669799Y-110776114D01*
X119669797Y-110776111D01*
X119669797Y-110776109D01*
X119610492Y-110673391D01*
X119610490Y-110673389D01*
X119610489Y-110673387D01*
X119526613Y-110589511D01*
X119526610Y-110589509D01*
X119526608Y-110589507D01*
X119423889Y-110530202D01*
X119423890Y-110530202D01*
X119410351Y-110526574D01*
X119309309Y-110499500D01*
X119190691Y-110499500D01*
X119140309Y-110513000D01*
X119076109Y-110530202D01*
X118973391Y-110589507D01*
X118889507Y-110673391D01*
X118830202Y-110776109D01*
X118819595Y-110815695D01*
X118799500Y-110890691D01*
X118799500Y-111009309D01*
X118820196Y-111086547D01*
X118830202Y-111123890D01*
X118877833Y-111206388D01*
X118890555Y-111266236D01*
X118865669Y-111322132D01*
X118812681Y-111352725D01*
X118792097Y-111354888D01*
X118261541Y-111354888D01*
X118187683Y-111354888D01*
X118140086Y-111367642D01*
X118140085Y-111367641D01*
X118116345Y-111374003D01*
X118116343Y-111374003D01*
X118116343Y-111374004D01*
X118078768Y-111395698D01*
X118052378Y-111410934D01*
X118000155Y-111463156D01*
X118000156Y-111463157D01*
X118000154Y-111463159D01*
X117133695Y-112329618D01*
X117133693Y-112329620D01*
X117133692Y-112329619D01*
X117081470Y-112381842D01*
X117044540Y-112445806D01*
X117038168Y-112469587D01*
X117025424Y-112517148D01*
X117025424Y-112517150D01*
X117025424Y-113449135D01*
X117022955Y-113456732D01*
X117024205Y-113464622D01*
X117013681Y-113485276D01*
X117006517Y-113507326D01*
X116996428Y-113519138D01*
X116860988Y-113654579D01*
X116806471Y-113682357D01*
X116790984Y-113683576D01*
X116718868Y-113683576D01*
X116656245Y-113700356D01*
X116604286Y-113714278D01*
X116501568Y-113773583D01*
X116417684Y-113857467D01*
X116358379Y-113960185D01*
X116358378Y-113960190D01*
X116327677Y-114074767D01*
X114486871Y-114074767D01*
X114490003Y-114063078D01*
X114495475Y-114042657D01*
X114495475Y-114042655D01*
X114498294Y-114032133D01*
X114508677Y-113993385D01*
X114508677Y-113874767D01*
X114477976Y-113760190D01*
X114477974Y-113760187D01*
X114477974Y-113760185D01*
X114418669Y-113657467D01*
X114418667Y-113657465D01*
X114418666Y-113657463D01*
X114334790Y-113573587D01*
X114334787Y-113573585D01*
X114334785Y-113573583D01*
X114232066Y-113514278D01*
X114232067Y-113514278D01*
X114218528Y-113510650D01*
X114117486Y-113483576D01*
X114117484Y-113483576D01*
X114045370Y-113483576D01*
X114037772Y-113481107D01*
X114029882Y-113482357D01*
X114009228Y-113471833D01*
X113987179Y-113464669D01*
X113975366Y-113454579D01*
X113909496Y-113388708D01*
X113881719Y-113334191D01*
X113880500Y-113318705D01*
X113880500Y-111193069D01*
X113879653Y-111186635D01*
X113881507Y-111186390D01*
X113884254Y-111134019D01*
X113922760Y-111086470D01*
X113976677Y-111070500D01*
X114396930Y-111070500D01*
X114396930Y-111070499D01*
X114468265Y-111051385D01*
X114468266Y-111051385D01*
X114468266Y-111051384D01*
X114468269Y-111051384D01*
X114532231Y-111014456D01*
X114584456Y-110962231D01*
X114584457Y-110962228D01*
X114598841Y-110947844D01*
X115053748Y-110947844D01*
X115053748Y-111066462D01*
X115080822Y-111167504D01*
X115084450Y-111181043D01*
X115143755Y-111283761D01*
X115143757Y-111283763D01*
X115143759Y-111283766D01*
X115227635Y-111367642D01*
X115227637Y-111367643D01*
X115227639Y-111367645D01*
X115330358Y-111426950D01*
X115330359Y-111426950D01*
X115330362Y-111426952D01*
X115444939Y-111457653D01*
X115444941Y-111457653D01*
X115563555Y-111457653D01*
X115563557Y-111457653D01*
X115678134Y-111426952D01*
X115678136Y-111426950D01*
X115678138Y-111426950D01*
X115780856Y-111367645D01*
X115780856Y-111367644D01*
X115780861Y-111367642D01*
X115864737Y-111283766D01*
X115897735Y-111226613D01*
X115924045Y-111181043D01*
X115924045Y-111181041D01*
X115924047Y-111181039D01*
X115954748Y-111066462D01*
X115954748Y-110947844D01*
X115924047Y-110833267D01*
X115924045Y-110833264D01*
X115924045Y-110833262D01*
X115864740Y-110730544D01*
X115864738Y-110730542D01*
X115864737Y-110730540D01*
X115780861Y-110646664D01*
X115780858Y-110646662D01*
X115780856Y-110646660D01*
X115678137Y-110587355D01*
X115678138Y-110587355D01*
X115664599Y-110583727D01*
X115563557Y-110556653D01*
X115444939Y-110556653D01*
X115381554Y-110573637D01*
X115330357Y-110587355D01*
X115227639Y-110646660D01*
X115143755Y-110730544D01*
X115084450Y-110833262D01*
X115070440Y-110885550D01*
X115053748Y-110947844D01*
X114598841Y-110947844D01*
X115347124Y-110199562D01*
X115757192Y-109789496D01*
X115811708Y-109761719D01*
X115827195Y-109760500D01*
X121256686Y-109760500D01*
X121256686Y-109760499D01*
X121328025Y-109741384D01*
X121350140Y-109728616D01*
X121391987Y-109704456D01*
X121444212Y-109652231D01*
X121444213Y-109652228D01*
X122686540Y-108409903D01*
X129419500Y-108409903D01*
X129419500Y-108510096D01*
X129445429Y-108606863D01*
X129445430Y-108606864D01*
X129445431Y-108606867D01*
X129495524Y-108693632D01*
X129566368Y-108764476D01*
X129653133Y-108814569D01*
X129653135Y-108814569D01*
X129653136Y-108814570D01*
X129677204Y-108821019D01*
X129749903Y-108840499D01*
X129749905Y-108840500D01*
X129749906Y-108840500D01*
X129850095Y-108840500D01*
X129850095Y-108840499D01*
X129946867Y-108814569D01*
X130033632Y-108764476D01*
X130104476Y-108693632D01*
X130154569Y-108606867D01*
X130180500Y-108510094D01*
X130180500Y-108409906D01*
X130154569Y-108313133D01*
X130104476Y-108226368D01*
X130033632Y-108155524D01*
X129946867Y-108105431D01*
X129946864Y-108105430D01*
X129946863Y-108105429D01*
X129850096Y-108079500D01*
X129850094Y-108079500D01*
X129749906Y-108079500D01*
X129749903Y-108079500D01*
X129653136Y-108105429D01*
X129653135Y-108105430D01*
X129653133Y-108105430D01*
X129653133Y-108105431D01*
X129566368Y-108155524D01*
X129495524Y-108226368D01*
X129445603Y-108312836D01*
X129445430Y-108313135D01*
X129445429Y-108313136D01*
X129419500Y-108409903D01*
X122686540Y-108409903D01*
X122796947Y-108299496D01*
X122851464Y-108271719D01*
X122866951Y-108270500D01*
X126016930Y-108270500D01*
X126016930Y-108270499D01*
X126088269Y-108251384D01*
X126097243Y-108246203D01*
X126152231Y-108214456D01*
X126204456Y-108162231D01*
X126204457Y-108162228D01*
X127194789Y-107171896D01*
X127249305Y-107144120D01*
X127309737Y-107153691D01*
X127334792Y-107171894D01*
X127343387Y-107180489D01*
X127343389Y-107180490D01*
X127343391Y-107180492D01*
X127446110Y-107239797D01*
X127446111Y-107239797D01*
X127446114Y-107239799D01*
X127560691Y-107270500D01*
X127560693Y-107270500D01*
X127679307Y-107270500D01*
X127679309Y-107270500D01*
X127793886Y-107239799D01*
X127793888Y-107239797D01*
X127793890Y-107239797D01*
X127896608Y-107180492D01*
X127896608Y-107180491D01*
X127896613Y-107180489D01*
X127980489Y-107096613D01*
X127980492Y-107096608D01*
X128039797Y-106993890D01*
X128039797Y-106993888D01*
X128039799Y-106993886D01*
X128070500Y-106879309D01*
X128070500Y-106760691D01*
X128039799Y-106646114D01*
X128039797Y-106646111D01*
X128039797Y-106646109D01*
X127980492Y-106543391D01*
X127980490Y-106543389D01*
X127980489Y-106543387D01*
X127896613Y-106459511D01*
X127896610Y-106459509D01*
X127896608Y-106459507D01*
X127793889Y-106400202D01*
X127793890Y-106400202D01*
X127780351Y-106396574D01*
X127679309Y-106369500D01*
X127560691Y-106369500D01*
X127490567Y-106388289D01*
X127446109Y-106400202D01*
X127343391Y-106459507D01*
X127343385Y-106459511D01*
X127292393Y-106510504D01*
X127237876Y-106538281D01*
X127222390Y-106539500D01*
X127113068Y-106539500D01*
X127041734Y-106558614D01*
X127041733Y-106558614D01*
X126977769Y-106595544D01*
X126425026Y-107148288D01*
X125892810Y-107680504D01*
X125838293Y-107708281D01*
X125822806Y-107709500D01*
X122672824Y-107709500D01*
X122601490Y-107728614D01*
X122601489Y-107728614D01*
X122537522Y-107765546D01*
X121132566Y-109170504D01*
X121078049Y-109198281D01*
X121062562Y-109199500D01*
X115633072Y-109199500D01*
X115596465Y-109209309D01*
X115561730Y-109218616D01*
X115497766Y-109255546D01*
X115061440Y-109691871D01*
X115006924Y-109719648D01*
X114946492Y-109710077D01*
X114903227Y-109666812D01*
X114895810Y-109647488D01*
X114892762Y-109636112D01*
X114892761Y-109636111D01*
X114833456Y-109533392D01*
X114833454Y-109533390D01*
X114833453Y-109533388D01*
X114749577Y-109449512D01*
X114749574Y-109449510D01*
X114749572Y-109449508D01*
X114646853Y-109390203D01*
X114646854Y-109390203D01*
X114633315Y-109386575D01*
X114532273Y-109359501D01*
X114413655Y-109359501D01*
X114358649Y-109374240D01*
X114299076Y-109390202D01*
X114299075Y-109390203D01*
X114274718Y-109404265D01*
X114214870Y-109416984D01*
X114158975Y-109392096D01*
X114155217Y-109388531D01*
X113674000Y-108907314D01*
X113180232Y-108413545D01*
X113177939Y-108409044D01*
X113173687Y-108406321D01*
X113166943Y-108387464D01*
X113152455Y-108359028D01*
X113151406Y-108349337D01*
X113151236Y-108346438D01*
X113151236Y-108234926D01*
X113145477Y-108213435D01*
X113132120Y-108163585D01*
X113095192Y-108099623D01*
X112996409Y-108000840D01*
X112968634Y-107946326D01*
X112968929Y-107940691D01*
X119449500Y-107940691D01*
X119449500Y-108059309D01*
X119469409Y-108133609D01*
X119480202Y-108173890D01*
X119539507Y-108276608D01*
X119539509Y-108276610D01*
X119539511Y-108276613D01*
X119623387Y-108360489D01*
X119623389Y-108360490D01*
X119623391Y-108360492D01*
X119726110Y-108419797D01*
X119726111Y-108419797D01*
X119726114Y-108419799D01*
X119840691Y-108450500D01*
X119840693Y-108450500D01*
X119959307Y-108450500D01*
X119959309Y-108450500D01*
X120073886Y-108419799D01*
X120073888Y-108419797D01*
X120073890Y-108419797D01*
X120176608Y-108360492D01*
X120176608Y-108360491D01*
X120176613Y-108360489D01*
X120260489Y-108276613D01*
X120275056Y-108251383D01*
X120319797Y-108173890D01*
X120319797Y-108173888D01*
X120319799Y-108173886D01*
X120350500Y-108059309D01*
X120350500Y-107940691D01*
X120319799Y-107826114D01*
X120319797Y-107826111D01*
X120319797Y-107826109D01*
X120260492Y-107723391D01*
X120260490Y-107723389D01*
X120260489Y-107723387D01*
X120176613Y-107639511D01*
X120176610Y-107639509D01*
X120176608Y-107639507D01*
X120073889Y-107580202D01*
X120073890Y-107580202D01*
X120060351Y-107576574D01*
X119959309Y-107549500D01*
X119840691Y-107549500D01*
X119799669Y-107560492D01*
X119726109Y-107580202D01*
X119623391Y-107639507D01*
X119539507Y-107723391D01*
X119480202Y-107826109D01*
X119480201Y-107826114D01*
X119449500Y-107940691D01*
X112968929Y-107940691D01*
X112970789Y-107905213D01*
X112974881Y-107889946D01*
X112974881Y-107771328D01*
X112944180Y-107656751D01*
X112944178Y-107656748D01*
X112944178Y-107656746D01*
X112884873Y-107554028D01*
X112884871Y-107554026D01*
X112884870Y-107554024D01*
X112800994Y-107470148D01*
X112800991Y-107470146D01*
X112800989Y-107470144D01*
X112698270Y-107410839D01*
X112698271Y-107410839D01*
X112659655Y-107400492D01*
X112583690Y-107380137D01*
X112465072Y-107380137D01*
X112414951Y-107393567D01*
X112350490Y-107410839D01*
X112247772Y-107470144D01*
X112163888Y-107554028D01*
X112104583Y-107656746D01*
X112104582Y-107656751D01*
X112073881Y-107771328D01*
X112073881Y-107889946D01*
X112088988Y-107946326D01*
X112104583Y-108004527D01*
X112104584Y-108004528D01*
X112106625Y-108008064D01*
X112119343Y-108067912D01*
X112094454Y-108123807D01*
X112090890Y-108127562D01*
X112020247Y-108198205D01*
X112020243Y-108198210D01*
X111960938Y-108300928D01*
X111957668Y-108313133D01*
X111930236Y-108415510D01*
X111930236Y-108534128D01*
X111943381Y-108583186D01*
X111946674Y-108595475D01*
X111943471Y-108656577D01*
X111904966Y-108704127D01*
X111900548Y-108706834D01*
X111848055Y-108737141D01*
X111764173Y-108821023D01*
X111704868Y-108923741D01*
X111704867Y-108923746D01*
X111674166Y-109038323D01*
X100300500Y-109038323D01*
X100300500Y-107140691D01*
X116319500Y-107140691D01*
X116319500Y-107259309D01*
X116334855Y-107316613D01*
X116350202Y-107373890D01*
X116409507Y-107476608D01*
X116409509Y-107476610D01*
X116409511Y-107476613D01*
X116493387Y-107560489D01*
X116493389Y-107560490D01*
X116493391Y-107560492D01*
X116596110Y-107619797D01*
X116596111Y-107619797D01*
X116596114Y-107619799D01*
X116710691Y-107650500D01*
X116710693Y-107650500D01*
X116829307Y-107650500D01*
X116829309Y-107650500D01*
X116943886Y-107619799D01*
X116943888Y-107619797D01*
X116943890Y-107619797D01*
X117046608Y-107560492D01*
X117046608Y-107560491D01*
X117046613Y-107560489D01*
X117130489Y-107476613D01*
X117168465Y-107410838D01*
X117189797Y-107373890D01*
X117189797Y-107373888D01*
X117189799Y-107373886D01*
X117220500Y-107259309D01*
X117220500Y-107140691D01*
X117189799Y-107026114D01*
X117189797Y-107026111D01*
X117189797Y-107026109D01*
X117130492Y-106923391D01*
X117130490Y-106923389D01*
X117130489Y-106923387D01*
X117046613Y-106839511D01*
X117046610Y-106839509D01*
X117046609Y-106839508D01*
X117046607Y-106839507D01*
X116943889Y-106780202D01*
X116943890Y-106780202D01*
X116908394Y-106770691D01*
X125059500Y-106770691D01*
X125059500Y-106889309D01*
X125078325Y-106959564D01*
X125090202Y-107003890D01*
X125149507Y-107106608D01*
X125149509Y-107106610D01*
X125149511Y-107106613D01*
X125233387Y-107190489D01*
X125233389Y-107190490D01*
X125233391Y-107190492D01*
X125336110Y-107249797D01*
X125336111Y-107249797D01*
X125336114Y-107249799D01*
X125450691Y-107280500D01*
X125450693Y-107280500D01*
X125569307Y-107280500D01*
X125569309Y-107280500D01*
X125683886Y-107249799D01*
X125683888Y-107249797D01*
X125683890Y-107249797D01*
X125786608Y-107190492D01*
X125786608Y-107190491D01*
X125786613Y-107190489D01*
X125870489Y-107106613D01*
X125876263Y-107096613D01*
X125929797Y-107003890D01*
X125929797Y-107003888D01*
X125929799Y-107003886D01*
X125960500Y-106889309D01*
X125960500Y-106770691D01*
X125929799Y-106656114D01*
X125929797Y-106656111D01*
X125929797Y-106656109D01*
X125870492Y-106553391D01*
X125870490Y-106553389D01*
X125870489Y-106553387D01*
X125786613Y-106469511D01*
X125786610Y-106469509D01*
X125786608Y-106469507D01*
X125683889Y-106410202D01*
X125683890Y-106410202D01*
X125646569Y-106400202D01*
X125569309Y-106379500D01*
X125450691Y-106379500D01*
X125380567Y-106398289D01*
X125336109Y-106410202D01*
X125233391Y-106469507D01*
X125149507Y-106553391D01*
X125090202Y-106656109D01*
X125078256Y-106700692D01*
X125059500Y-106770691D01*
X116908394Y-106770691D01*
X116829309Y-106749500D01*
X116710691Y-106749500D01*
X116640567Y-106768289D01*
X116596109Y-106780202D01*
X116493391Y-106839507D01*
X116409507Y-106923391D01*
X116350202Y-107026109D01*
X116350201Y-107026114D01*
X116319500Y-107140691D01*
X100300500Y-107140691D01*
X100300500Y-105730691D01*
X111849500Y-105730691D01*
X111849500Y-105849309D01*
X111857027Y-105877400D01*
X111880202Y-105963890D01*
X111939507Y-106066608D01*
X111939509Y-106066610D01*
X111939511Y-106066613D01*
X112023387Y-106150489D01*
X112023389Y-106150490D01*
X112023391Y-106150492D01*
X112126110Y-106209797D01*
X112126111Y-106209797D01*
X112126114Y-106209799D01*
X112240691Y-106240500D01*
X112240693Y-106240500D01*
X112359307Y-106240500D01*
X112359309Y-106240500D01*
X112473886Y-106209799D01*
X112473888Y-106209797D01*
X112473890Y-106209797D01*
X112576608Y-106150492D01*
X112576608Y-106150491D01*
X112576613Y-106150489D01*
X112660489Y-106066613D01*
X112719799Y-105963886D01*
X112750500Y-105849309D01*
X112750500Y-105730691D01*
X112719799Y-105616114D01*
X112719797Y-105616111D01*
X112719797Y-105616109D01*
X112660492Y-105513391D01*
X112660490Y-105513389D01*
X112660489Y-105513387D01*
X112576613Y-105429511D01*
X112576610Y-105429509D01*
X112576608Y-105429507D01*
X112473889Y-105370202D01*
X112473890Y-105370202D01*
X112460351Y-105366574D01*
X112359309Y-105339500D01*
X112240691Y-105339500D01*
X112170567Y-105358289D01*
X112126109Y-105370202D01*
X112023391Y-105429507D01*
X111939507Y-105513391D01*
X111880202Y-105616109D01*
X111880201Y-105616114D01*
X111849500Y-105730691D01*
X100300500Y-105730691D01*
X100300500Y-104220691D01*
X117789500Y-104220691D01*
X117789500Y-104339309D01*
X117804124Y-104393886D01*
X117820202Y-104453890D01*
X117879507Y-104556608D01*
X117879509Y-104556610D01*
X117879511Y-104556613D01*
X117963387Y-104640489D01*
X117963389Y-104640490D01*
X117963391Y-104640492D01*
X118066110Y-104699797D01*
X118066111Y-104699797D01*
X118066114Y-104699799D01*
X118180691Y-104730500D01*
X118180693Y-104730500D01*
X118299307Y-104730500D01*
X118299309Y-104730500D01*
X118413886Y-104699799D01*
X118413888Y-104699797D01*
X118413890Y-104699797D01*
X118516608Y-104640492D01*
X118516608Y-104640491D01*
X118516613Y-104640489D01*
X118600489Y-104556613D01*
X118618436Y-104525529D01*
X118659797Y-104453890D01*
X118659797Y-104453888D01*
X118659799Y-104453886D01*
X118690500Y-104339309D01*
X118690500Y-104220691D01*
X118659799Y-104106114D01*
X118659797Y-104106111D01*
X118659797Y-104106109D01*
X118600492Y-104003391D01*
X118600490Y-104003389D01*
X118600489Y-104003387D01*
X118516613Y-103919511D01*
X118516610Y-103919509D01*
X118516608Y-103919507D01*
X118413889Y-103860202D01*
X118413890Y-103860202D01*
X118400351Y-103856574D01*
X118299309Y-103829500D01*
X118180691Y-103829500D01*
X118110567Y-103848289D01*
X118066109Y-103860202D01*
X117963391Y-103919507D01*
X117879507Y-104003391D01*
X117820202Y-104106109D01*
X117820201Y-104106114D01*
X117789500Y-104220691D01*
X100300500Y-104220691D01*
X100300500Y-104002773D01*
X100300656Y-103997222D01*
X100311720Y-103800202D01*
X100317162Y-103703296D01*
X100318405Y-103692270D01*
X100367253Y-103404771D01*
X100369714Y-103393985D01*
X100450451Y-103113742D01*
X100454111Y-103103283D01*
X100565711Y-102833858D01*
X100570525Y-102823863D01*
X100575101Y-102815584D01*
X100711583Y-102568637D01*
X100717475Y-102559258D01*
X100886246Y-102321399D01*
X100893131Y-102312765D01*
X101087476Y-102095294D01*
X101095294Y-102087476D01*
X101312765Y-101893131D01*
X101321399Y-101886246D01*
X101559258Y-101717475D01*
X101568637Y-101711583D01*
X101823869Y-101570521D01*
X101833858Y-101565711D01*
X102103283Y-101454111D01*
X102113742Y-101450451D01*
X102393985Y-101369714D01*
X102404771Y-101367253D01*
X102692277Y-101318404D01*
X102703296Y-101317162D01*
X102997222Y-101300655D01*
X103002773Y-101300500D01*
X103047595Y-101300500D01*
X146952405Y-101300500D01*
X146997227Y-101300500D01*
X147002777Y-101300655D01*
G37*
%TD.AperFunction*%
%TD*%
M02*
