%TF.GenerationSoftware,KiCad,Pcbnew,10.0.3*%
%TF.CreationDate,2026-06-25T13:13:26+04:00*%
%TF.ProjectId,layout,6c61796f-7574-42e6-9b69-6361645f7063,v0.0.0*%
%TF.SameCoordinates,Original*%
%TF.FileFunction,Soldermask,Top*%
%TF.FilePolarity,Negative*%
%FSLAX46Y46*%
G04 Gerber Fmt 4.6, Leading zero omitted, Abs format (unit mm)*
G04 Created by KiCad (PCBNEW 10.0.3) date 2026-06-25 13:13:26*
%MOMM*%
%LPD*%
G01*
G04 APERTURE LIST*
G04 Aperture macros list*
%AMRoundRect*
0 Rectangle with rounded corners*
0 $1 Rounding radius*
0 $2 $3 $4 $5 $6 $7 $8 $9 X,Y pos of 4 corners*
0 Add a 4 corners polygon primitive as box body*
4,1,4,$2,$3,$4,$5,$6,$7,$8,$9,$2,$3,0*
0 Add four circle primitives for the rounded corners*
1,1,$1+$1,$2,$3*
1,1,$1+$1,$4,$5*
1,1,$1+$1,$6,$7*
1,1,$1+$1,$8,$9*
0 Add four rect primitives between the rounded corners*
20,1,$1+$1,$2,$3,$4,$5,0*
20,1,$1+$1,$4,$5,$6,$7,0*
20,1,$1+$1,$6,$7,$8,$9,0*
20,1,$1+$1,$8,$9,$2,$3,0*%
G04 Aperture macros list end*
%ADD10RoundRect,0.135000X0.135000X0.185000X-0.135000X0.185000X-0.135000X-0.185000X0.135000X-0.185000X0*%
%ADD11RoundRect,0.135000X-0.185000X0.135000X-0.185000X-0.135000X0.185000X-0.135000X0.185000X0.135000X0*%
%ADD12RoundRect,0.050000X-0.050000X0.387500X-0.050000X-0.387500X0.050000X-0.387500X0.050000X0.387500X0*%
%ADD13RoundRect,0.050000X-0.387500X0.050000X-0.387500X-0.050000X0.387500X-0.050000X0.387500X0.050000X0*%
%ADD14R,3.200000X3.200000*%
%ADD15RoundRect,0.135000X-0.135000X-0.185000X0.135000X-0.185000X0.135000X0.185000X-0.135000X0.185000X0*%
%ADD16RoundRect,0.140000X-0.170000X0.140000X-0.170000X-0.140000X0.170000X-0.140000X0.170000X0.140000X0*%
%ADD17C,1.000000*%
%ADD18RoundRect,0.135000X0.185000X-0.135000X0.185000X0.135000X-0.185000X0.135000X-0.185000X-0.135000X0*%
%ADD19RoundRect,0.140000X-0.140000X-0.170000X0.140000X-0.170000X0.140000X0.170000X-0.140000X0.170000X0*%
%ADD20R,0.450000X0.300000*%
%ADD21R,0.500000X1.300000*%
%ADD22RoundRect,0.140000X0.170000X-0.140000X0.170000X0.140000X-0.170000X0.140000X-0.170000X-0.140000X0*%
%ADD23R,0.600000X0.300000*%
%ADD24RoundRect,0.140000X0.140000X0.170000X-0.140000X0.170000X-0.140000X-0.170000X0.140000X-0.170000X0*%
%ADD25R,1.230000X1.860000*%
%ADD26RoundRect,0.225000X-0.225000X-0.250000X0.225000X-0.250000X0.225000X0.250000X-0.225000X0.250000X0*%
%ADD27RoundRect,0.150000X0.512500X0.150000X-0.512500X0.150000X-0.512500X-0.150000X0.512500X-0.150000X0*%
%ADD28R,1.000000X1.000000*%
%ADD29RoundRect,0.150000X-0.150000X0.587500X-0.150000X-0.587500X0.150000X-0.587500X0.150000X0.587500X0*%
%ADD30R,2.600000X0.300000*%
%ADD31O,3.300000X1.500000*%
%ADD32O,2.300000X1.500000*%
%ADD33RoundRect,0.150000X-0.512500X-0.150000X0.512500X-0.150000X0.512500X0.150000X-0.512500X0.150000X0*%
%ADD34RoundRect,0.250000X-0.350000X0.450000X-0.350000X-0.450000X0.350000X-0.450000X0.350000X0.450000X0*%
%ADD35RoundRect,0.162500X0.650000X0.162500X-0.650000X0.162500X-0.650000X-0.162500X0.650000X-0.162500X0*%
%ADD36RoundRect,0.150000X0.425000X-0.150000X0.425000X0.150000X-0.425000X0.150000X-0.425000X-0.150000X0*%
%ADD37RoundRect,0.075000X0.500000X-0.075000X0.500000X0.075000X-0.500000X0.075000X-0.500000X-0.075000X0*%
%ADD38O,2.100000X1.000000*%
%ADD39O,1.800000X1.000000*%
%ADD40RoundRect,0.218750X-0.218750X-0.256250X0.218750X-0.256250X0.218750X0.256250X-0.218750X0.256250X0*%
%ADD41RoundRect,0.087500X0.537500X0.087500X-0.537500X0.087500X-0.537500X-0.087500X0.537500X-0.087500X0*%
G04 APERTURE END LIST*
D10*
%TO.C,R3*%
X116780000Y-114890000D03*
X115760000Y-114890000D03*
%TD*%
D11*
%TO.C,R5*%
X116300000Y-107990000D03*
X116300000Y-109010000D03*
%TD*%
D12*
%TO.C,U5*%
X129800000Y-109125000D03*
X129399999Y-109125000D03*
X129000000Y-109125000D03*
X128600000Y-109125000D03*
X128200000Y-109125000D03*
X127800001Y-109125000D03*
X127400000Y-109125000D03*
X127000000Y-109125000D03*
X126599999Y-109125000D03*
X126200000Y-109125000D03*
X125800000Y-109125000D03*
X125400000Y-109125000D03*
X125000001Y-109125000D03*
X124600000Y-109125000D03*
D13*
X123762500Y-109962500D03*
X123762500Y-110362501D03*
X123762500Y-110762500D03*
X123762500Y-111162500D03*
X123762500Y-111562500D03*
X123762500Y-111962499D03*
X123762500Y-112362500D03*
X123762500Y-112762500D03*
X123762500Y-113162501D03*
X123762500Y-113562500D03*
X123762500Y-113962500D03*
X123762500Y-114362500D03*
X123762500Y-114762499D03*
X123762500Y-115162500D03*
D12*
X124600000Y-116000000D03*
X125000001Y-116000000D03*
X125400000Y-116000000D03*
X125800000Y-116000000D03*
X126200000Y-116000000D03*
X126599999Y-116000000D03*
X127000000Y-116000000D03*
X127400000Y-116000000D03*
X127800001Y-116000000D03*
X128200000Y-116000000D03*
X128600000Y-116000000D03*
X129000000Y-116000000D03*
X129399999Y-116000000D03*
X129800000Y-116000000D03*
D13*
X130637500Y-115162500D03*
X130637500Y-114762499D03*
X130637500Y-114362500D03*
X130637500Y-113962500D03*
X130637500Y-113562500D03*
X130637500Y-113162501D03*
X130637500Y-112762500D03*
X130637500Y-112362500D03*
X130637500Y-111962499D03*
X130637500Y-111562500D03*
X130637500Y-111162500D03*
X130637500Y-110762500D03*
X130637500Y-110362501D03*
X130637500Y-109962500D03*
D14*
X127200000Y-112562500D03*
%TD*%
D15*
%TO.C,R15*%
X115750000Y-115880000D03*
X116770000Y-115880000D03*
%TD*%
%TO.C,R1*%
X126090000Y-106810000D03*
X127110000Y-106810000D03*
%TD*%
D16*
%TO.C,C13*%
X130420000Y-117410000D03*
X130420000Y-118370000D03*
%TD*%
D17*
%TO.C,TP18*%
X114170000Y-116430000D03*
%TD*%
D11*
%TO.C,R10*%
X115000000Y-110430000D03*
X115000000Y-111450000D03*
%TD*%
D18*
%TO.C,R16*%
X129000000Y-105390000D03*
X129000000Y-104370000D03*
%TD*%
D19*
%TO.C,C8*%
X132120000Y-112040000D03*
X133080000Y-112040000D03*
%TD*%
D20*
%TO.C,D2*%
X114410000Y-109050000D03*
X114410000Y-108550000D03*
X114410000Y-108050000D03*
X112910000Y-108050000D03*
X112910000Y-108550000D03*
X112910000Y-109050000D03*
D21*
X113660000Y-108550000D03*
%TD*%
D22*
%TO.C,C7*%
X129720000Y-107820000D03*
X129720000Y-106860000D03*
%TD*%
D15*
%TO.C,R6*%
X118210000Y-106710000D03*
X119230000Y-106710000D03*
%TD*%
D19*
%TO.C,C9*%
X132230000Y-114570000D03*
X133190000Y-114570000D03*
%TD*%
%TO.C,C11*%
X132540000Y-112960000D03*
X133500000Y-112960000D03*
%TD*%
D11*
%TO.C,R20*%
X122750000Y-116490001D03*
X122750000Y-117509999D03*
%TD*%
D15*
%TO.C,R14*%
X115750000Y-116870000D03*
X116770000Y-116870000D03*
%TD*%
D17*
%TO.C,TP20*%
X144950000Y-119000000D03*
%TD*%
D23*
%TO.C,D3*%
X112840000Y-105250000D03*
X112840000Y-104610000D03*
%TD*%
D18*
%TO.C,R23*%
X121500000Y-113709999D03*
X121500000Y-112690001D03*
%TD*%
D24*
%TO.C,C12*%
X126420000Y-117370000D03*
X125460000Y-117370000D03*
%TD*%
D18*
%TO.C,R9*%
X120400000Y-109010000D03*
X120400000Y-107990000D03*
%TD*%
D16*
%TO.C,C15*%
X121500000Y-114620000D03*
X121500000Y-115580000D03*
%TD*%
D25*
%TO.C,SW1*%
X126490000Y-104400000D03*
X122130000Y-104400000D03*
%TD*%
D22*
%TO.C,C2*%
X118300000Y-109010000D03*
X118300000Y-108050000D03*
%TD*%
D17*
%TO.C,TP21*%
X119830000Y-103650000D03*
%TD*%
D22*
%TO.C,C14*%
X122500000Y-111980000D03*
X122500000Y-111020000D03*
%TD*%
D19*
%TO.C,C5*%
X132190000Y-109190000D03*
X133150000Y-109190000D03*
%TD*%
%TO.C,C10*%
X132670000Y-115600000D03*
X133630000Y-115600000D03*
%TD*%
D18*
%TO.C,R7*%
X120340000Y-106710000D03*
X120340000Y-105690000D03*
%TD*%
D10*
%TO.C,R19*%
X138749999Y-109150000D03*
X137730001Y-109150000D03*
%TD*%
%TO.C,R4*%
X127696195Y-119000000D03*
X126676195Y-119000000D03*
%TD*%
D26*
%TO.C,C3*%
X136745000Y-114180000D03*
X138295000Y-114180000D03*
%TD*%
D16*
%TO.C,C6*%
X122525000Y-113345000D03*
X122525000Y-114305000D03*
%TD*%
D22*
%TO.C,C1*%
X114740000Y-114890000D03*
X114740000Y-113930000D03*
%TD*%
D27*
%TO.C,U2*%
X137907500Y-117630000D03*
X137907500Y-116680000D03*
X137907500Y-115730000D03*
X135632500Y-115730000D03*
X135632500Y-117630000D03*
%TD*%
D28*
%TO.C,TP23*%
X120460000Y-117780000D03*
%TD*%
D26*
%TO.C,C4*%
X135570000Y-119180000D03*
X137120000Y-119180000D03*
%TD*%
D29*
%TO.C,Q1*%
X116190000Y-104872500D03*
X114290000Y-104872500D03*
X115240000Y-106747500D03*
%TD*%
D30*
%TO.C,J1*%
X110500000Y-115500000D03*
X110500000Y-115000000D03*
X110500000Y-114500000D03*
X110500000Y-114000000D03*
X110500000Y-113500000D03*
X110500000Y-113000000D03*
X110500000Y-112500000D03*
X110500000Y-112000000D03*
X110500000Y-111500000D03*
X110500000Y-111000000D03*
X110500000Y-110500000D03*
X110500000Y-110000000D03*
X110500000Y-109500000D03*
X110500000Y-109000000D03*
X110500000Y-108500000D03*
X110500000Y-108000000D03*
X110500000Y-107500000D03*
X110500000Y-107000000D03*
X110500000Y-106500000D03*
D31*
X109740000Y-118250000D03*
X109740000Y-103750000D03*
D32*
X103780000Y-118250000D03*
X103780000Y-103750000D03*
%TD*%
D18*
%TO.C,R18*%
X140980000Y-108830000D03*
X140980000Y-107810000D03*
%TD*%
D33*
%TO.C,U3*%
X136962500Y-110560000D03*
X136962500Y-111510000D03*
X136962500Y-112460000D03*
X139237500Y-112460000D03*
X139237500Y-111510000D03*
X139237500Y-110560000D03*
%TD*%
D34*
%TO.C,Y1*%
X118300000Y-113150000D03*
X118300000Y-115350000D03*
X120000000Y-115350000D03*
X120000000Y-113150000D03*
%TD*%
D18*
%TO.C,R2*%
X128200000Y-107900000D03*
X128200000Y-106880000D03*
%TD*%
D35*
%TO.C,U4*%
X138767500Y-107535000D03*
X138767500Y-106265000D03*
X138767500Y-104995000D03*
X138767500Y-103725000D03*
X131592500Y-103725000D03*
X131592500Y-104995000D03*
X131592500Y-106265000D03*
X131592500Y-107535000D03*
%TD*%
D15*
%TO.C,R22*%
X134510001Y-112850000D03*
X135529999Y-112850000D03*
%TD*%
D11*
%TO.C,R12*%
X117330000Y-108000000D03*
X117330000Y-109020000D03*
%TD*%
D36*
%TO.C,J2*%
X142625000Y-114200000D03*
X142625000Y-113400000D03*
D37*
X142625000Y-112250000D03*
X142625000Y-111250000D03*
X142625000Y-110750000D03*
X142625000Y-109750000D03*
D36*
X142625000Y-108600000D03*
X142625000Y-107800000D03*
X142625000Y-107800000D03*
X142625000Y-108600000D03*
D37*
X142625000Y-109250000D03*
X142625000Y-110250000D03*
X142625000Y-111750000D03*
X142625000Y-112750000D03*
D36*
X142625000Y-113400000D03*
X142625000Y-114200000D03*
D38*
X143200000Y-115320000D03*
D39*
X147380000Y-115320000D03*
D38*
X143200000Y-106680000D03*
D39*
X147380000Y-106680000D03*
%TD*%
D17*
%TO.C,TP19*%
X113470000Y-112120000D03*
%TD*%
D28*
%TO.C,TP22*%
X118380000Y-117780000D03*
%TD*%
D18*
%TO.C,R13*%
X117680000Y-105310000D03*
X117680000Y-104290000D03*
%TD*%
D11*
%TO.C,R11*%
X116100000Y-109940000D03*
X116100000Y-110960000D03*
%TD*%
D18*
%TO.C,R8*%
X119400000Y-109010000D03*
X119400000Y-107990000D03*
%TD*%
D11*
%TO.C,R17*%
X140950000Y-112750000D03*
X140950000Y-113770000D03*
%TD*%
D17*
%TO.C,TP17*%
X140370000Y-115640000D03*
%TD*%
D40*
%TO.C,D1*%
X123712500Y-119000000D03*
X125287500Y-119000000D03*
%TD*%
D41*
%TO.C,U1*%
X120400000Y-111450000D03*
X120400000Y-110950000D03*
X120400000Y-110450000D03*
X120400000Y-109950000D03*
X117600000Y-109950000D03*
X117600000Y-110450000D03*
X117600000Y-110950000D03*
X117600000Y-111450000D03*
%TD*%
D15*
%TO.C,R21*%
X134520001Y-113800000D03*
X135539999Y-113800000D03*
%TD*%
D17*
%TO.C,TP16*%
X132890000Y-117290000D03*
%TD*%
M02*
