M48
; DRILL file KiCad 10.0.3 date 2026-06-25T13:13:26
; FORMAT={-:-/ absolute / inch / decimal}
; #@! TF.CreationDate,2026-06-25T13:13:26+04:00
; #@! TF.GenerationSoftware,Kicad,Pcbnew,10.0.3
; #@! TF.FileFunction,Plated,1,4,PTH
FMAT,2
INCH
; #@! TA.AperFunction,Plated,PTH,ViaDrill
T1C0.0118
; #@! TA.AperFunction,Plated,PTH,ComponentDrill
T2C0.0236
; #@! TA.AperFunction,Plated,PTH,ComponentDrill
T3C0.0354
%
G90
G05
T1
X3.9764Y-4.1526
X3.9764Y-4.5875
X4.1732Y-4.1732
X4.1732Y-4.3701
X4.1732Y-4.5669
X4.2256Y-4.0201
X4.2299Y-4.7256
X4.2835Y-4.2323
X4.4144Y-4.2952
X4.4213Y-4.165
X4.4244Y-4.2707
X4.4301Y-4.2453
X4.4425Y-4.0862
X4.4438Y-4.3231
X4.4884Y-4.3416
X4.4905Y-4.4856
X4.5068Y-4.3232
X4.5315Y-4.2851
X4.5394Y-4.1295
X4.5474Y-4.3704
X4.5972Y-4.2205
X4.5976Y-4.4935
X4.6492Y-4.2299
X4.6551Y-4.1055
X4.6768Y-4.5913
X4.6929Y-4.498
X4.6949Y-4.3681
X4.7043Y-4.7331
X4.7059Y-4.5906
X4.713Y-4.0185
X4.7205Y-4.252
X4.7402Y-4.5925
X4.7756Y-4.1638
X4.7772Y-4.2681
X4.7898Y-4.3591
X4.8091Y-4.6496
X4.8114Y-4.5311
X4.8431Y-4.4545
X4.8623Y-4.6151
X4.9098Y-4.3917
X4.9104Y-4.4301
X4.9108Y-4.6069
X4.9114Y-4.4587
X4.9114Y-4.6345
X4.912Y-4.4837
X4.9323Y-4.5362
X4.9413Y-4.2059
X4.96Y-4.536
X4.9646Y-4.3917
X4.9646Y-4.4744
X4.9671Y-4.6042
X4.9685Y-4.3252
X4.9768Y-4.6508
X4.9958Y-4.5329
X5.0079Y-4.4316
X5.0244Y-4.2055
X5.0509Y-4.5298
X5.0512Y-4.3917
X5.0512Y-4.4744
X5.063Y-4.3228
X5.0689Y-4.7165
X5.0752Y-4.6212
X5.0787Y-4.5276
X5.1012Y-4.637
X5.1032Y-4.3863
X5.1102Y-4.2701
X5.1113Y-4.3498
X5.1144Y-4.4116
X5.1154Y-4.6035
X5.1387Y-4.7323
X5.1406Y-4.011
X5.1582Y-4.1031
X5.1793Y-4.4206
X5.1807Y-4.1531
X5.1837Y-4.5081
X5.1909Y-4.6681
X5.1966Y-4.4461
X5.1976Y-4.2031
X5.2012Y-4.5406
X5.2035Y-4.2673
X5.2204Y-4.3666
X5.2559Y-4.3666
X5.2685Y-4.4094
X5.2783Y-4.663
X5.285Y-4.5886
X5.2898Y-4.2398
X5.2914Y-4.3666
X5.3126Y-4.5209
X5.3388Y-4.6571
X5.3831Y-4.5351
X5.3949Y-4.2972
X5.4177Y-4.0961
X5.4244Y-4.3976
X5.45Y-4.3811
X5.4633Y-4.1642
X5.4634Y-4.1142
X5.4634Y-4.2142
X5.4705Y-4.674
X5.4913Y-4.5528
X5.4953Y-4.4787
X5.5102Y-4.6051
X5.5335Y-4.3681
X5.5343Y-4.411
X5.5417Y-4.0173
X5.5736Y-4.522
X5.5791Y-4.2181
X5.5843Y-4.2756
X5.5858Y-4.4654
X5.5961Y-4.7256
X5.6654Y-4.3406
X5.6654Y-4.3652
X5.6693Y-4.6063
X5.8138Y-4.7004
X5.8217Y-4.0272
X5.8661Y-4.1526
X5.8661Y-4.5875
T2
G00X5.6161Y-4.2
M15
G01X5.6594Y-4.2
M16
G05
G00X5.6161Y-4.5402
M15
G01X5.6594Y-4.5402
M16
G05
G00X5.7866Y-4.2
M15
G01X5.8181Y-4.2
M16
G05
G00X5.7866Y-4.5402
M15
G01X5.8181Y-4.5402
M16
G05
T3
G00X4.1016Y-4.0846
M15
G01X4.0701Y-4.0846
M16
G05
G00X4.1016Y-4.6555
M15
G01X4.0701Y-4.6555
M16
G05
G00X4.3559Y-4.0846
M15
G01X4.285Y-4.0846
M16
G05
G00X4.3559Y-4.6555
M15
G01X4.285Y-4.6555
M16
G05
M30
