%TF.GenerationSoftware,KiCad,Pcbnew,10.0.3*%
%TF.CreationDate,2026-06-25T13:13:26+04:00*%
%TF.ProjectId,layout,6c61796f-7574-42e6-9b69-6361645f7063,v0.0.0*%
%TF.SameCoordinates,Original*%
%TF.FileFunction,Legend,Bot*%
%TF.FilePolarity,Positive*%
%FSLAX46Y46*%
G04 Gerber Fmt 4.6, Leading zero omitted, Abs format (unit mm)*
G04 Created by KiCad (PCBNEW 10.0.3) date 2026-06-25 13:13:26*
%MOMM*%
%LPD*%
G01*
G04 APERTURE LIST*
G04 Aperture macros list*
%AMRoundRect*
0 Rectangle with rounded corners*
0 $1 Rounding radius*
0 $2 $3 $4 $5 $6 $7 $8 $9 X,Y pos of 4 corners*
0 Add a 4 corners polygon primitive as box body*
4,1,4,$2,$3,$4,$5,$6,$7,$8,$9,$2,$3,0*
0 Add four circle primitives for the rounded corners*
1,1,$1+$1,$2,$3*
1,1,$1+$1,$4,$5*
1,1,$1+$1,$6,$7*
1,1,$1+$1,$8,$9*
0 Add four rect primitives between the rounded corners*
20,1,$1+$1,$2,$3,$4,$5,0*
20,1,$1+$1,$4,$5,$6,$7,0*
20,1,$1+$1,$6,$7,$8,$9,0*
20,1,$1+$1,$8,$9,$2,$3,0*%
G04 Aperture macros list end*
%ADD10C,0.100000*%
%ADD11O,3.300000X1.500000*%
%ADD12O,2.300000X1.500000*%
%ADD13C,0.650000*%
%ADD14O,2.100000X1.000000*%
%ADD15O,1.800000X1.000000*%
%ADD16RoundRect,0.250000X0.250000X0.250000X-0.250000X0.250000X-0.250000X-0.250000X0.250000X-0.250000X0*%
G04 APERTURE END LIST*
D10*
X120320877Y-104231371D02*
X120320877Y-103631371D01*
X120320877Y-104202800D02*
X120368496Y-104231371D01*
X120368496Y-104231371D02*
X120463734Y-104231371D01*
X120463734Y-104231371D02*
X120511353Y-104202800D01*
X120511353Y-104202800D02*
X120535163Y-104174228D01*
X120535163Y-104174228D02*
X120558972Y-104117085D01*
X120558972Y-104117085D02*
X120558972Y-103945657D01*
X120558972Y-103945657D02*
X120535163Y-103888514D01*
X120535163Y-103888514D02*
X120511353Y-103859942D01*
X120511353Y-103859942D02*
X120463734Y-103831371D01*
X120463734Y-103831371D02*
X120368496Y-103831371D01*
X120368496Y-103831371D02*
X120320877Y-103859942D01*
X119820877Y-104231371D02*
X120106591Y-104231371D01*
X119963734Y-104231371D02*
X119963734Y-103631371D01*
X119963734Y-103631371D02*
X120011353Y-103717085D01*
X120011353Y-103717085D02*
X120058972Y-103774228D01*
X120058972Y-103774228D02*
X120106591Y-103802800D01*
X119511354Y-103631371D02*
X119463735Y-103631371D01*
X119463735Y-103631371D02*
X119416116Y-103659942D01*
X119416116Y-103659942D02*
X119392306Y-103688514D01*
X119392306Y-103688514D02*
X119368497Y-103745657D01*
X119368497Y-103745657D02*
X119344687Y-103859942D01*
X119344687Y-103859942D02*
X119344687Y-104002800D01*
X119344687Y-104002800D02*
X119368497Y-104117085D01*
X119368497Y-104117085D02*
X119392306Y-104174228D01*
X119392306Y-104174228D02*
X119416116Y-104202800D01*
X119416116Y-104202800D02*
X119463735Y-104231371D01*
X119463735Y-104231371D02*
X119511354Y-104231371D01*
X119511354Y-104231371D02*
X119558973Y-104202800D01*
X119558973Y-104202800D02*
X119582782Y-104174228D01*
X119582782Y-104174228D02*
X119606592Y-104117085D01*
X119606592Y-104117085D02*
X119630401Y-104002800D01*
X119630401Y-104002800D02*
X119630401Y-103859942D01*
X119630401Y-103859942D02*
X119606592Y-103745657D01*
X119606592Y-103745657D02*
X119582782Y-103688514D01*
X119582782Y-103688514D02*
X119558973Y-103659942D01*
X119558973Y-103659942D02*
X119511354Y-103631371D01*
X118916116Y-104231371D02*
X118916116Y-103631371D01*
X118916116Y-104202800D02*
X118963735Y-104231371D01*
X118963735Y-104231371D02*
X119058973Y-104231371D01*
X119058973Y-104231371D02*
X119106592Y-104202800D01*
X119106592Y-104202800D02*
X119130402Y-104174228D01*
X119130402Y-104174228D02*
X119154211Y-104117085D01*
X119154211Y-104117085D02*
X119154211Y-103945657D01*
X119154211Y-103945657D02*
X119130402Y-103888514D01*
X119130402Y-103888514D02*
X119106592Y-103859942D01*
X119106592Y-103859942D02*
X119058973Y-103831371D01*
X119058973Y-103831371D02*
X118963735Y-103831371D01*
X118963735Y-103831371D02*
X118916116Y-103859942D01*
X118725640Y-103631371D02*
X118416116Y-103631371D01*
X118416116Y-103631371D02*
X118582783Y-103859942D01*
X118582783Y-103859942D02*
X118511354Y-103859942D01*
X118511354Y-103859942D02*
X118463735Y-103888514D01*
X118463735Y-103888514D02*
X118439926Y-103917085D01*
X118439926Y-103917085D02*
X118416116Y-103974228D01*
X118416116Y-103974228D02*
X118416116Y-104117085D01*
X118416116Y-104117085D02*
X118439926Y-104174228D01*
X118439926Y-104174228D02*
X118463735Y-104202800D01*
X118463735Y-104202800D02*
X118511354Y-104231371D01*
X118511354Y-104231371D02*
X118654211Y-104231371D01*
X118654211Y-104231371D02*
X118701830Y-104202800D01*
X118701830Y-104202800D02*
X118725640Y-104174228D01*
X117987545Y-104202800D02*
X118035164Y-104231371D01*
X118035164Y-104231371D02*
X118130402Y-104231371D01*
X118130402Y-104231371D02*
X118178021Y-104202800D01*
X118178021Y-104202800D02*
X118201831Y-104174228D01*
X118201831Y-104174228D02*
X118225640Y-104117085D01*
X118225640Y-104117085D02*
X118225640Y-103945657D01*
X118225640Y-103945657D02*
X118201831Y-103888514D01*
X118201831Y-103888514D02*
X118178021Y-103859942D01*
X118178021Y-103859942D02*
X118130402Y-103831371D01*
X118130402Y-103831371D02*
X118035164Y-103831371D01*
X118035164Y-103831371D02*
X117987545Y-103859942D01*
X117678022Y-103631371D02*
X117630403Y-103631371D01*
X117630403Y-103631371D02*
X117582784Y-103659942D01*
X117582784Y-103659942D02*
X117558974Y-103688514D01*
X117558974Y-103688514D02*
X117535165Y-103745657D01*
X117535165Y-103745657D02*
X117511355Y-103859942D01*
X117511355Y-103859942D02*
X117511355Y-104002800D01*
X117511355Y-104002800D02*
X117535165Y-104117085D01*
X117535165Y-104117085D02*
X117558974Y-104174228D01*
X117558974Y-104174228D02*
X117582784Y-104202800D01*
X117582784Y-104202800D02*
X117630403Y-104231371D01*
X117630403Y-104231371D02*
X117678022Y-104231371D01*
X117678022Y-104231371D02*
X117725641Y-104202800D01*
X117725641Y-104202800D02*
X117749450Y-104174228D01*
X117749450Y-104174228D02*
X117773260Y-104117085D01*
X117773260Y-104117085D02*
X117797069Y-104002800D01*
X117797069Y-104002800D02*
X117797069Y-103859942D01*
X117797069Y-103859942D02*
X117773260Y-103745657D01*
X117773260Y-103745657D02*
X117749450Y-103688514D01*
X117749450Y-103688514D02*
X117725641Y-103659942D01*
X117725641Y-103659942D02*
X117678022Y-103631371D01*
X131980877Y-107553561D02*
X131980877Y-108201180D01*
X131980877Y-108201180D02*
X132018972Y-108277371D01*
X132018972Y-108277371D02*
X132057068Y-108315466D01*
X132057068Y-108315466D02*
X132133258Y-108353561D01*
X132133258Y-108353561D02*
X132247544Y-108353561D01*
X132247544Y-108353561D02*
X132323734Y-108315466D01*
X131980877Y-108048800D02*
X132057068Y-108086895D01*
X132057068Y-108086895D02*
X132209449Y-108086895D01*
X132209449Y-108086895D02*
X132285639Y-108048800D01*
X132285639Y-108048800D02*
X132323734Y-108010704D01*
X132323734Y-108010704D02*
X132361830Y-107934514D01*
X132361830Y-107934514D02*
X132361830Y-107705942D01*
X132361830Y-107705942D02*
X132323734Y-107629752D01*
X132323734Y-107629752D02*
X132285639Y-107591657D01*
X132285639Y-107591657D02*
X132209449Y-107553561D01*
X132209449Y-107553561D02*
X132057068Y-107553561D01*
X132057068Y-107553561D02*
X131980877Y-107591657D01*
X131599924Y-108086895D02*
X131599924Y-107286895D01*
X131257067Y-108086895D02*
X131257067Y-107667847D01*
X131257067Y-107667847D02*
X131295162Y-107591657D01*
X131295162Y-107591657D02*
X131371353Y-107553561D01*
X131371353Y-107553561D02*
X131485639Y-107553561D01*
X131485639Y-107553561D02*
X131561829Y-107591657D01*
X131561829Y-107591657D02*
X131599924Y-107629752D01*
X130876114Y-108010704D02*
X130838019Y-108048800D01*
X130838019Y-108048800D02*
X130876114Y-108086895D01*
X130876114Y-108086895D02*
X130914210Y-108048800D01*
X130914210Y-108048800D02*
X130876114Y-108010704D01*
X130876114Y-108010704D02*
X130876114Y-108086895D01*
X130876114Y-107591657D02*
X130838019Y-107629752D01*
X130838019Y-107629752D02*
X130876114Y-107667847D01*
X130876114Y-107667847D02*
X130914210Y-107629752D01*
X130914210Y-107629752D02*
X130876114Y-107591657D01*
X130876114Y-107591657D02*
X130876114Y-107667847D01*
X130495162Y-107553561D02*
X130495162Y-108086895D01*
X130495162Y-107629752D02*
X130457067Y-107591657D01*
X130457067Y-107591657D02*
X130380877Y-107553561D01*
X130380877Y-107553561D02*
X130266591Y-107553561D01*
X130266591Y-107553561D02*
X130190400Y-107591657D01*
X130190400Y-107591657D02*
X130152305Y-107667847D01*
X130152305Y-107667847D02*
X130152305Y-108086895D01*
X129428495Y-108086895D02*
X129428495Y-107667847D01*
X129428495Y-107667847D02*
X129466590Y-107591657D01*
X129466590Y-107591657D02*
X129542781Y-107553561D01*
X129542781Y-107553561D02*
X129695162Y-107553561D01*
X129695162Y-107553561D02*
X129771352Y-107591657D01*
X129428495Y-108048800D02*
X129504686Y-108086895D01*
X129504686Y-108086895D02*
X129695162Y-108086895D01*
X129695162Y-108086895D02*
X129771352Y-108048800D01*
X129771352Y-108048800D02*
X129809448Y-107972609D01*
X129809448Y-107972609D02*
X129809448Y-107896419D01*
X129809448Y-107896419D02*
X129771352Y-107820228D01*
X129771352Y-107820228D02*
X129695162Y-107782133D01*
X129695162Y-107782133D02*
X129504686Y-107782133D01*
X129504686Y-107782133D02*
X129428495Y-107744038D01*
X128933257Y-108086895D02*
X129009447Y-108048800D01*
X129009447Y-108048800D02*
X129047542Y-108010704D01*
X129047542Y-108010704D02*
X129085638Y-107934514D01*
X129085638Y-107934514D02*
X129085638Y-107705942D01*
X129085638Y-107705942D02*
X129047542Y-107629752D01*
X129047542Y-107629752D02*
X129009447Y-107591657D01*
X129009447Y-107591657D02*
X128933257Y-107553561D01*
X128933257Y-107553561D02*
X128818971Y-107553561D01*
X128818971Y-107553561D02*
X128742780Y-107591657D01*
X128742780Y-107591657D02*
X128704685Y-107629752D01*
X128704685Y-107629752D02*
X128666590Y-107705942D01*
X128666590Y-107705942D02*
X128666590Y-107934514D01*
X128666590Y-107934514D02*
X128704685Y-108010704D01*
X128704685Y-108010704D02*
X128742780Y-108048800D01*
X128742780Y-108048800D02*
X128818971Y-108086895D01*
X128818971Y-108086895D02*
X128933257Y-108086895D01*
X128323732Y-108086895D02*
X128323732Y-107553561D01*
X128323732Y-107705942D02*
X128285637Y-107629752D01*
X128285637Y-107629752D02*
X128247542Y-107591657D01*
X128247542Y-107591657D02*
X128171351Y-107553561D01*
X128171351Y-107553561D02*
X128095161Y-107553561D01*
X127485637Y-107553561D02*
X127485637Y-108086895D01*
X127828494Y-107553561D02*
X127828494Y-107972609D01*
X127828494Y-107972609D02*
X127790399Y-108048800D01*
X127790399Y-108048800D02*
X127714209Y-108086895D01*
X127714209Y-108086895D02*
X127599923Y-108086895D01*
X127599923Y-108086895D02*
X127523732Y-108048800D01*
X127523732Y-108048800D02*
X127485637Y-108010704D01*
X127104684Y-107553561D02*
X127104684Y-108086895D01*
X127104684Y-107629752D02*
X127066589Y-107591657D01*
X127066589Y-107591657D02*
X126990399Y-107553561D01*
X126990399Y-107553561D02*
X126876113Y-107553561D01*
X126876113Y-107553561D02*
X126799922Y-107591657D01*
X126799922Y-107591657D02*
X126761827Y-107667847D01*
X126761827Y-107667847D02*
X126761827Y-108086895D01*
X126038017Y-108086895D02*
X126038017Y-107667847D01*
X126038017Y-107667847D02*
X126076112Y-107591657D01*
X126076112Y-107591657D02*
X126152303Y-107553561D01*
X126152303Y-107553561D02*
X126304684Y-107553561D01*
X126304684Y-107553561D02*
X126380874Y-107591657D01*
X126038017Y-108048800D02*
X126114208Y-108086895D01*
X126114208Y-108086895D02*
X126304684Y-108086895D01*
X126304684Y-108086895D02*
X126380874Y-108048800D01*
X126380874Y-108048800D02*
X126418970Y-107972609D01*
X126418970Y-107972609D02*
X126418970Y-107896419D01*
X126418970Y-107896419D02*
X126380874Y-107820228D01*
X126380874Y-107820228D02*
X126304684Y-107782133D01*
X126304684Y-107782133D02*
X126114208Y-107782133D01*
X126114208Y-107782133D02*
X126038017Y-107744038D01*
X125542779Y-108086895D02*
X125618969Y-108048800D01*
X125618969Y-108048800D02*
X125657064Y-108010704D01*
X125657064Y-108010704D02*
X125695160Y-107934514D01*
X125695160Y-107934514D02*
X125695160Y-107705942D01*
X125695160Y-107705942D02*
X125657064Y-107629752D01*
X125657064Y-107629752D02*
X125618969Y-107591657D01*
X125618969Y-107591657D02*
X125542779Y-107553561D01*
X125542779Y-107553561D02*
X125428493Y-107553561D01*
X125428493Y-107553561D02*
X125352302Y-107591657D01*
X125352302Y-107591657D02*
X125314207Y-107629752D01*
X125314207Y-107629752D02*
X125276112Y-107705942D01*
X125276112Y-107705942D02*
X125276112Y-107934514D01*
X125276112Y-107934514D02*
X125314207Y-108010704D01*
X125314207Y-108010704D02*
X125352302Y-108048800D01*
X125352302Y-108048800D02*
X125428493Y-108086895D01*
X125428493Y-108086895D02*
X125542779Y-108086895D01*
X124933254Y-108086895D02*
X124933254Y-107553561D01*
X124933254Y-107705942D02*
X124895159Y-107629752D01*
X124895159Y-107629752D02*
X124857064Y-107591657D01*
X124857064Y-107591657D02*
X124780873Y-107553561D01*
X124780873Y-107553561D02*
X124704683Y-107553561D01*
X124095159Y-107553561D02*
X124095159Y-108086895D01*
X124438016Y-107553561D02*
X124438016Y-107972609D01*
X124438016Y-107972609D02*
X124399921Y-108048800D01*
X124399921Y-108048800D02*
X124323731Y-108086895D01*
X124323731Y-108086895D02*
X124209445Y-108086895D01*
X124209445Y-108086895D02*
X124133254Y-108048800D01*
X124133254Y-108048800D02*
X124095159Y-108010704D01*
X123142778Y-107248800D02*
X123828492Y-108277371D01*
X122876111Y-107553561D02*
X122876111Y-108353561D01*
X122876111Y-107591657D02*
X122799921Y-107553561D01*
X122799921Y-107553561D02*
X122647540Y-107553561D01*
X122647540Y-107553561D02*
X122571349Y-107591657D01*
X122571349Y-107591657D02*
X122533254Y-107629752D01*
X122533254Y-107629752D02*
X122495159Y-107705942D01*
X122495159Y-107705942D02*
X122495159Y-107934514D01*
X122495159Y-107934514D02*
X122533254Y-108010704D01*
X122533254Y-108010704D02*
X122571349Y-108048800D01*
X122571349Y-108048800D02*
X122647540Y-108086895D01*
X122647540Y-108086895D02*
X122799921Y-108086895D01*
X122799921Y-108086895D02*
X122876111Y-108048800D01*
X122152301Y-108086895D02*
X122152301Y-107553561D01*
X122152301Y-107286895D02*
X122190397Y-107324990D01*
X122190397Y-107324990D02*
X122152301Y-107363085D01*
X122152301Y-107363085D02*
X122114206Y-107324990D01*
X122114206Y-107324990D02*
X122152301Y-107286895D01*
X122152301Y-107286895D02*
X122152301Y-107363085D01*
X121428492Y-108048800D02*
X121504683Y-108086895D01*
X121504683Y-108086895D02*
X121657064Y-108086895D01*
X121657064Y-108086895D02*
X121733254Y-108048800D01*
X121733254Y-108048800D02*
X121771349Y-108010704D01*
X121771349Y-108010704D02*
X121809445Y-107934514D01*
X121809445Y-107934514D02*
X121809445Y-107705942D01*
X121809445Y-107705942D02*
X121771349Y-107629752D01*
X121771349Y-107629752D02*
X121733254Y-107591657D01*
X121733254Y-107591657D02*
X121657064Y-107553561D01*
X121657064Y-107553561D02*
X121504683Y-107553561D01*
X121504683Y-107553561D02*
X121428492Y-107591657D01*
X120971350Y-108086895D02*
X121047540Y-108048800D01*
X121047540Y-108048800D02*
X121085635Y-108010704D01*
X121085635Y-108010704D02*
X121123731Y-107934514D01*
X121123731Y-107934514D02*
X121123731Y-107705942D01*
X121123731Y-107705942D02*
X121085635Y-107629752D01*
X121085635Y-107629752D02*
X121047540Y-107591657D01*
X121047540Y-107591657D02*
X120971350Y-107553561D01*
X120971350Y-107553561D02*
X120857064Y-107553561D01*
X120857064Y-107553561D02*
X120780873Y-107591657D01*
X120780873Y-107591657D02*
X120742778Y-107629752D01*
X120742778Y-107629752D02*
X120704683Y-107705942D01*
X120704683Y-107705942D02*
X120704683Y-107934514D01*
X120704683Y-107934514D02*
X120742778Y-108010704D01*
X120742778Y-108010704D02*
X120780873Y-108048800D01*
X120780873Y-108048800D02*
X120857064Y-108086895D01*
X120857064Y-108086895D02*
X120971350Y-108086895D01*
X120018968Y-108086895D02*
X120018968Y-107667847D01*
X120018968Y-107667847D02*
X120057063Y-107591657D01*
X120057063Y-107591657D02*
X120133254Y-107553561D01*
X120133254Y-107553561D02*
X120285635Y-107553561D01*
X120285635Y-107553561D02*
X120361825Y-107591657D01*
X120018968Y-108048800D02*
X120095159Y-108086895D01*
X120095159Y-108086895D02*
X120285635Y-108086895D01*
X120285635Y-108086895D02*
X120361825Y-108048800D01*
X120361825Y-108048800D02*
X120399921Y-107972609D01*
X120399921Y-107972609D02*
X120399921Y-107896419D01*
X120399921Y-107896419D02*
X120361825Y-107820228D01*
X120361825Y-107820228D02*
X120285635Y-107782133D01*
X120285635Y-107782133D02*
X120095159Y-107782133D01*
X120095159Y-107782133D02*
X120018968Y-107744038D01*
X119638015Y-108086895D02*
X119638015Y-107553561D01*
X119638015Y-107705942D02*
X119599920Y-107629752D01*
X119599920Y-107629752D02*
X119561825Y-107591657D01*
X119561825Y-107591657D02*
X119485634Y-107553561D01*
X119485634Y-107553561D02*
X119409444Y-107553561D01*
X118799920Y-108048800D02*
X118876111Y-108086895D01*
X118876111Y-108086895D02*
X119028492Y-108086895D01*
X119028492Y-108086895D02*
X119104682Y-108048800D01*
X119104682Y-108048800D02*
X119142777Y-108010704D01*
X119142777Y-108010704D02*
X119180873Y-107934514D01*
X119180873Y-107934514D02*
X119180873Y-107705942D01*
X119180873Y-107705942D02*
X119142777Y-107629752D01*
X119142777Y-107629752D02*
X119104682Y-107591657D01*
X119104682Y-107591657D02*
X119028492Y-107553561D01*
X119028492Y-107553561D02*
X118876111Y-107553561D01*
X118876111Y-107553561D02*
X118799920Y-107591657D01*
X132358020Y-104696704D02*
X132358020Y-106696704D01*
X132358020Y-104791942D02*
X132167544Y-104696704D01*
X132167544Y-104696704D02*
X131786591Y-104696704D01*
X131786591Y-104696704D02*
X131596115Y-104791942D01*
X131596115Y-104791942D02*
X131500877Y-104887180D01*
X131500877Y-104887180D02*
X131405639Y-105077657D01*
X131405639Y-105077657D02*
X131405639Y-105649085D01*
X131405639Y-105649085D02*
X131500877Y-105839561D01*
X131500877Y-105839561D02*
X131596115Y-105934800D01*
X131596115Y-105934800D02*
X131786591Y-106030038D01*
X131786591Y-106030038D02*
X132167544Y-106030038D01*
X132167544Y-106030038D02*
X132358020Y-105934800D01*
X130548496Y-106030038D02*
X130548496Y-104696704D01*
X130548496Y-104030038D02*
X130643734Y-104125276D01*
X130643734Y-104125276D02*
X130548496Y-104220514D01*
X130548496Y-104220514D02*
X130453258Y-104125276D01*
X130453258Y-104125276D02*
X130548496Y-104030038D01*
X130548496Y-104030038D02*
X130548496Y-104220514D01*
X128738972Y-105934800D02*
X128929448Y-106030038D01*
X128929448Y-106030038D02*
X129310401Y-106030038D01*
X129310401Y-106030038D02*
X129500877Y-105934800D01*
X129500877Y-105934800D02*
X129596115Y-105839561D01*
X129596115Y-105839561D02*
X129691353Y-105649085D01*
X129691353Y-105649085D02*
X129691353Y-105077657D01*
X129691353Y-105077657D02*
X129596115Y-104887180D01*
X129596115Y-104887180D02*
X129500877Y-104791942D01*
X129500877Y-104791942D02*
X129310401Y-104696704D01*
X129310401Y-104696704D02*
X128929448Y-104696704D01*
X128929448Y-104696704D02*
X128738972Y-104791942D01*
X127596115Y-106030038D02*
X127786591Y-105934800D01*
X127786591Y-105934800D02*
X127881829Y-105839561D01*
X127881829Y-105839561D02*
X127977067Y-105649085D01*
X127977067Y-105649085D02*
X127977067Y-105077657D01*
X127977067Y-105077657D02*
X127881829Y-104887180D01*
X127881829Y-104887180D02*
X127786591Y-104791942D01*
X127786591Y-104791942D02*
X127596115Y-104696704D01*
X127596115Y-104696704D02*
X127310400Y-104696704D01*
X127310400Y-104696704D02*
X127119924Y-104791942D01*
X127119924Y-104791942D02*
X127024686Y-104887180D01*
X127024686Y-104887180D02*
X126929448Y-105077657D01*
X126929448Y-105077657D02*
X126929448Y-105649085D01*
X126929448Y-105649085D02*
X127024686Y-105839561D01*
X127024686Y-105839561D02*
X127119924Y-105934800D01*
X127119924Y-105934800D02*
X127310400Y-106030038D01*
X127310400Y-106030038D02*
X127596115Y-106030038D01*
X126167543Y-105458609D02*
X125215162Y-105458609D01*
X126358019Y-106030038D02*
X125691353Y-104030038D01*
X125691353Y-104030038D02*
X125024686Y-106030038D01*
X123215162Y-106030038D02*
X123881829Y-105077657D01*
X124358019Y-106030038D02*
X124358019Y-104030038D01*
X124358019Y-104030038D02*
X123596114Y-104030038D01*
X123596114Y-104030038D02*
X123405638Y-104125276D01*
X123405638Y-104125276D02*
X123310400Y-104220514D01*
X123310400Y-104220514D02*
X123215162Y-104410990D01*
X123215162Y-104410990D02*
X123215162Y-104696704D01*
X123215162Y-104696704D02*
X123310400Y-104887180D01*
X123310400Y-104887180D02*
X123405638Y-104982419D01*
X123405638Y-104982419D02*
X123596114Y-105077657D01*
X123596114Y-105077657D02*
X124358019Y-105077657D01*
X121215162Y-105839561D02*
X121310400Y-105934800D01*
X121310400Y-105934800D02*
X121596114Y-106030038D01*
X121596114Y-106030038D02*
X121786590Y-106030038D01*
X121786590Y-106030038D02*
X122072305Y-105934800D01*
X122072305Y-105934800D02*
X122262781Y-105744323D01*
X122262781Y-105744323D02*
X122358019Y-105553847D01*
X122358019Y-105553847D02*
X122453257Y-105172895D01*
X122453257Y-105172895D02*
X122453257Y-104887180D01*
X122453257Y-104887180D02*
X122358019Y-104506228D01*
X122358019Y-104506228D02*
X122262781Y-104315752D01*
X122262781Y-104315752D02*
X122072305Y-104125276D01*
X122072305Y-104125276D02*
X121786590Y-104030038D01*
X121786590Y-104030038D02*
X121596114Y-104030038D01*
X121596114Y-104030038D02*
X121310400Y-104125276D01*
X121310400Y-104125276D02*
X121215162Y-104220514D01*
X131105237Y-116700942D02*
X131152856Y-116672371D01*
X131152856Y-116672371D02*
X131224285Y-116672371D01*
X131224285Y-116672371D02*
X131295713Y-116700942D01*
X131295713Y-116700942D02*
X131343332Y-116758085D01*
X131343332Y-116758085D02*
X131367142Y-116815228D01*
X131367142Y-116815228D02*
X131390951Y-116929514D01*
X131390951Y-116929514D02*
X131390951Y-117015228D01*
X131390951Y-117015228D02*
X131367142Y-117129514D01*
X131367142Y-117129514D02*
X131343332Y-117186657D01*
X131343332Y-117186657D02*
X131295713Y-117243800D01*
X131295713Y-117243800D02*
X131224285Y-117272371D01*
X131224285Y-117272371D02*
X131176666Y-117272371D01*
X131176666Y-117272371D02*
X131105237Y-117243800D01*
X131105237Y-117243800D02*
X131081428Y-117215228D01*
X131081428Y-117215228D02*
X131081428Y-117015228D01*
X131081428Y-117015228D02*
X131176666Y-117015228D01*
X130867142Y-117272371D02*
X130867142Y-116672371D01*
X130867142Y-116672371D02*
X130676666Y-116672371D01*
X130676666Y-116672371D02*
X130629047Y-116700942D01*
X130629047Y-116700942D02*
X130605237Y-116729514D01*
X130605237Y-116729514D02*
X130581428Y-116786657D01*
X130581428Y-116786657D02*
X130581428Y-116872371D01*
X130581428Y-116872371D02*
X130605237Y-116929514D01*
X130605237Y-116929514D02*
X130629047Y-116958085D01*
X130629047Y-116958085D02*
X130676666Y-116986657D01*
X130676666Y-116986657D02*
X130867142Y-116986657D01*
X130390951Y-116729514D02*
X130367142Y-116700942D01*
X130367142Y-116700942D02*
X130319523Y-116672371D01*
X130319523Y-116672371D02*
X130200475Y-116672371D01*
X130200475Y-116672371D02*
X130152856Y-116700942D01*
X130152856Y-116700942D02*
X130129047Y-116729514D01*
X130129047Y-116729514D02*
X130105237Y-116786657D01*
X130105237Y-116786657D02*
X130105237Y-116843800D01*
X130105237Y-116843800D02*
X130129047Y-116929514D01*
X130129047Y-116929514D02*
X130414761Y-117272371D01*
X130414761Y-117272371D02*
X130105237Y-117272371D01*
X129867142Y-117272371D02*
X129771904Y-117272371D01*
X129771904Y-117272371D02*
X129724285Y-117243800D01*
X129724285Y-117243800D02*
X129700476Y-117215228D01*
X129700476Y-117215228D02*
X129652857Y-117129514D01*
X129652857Y-117129514D02*
X129629047Y-117015228D01*
X129629047Y-117015228D02*
X129629047Y-116786657D01*
X129629047Y-116786657D02*
X129652857Y-116729514D01*
X129652857Y-116729514D02*
X129676666Y-116700942D01*
X129676666Y-116700942D02*
X129724285Y-116672371D01*
X129724285Y-116672371D02*
X129819523Y-116672371D01*
X129819523Y-116672371D02*
X129867142Y-116700942D01*
X129867142Y-116700942D02*
X129890952Y-116729514D01*
X129890952Y-116729514D02*
X129914761Y-116786657D01*
X129914761Y-116786657D02*
X129914761Y-116929514D01*
X129914761Y-116929514D02*
X129890952Y-116986657D01*
X129890952Y-116986657D02*
X129867142Y-117015228D01*
X129867142Y-117015228D02*
X129819523Y-117043800D01*
X129819523Y-117043800D02*
X129724285Y-117043800D01*
X129724285Y-117043800D02*
X129676666Y-117015228D01*
X129676666Y-117015228D02*
X129652857Y-116986657D01*
X129652857Y-116986657D02*
X129629047Y-116929514D01*
X124855237Y-114700942D02*
X124902856Y-114672371D01*
X124902856Y-114672371D02*
X124974285Y-114672371D01*
X124974285Y-114672371D02*
X125045713Y-114700942D01*
X125045713Y-114700942D02*
X125093332Y-114758085D01*
X125093332Y-114758085D02*
X125117142Y-114815228D01*
X125117142Y-114815228D02*
X125140951Y-114929514D01*
X125140951Y-114929514D02*
X125140951Y-115015228D01*
X125140951Y-115015228D02*
X125117142Y-115129514D01*
X125117142Y-115129514D02*
X125093332Y-115186657D01*
X125093332Y-115186657D02*
X125045713Y-115243800D01*
X125045713Y-115243800D02*
X124974285Y-115272371D01*
X124974285Y-115272371D02*
X124926666Y-115272371D01*
X124926666Y-115272371D02*
X124855237Y-115243800D01*
X124855237Y-115243800D02*
X124831428Y-115215228D01*
X124831428Y-115215228D02*
X124831428Y-115015228D01*
X124831428Y-115015228D02*
X124926666Y-115015228D01*
X124617142Y-115272371D02*
X124617142Y-114672371D01*
X124617142Y-114672371D02*
X124426666Y-114672371D01*
X124426666Y-114672371D02*
X124379047Y-114700942D01*
X124379047Y-114700942D02*
X124355237Y-114729514D01*
X124355237Y-114729514D02*
X124331428Y-114786657D01*
X124331428Y-114786657D02*
X124331428Y-114872371D01*
X124331428Y-114872371D02*
X124355237Y-114929514D01*
X124355237Y-114929514D02*
X124379047Y-114958085D01*
X124379047Y-114958085D02*
X124426666Y-114986657D01*
X124426666Y-114986657D02*
X124617142Y-114986657D01*
X124140951Y-114729514D02*
X124117142Y-114700942D01*
X124117142Y-114700942D02*
X124069523Y-114672371D01*
X124069523Y-114672371D02*
X123950475Y-114672371D01*
X123950475Y-114672371D02*
X123902856Y-114700942D01*
X123902856Y-114700942D02*
X123879047Y-114729514D01*
X123879047Y-114729514D02*
X123855237Y-114786657D01*
X123855237Y-114786657D02*
X123855237Y-114843800D01*
X123855237Y-114843800D02*
X123879047Y-114929514D01*
X123879047Y-114929514D02*
X124164761Y-115272371D01*
X124164761Y-115272371D02*
X123855237Y-115272371D01*
X123545714Y-114672371D02*
X123498095Y-114672371D01*
X123498095Y-114672371D02*
X123450476Y-114700942D01*
X123450476Y-114700942D02*
X123426666Y-114729514D01*
X123426666Y-114729514D02*
X123402857Y-114786657D01*
X123402857Y-114786657D02*
X123379047Y-114900942D01*
X123379047Y-114900942D02*
X123379047Y-115043800D01*
X123379047Y-115043800D02*
X123402857Y-115158085D01*
X123402857Y-115158085D02*
X123426666Y-115215228D01*
X123426666Y-115215228D02*
X123450476Y-115243800D01*
X123450476Y-115243800D02*
X123498095Y-115272371D01*
X123498095Y-115272371D02*
X123545714Y-115272371D01*
X123545714Y-115272371D02*
X123593333Y-115243800D01*
X123593333Y-115243800D02*
X123617142Y-115215228D01*
X123617142Y-115215228D02*
X123640952Y-115158085D01*
X123640952Y-115158085D02*
X123664761Y-115043800D01*
X123664761Y-115043800D02*
X123664761Y-114900942D01*
X123664761Y-114900942D02*
X123640952Y-114786657D01*
X123640952Y-114786657D02*
X123617142Y-114729514D01*
X123617142Y-114729514D02*
X123593333Y-114700942D01*
X123593333Y-114700942D02*
X123545714Y-114672371D01*
X128855237Y-116700942D02*
X128902856Y-116672371D01*
X128902856Y-116672371D02*
X128974285Y-116672371D01*
X128974285Y-116672371D02*
X129045713Y-116700942D01*
X129045713Y-116700942D02*
X129093332Y-116758085D01*
X129093332Y-116758085D02*
X129117142Y-116815228D01*
X129117142Y-116815228D02*
X129140951Y-116929514D01*
X129140951Y-116929514D02*
X129140951Y-117015228D01*
X129140951Y-117015228D02*
X129117142Y-117129514D01*
X129117142Y-117129514D02*
X129093332Y-117186657D01*
X129093332Y-117186657D02*
X129045713Y-117243800D01*
X129045713Y-117243800D02*
X128974285Y-117272371D01*
X128974285Y-117272371D02*
X128926666Y-117272371D01*
X128926666Y-117272371D02*
X128855237Y-117243800D01*
X128855237Y-117243800D02*
X128831428Y-117215228D01*
X128831428Y-117215228D02*
X128831428Y-117015228D01*
X128831428Y-117015228D02*
X128926666Y-117015228D01*
X128617142Y-117272371D02*
X128617142Y-116672371D01*
X128617142Y-116672371D02*
X128426666Y-116672371D01*
X128426666Y-116672371D02*
X128379047Y-116700942D01*
X128379047Y-116700942D02*
X128355237Y-116729514D01*
X128355237Y-116729514D02*
X128331428Y-116786657D01*
X128331428Y-116786657D02*
X128331428Y-116872371D01*
X128331428Y-116872371D02*
X128355237Y-116929514D01*
X128355237Y-116929514D02*
X128379047Y-116958085D01*
X128379047Y-116958085D02*
X128426666Y-116986657D01*
X128426666Y-116986657D02*
X128617142Y-116986657D01*
X128140951Y-116729514D02*
X128117142Y-116700942D01*
X128117142Y-116700942D02*
X128069523Y-116672371D01*
X128069523Y-116672371D02*
X127950475Y-116672371D01*
X127950475Y-116672371D02*
X127902856Y-116700942D01*
X127902856Y-116700942D02*
X127879047Y-116729514D01*
X127879047Y-116729514D02*
X127855237Y-116786657D01*
X127855237Y-116786657D02*
X127855237Y-116843800D01*
X127855237Y-116843800D02*
X127879047Y-116929514D01*
X127879047Y-116929514D02*
X128164761Y-117272371D01*
X128164761Y-117272371D02*
X127855237Y-117272371D01*
X127569523Y-116929514D02*
X127617142Y-116900942D01*
X127617142Y-116900942D02*
X127640952Y-116872371D01*
X127640952Y-116872371D02*
X127664761Y-116815228D01*
X127664761Y-116815228D02*
X127664761Y-116786657D01*
X127664761Y-116786657D02*
X127640952Y-116729514D01*
X127640952Y-116729514D02*
X127617142Y-116700942D01*
X127617142Y-116700942D02*
X127569523Y-116672371D01*
X127569523Y-116672371D02*
X127474285Y-116672371D01*
X127474285Y-116672371D02*
X127426666Y-116700942D01*
X127426666Y-116700942D02*
X127402857Y-116729514D01*
X127402857Y-116729514D02*
X127379047Y-116786657D01*
X127379047Y-116786657D02*
X127379047Y-116815228D01*
X127379047Y-116815228D02*
X127402857Y-116872371D01*
X127402857Y-116872371D02*
X127426666Y-116900942D01*
X127426666Y-116900942D02*
X127474285Y-116929514D01*
X127474285Y-116929514D02*
X127569523Y-116929514D01*
X127569523Y-116929514D02*
X127617142Y-116958085D01*
X127617142Y-116958085D02*
X127640952Y-116986657D01*
X127640952Y-116986657D02*
X127664761Y-117043800D01*
X127664761Y-117043800D02*
X127664761Y-117158085D01*
X127664761Y-117158085D02*
X127640952Y-117215228D01*
X127640952Y-117215228D02*
X127617142Y-117243800D01*
X127617142Y-117243800D02*
X127569523Y-117272371D01*
X127569523Y-117272371D02*
X127474285Y-117272371D01*
X127474285Y-117272371D02*
X127426666Y-117243800D01*
X127426666Y-117243800D02*
X127402857Y-117215228D01*
X127402857Y-117215228D02*
X127379047Y-117158085D01*
X127379047Y-117158085D02*
X127379047Y-117043800D01*
X127379047Y-117043800D02*
X127402857Y-116986657D01*
X127402857Y-116986657D02*
X127426666Y-116958085D01*
X127426666Y-116958085D02*
X127474285Y-116929514D01*
X127845237Y-112200942D02*
X127892856Y-112172371D01*
X127892856Y-112172371D02*
X127964285Y-112172371D01*
X127964285Y-112172371D02*
X128035713Y-112200942D01*
X128035713Y-112200942D02*
X128083332Y-112258085D01*
X128083332Y-112258085D02*
X128107142Y-112315228D01*
X128107142Y-112315228D02*
X128130951Y-112429514D01*
X128130951Y-112429514D02*
X128130951Y-112515228D01*
X128130951Y-112515228D02*
X128107142Y-112629514D01*
X128107142Y-112629514D02*
X128083332Y-112686657D01*
X128083332Y-112686657D02*
X128035713Y-112743800D01*
X128035713Y-112743800D02*
X127964285Y-112772371D01*
X127964285Y-112772371D02*
X127916666Y-112772371D01*
X127916666Y-112772371D02*
X127845237Y-112743800D01*
X127845237Y-112743800D02*
X127821428Y-112715228D01*
X127821428Y-112715228D02*
X127821428Y-112515228D01*
X127821428Y-112515228D02*
X127916666Y-112515228D01*
X127607142Y-112772371D02*
X127607142Y-112172371D01*
X127607142Y-112172371D02*
X127416666Y-112172371D01*
X127416666Y-112172371D02*
X127369047Y-112200942D01*
X127369047Y-112200942D02*
X127345237Y-112229514D01*
X127345237Y-112229514D02*
X127321428Y-112286657D01*
X127321428Y-112286657D02*
X127321428Y-112372371D01*
X127321428Y-112372371D02*
X127345237Y-112429514D01*
X127345237Y-112429514D02*
X127369047Y-112458085D01*
X127369047Y-112458085D02*
X127416666Y-112486657D01*
X127416666Y-112486657D02*
X127607142Y-112486657D01*
X127130951Y-112229514D02*
X127107142Y-112200942D01*
X127107142Y-112200942D02*
X127059523Y-112172371D01*
X127059523Y-112172371D02*
X126940475Y-112172371D01*
X126940475Y-112172371D02*
X126892856Y-112200942D01*
X126892856Y-112200942D02*
X126869047Y-112229514D01*
X126869047Y-112229514D02*
X126845237Y-112286657D01*
X126845237Y-112286657D02*
X126845237Y-112343800D01*
X126845237Y-112343800D02*
X126869047Y-112429514D01*
X126869047Y-112429514D02*
X127154761Y-112772371D01*
X127154761Y-112772371D02*
X126845237Y-112772371D01*
X126654761Y-112229514D02*
X126630952Y-112200942D01*
X126630952Y-112200942D02*
X126583333Y-112172371D01*
X126583333Y-112172371D02*
X126464285Y-112172371D01*
X126464285Y-112172371D02*
X126416666Y-112200942D01*
X126416666Y-112200942D02*
X126392857Y-112229514D01*
X126392857Y-112229514D02*
X126369047Y-112286657D01*
X126369047Y-112286657D02*
X126369047Y-112343800D01*
X126369047Y-112343800D02*
X126392857Y-112429514D01*
X126392857Y-112429514D02*
X126678571Y-112772371D01*
X126678571Y-112772371D02*
X126369047Y-112772371D01*
X134629046Y-115392371D02*
X134319522Y-115392371D01*
X134319522Y-115392371D02*
X134486189Y-115620942D01*
X134486189Y-115620942D02*
X134414760Y-115620942D01*
X134414760Y-115620942D02*
X134367141Y-115649514D01*
X134367141Y-115649514D02*
X134343332Y-115678085D01*
X134343332Y-115678085D02*
X134319522Y-115735228D01*
X134319522Y-115735228D02*
X134319522Y-115878085D01*
X134319522Y-115878085D02*
X134343332Y-115935228D01*
X134343332Y-115935228D02*
X134367141Y-115963800D01*
X134367141Y-115963800D02*
X134414760Y-115992371D01*
X134414760Y-115992371D02*
X134557617Y-115992371D01*
X134557617Y-115992371D02*
X134605236Y-115963800D01*
X134605236Y-115963800D02*
X134629046Y-115935228D01*
X134176665Y-115392371D02*
X134009999Y-115992371D01*
X134009999Y-115992371D02*
X133843332Y-115392371D01*
X133724285Y-115392371D02*
X133414761Y-115392371D01*
X133414761Y-115392371D02*
X133581428Y-115620942D01*
X133581428Y-115620942D02*
X133509999Y-115620942D01*
X133509999Y-115620942D02*
X133462380Y-115649514D01*
X133462380Y-115649514D02*
X133438571Y-115678085D01*
X133438571Y-115678085D02*
X133414761Y-115735228D01*
X133414761Y-115735228D02*
X133414761Y-115878085D01*
X133414761Y-115878085D02*
X133438571Y-115935228D01*
X133438571Y-115935228D02*
X133462380Y-115963800D01*
X133462380Y-115963800D02*
X133509999Y-115992371D01*
X133509999Y-115992371D02*
X133652856Y-115992371D01*
X133652856Y-115992371D02*
X133700475Y-115963800D01*
X133700475Y-115963800D02*
X133724285Y-115935228D01*
X140825237Y-118582371D02*
X141063332Y-118582371D01*
X141063332Y-118582371D02*
X141087141Y-118868085D01*
X141087141Y-118868085D02*
X141063332Y-118839514D01*
X141063332Y-118839514D02*
X141015713Y-118810942D01*
X141015713Y-118810942D02*
X140896665Y-118810942D01*
X140896665Y-118810942D02*
X140849046Y-118839514D01*
X140849046Y-118839514D02*
X140825237Y-118868085D01*
X140825237Y-118868085D02*
X140801427Y-118925228D01*
X140801427Y-118925228D02*
X140801427Y-119068085D01*
X140801427Y-119068085D02*
X140825237Y-119125228D01*
X140825237Y-119125228D02*
X140849046Y-119153800D01*
X140849046Y-119153800D02*
X140896665Y-119182371D01*
X140896665Y-119182371D02*
X141015713Y-119182371D01*
X141015713Y-119182371D02*
X141063332Y-119153800D01*
X141063332Y-119153800D02*
X141087141Y-119125228D01*
X140658570Y-118582371D02*
X140491904Y-119182371D01*
X140491904Y-119182371D02*
X140325237Y-118582371D01*
X126095237Y-116700942D02*
X126142856Y-116672371D01*
X126142856Y-116672371D02*
X126214285Y-116672371D01*
X126214285Y-116672371D02*
X126285713Y-116700942D01*
X126285713Y-116700942D02*
X126333332Y-116758085D01*
X126333332Y-116758085D02*
X126357142Y-116815228D01*
X126357142Y-116815228D02*
X126380951Y-116929514D01*
X126380951Y-116929514D02*
X126380951Y-117015228D01*
X126380951Y-117015228D02*
X126357142Y-117129514D01*
X126357142Y-117129514D02*
X126333332Y-117186657D01*
X126333332Y-117186657D02*
X126285713Y-117243800D01*
X126285713Y-117243800D02*
X126214285Y-117272371D01*
X126214285Y-117272371D02*
X126166666Y-117272371D01*
X126166666Y-117272371D02*
X126095237Y-117243800D01*
X126095237Y-117243800D02*
X126071428Y-117215228D01*
X126071428Y-117215228D02*
X126071428Y-117015228D01*
X126071428Y-117015228D02*
X126166666Y-117015228D01*
X125857142Y-117272371D02*
X125857142Y-116672371D01*
X125857142Y-116672371D02*
X125666666Y-116672371D01*
X125666666Y-116672371D02*
X125619047Y-116700942D01*
X125619047Y-116700942D02*
X125595237Y-116729514D01*
X125595237Y-116729514D02*
X125571428Y-116786657D01*
X125571428Y-116786657D02*
X125571428Y-116872371D01*
X125571428Y-116872371D02*
X125595237Y-116929514D01*
X125595237Y-116929514D02*
X125619047Y-116958085D01*
X125619047Y-116958085D02*
X125666666Y-116986657D01*
X125666666Y-116986657D02*
X125857142Y-116986657D01*
X125095237Y-117272371D02*
X125380951Y-117272371D01*
X125238094Y-117272371D02*
X125238094Y-116672371D01*
X125238094Y-116672371D02*
X125285713Y-116758085D01*
X125285713Y-116758085D02*
X125333332Y-116815228D01*
X125333332Y-116815228D02*
X125380951Y-116843800D01*
X124809523Y-116929514D02*
X124857142Y-116900942D01*
X124857142Y-116900942D02*
X124880952Y-116872371D01*
X124880952Y-116872371D02*
X124904761Y-116815228D01*
X124904761Y-116815228D02*
X124904761Y-116786657D01*
X124904761Y-116786657D02*
X124880952Y-116729514D01*
X124880952Y-116729514D02*
X124857142Y-116700942D01*
X124857142Y-116700942D02*
X124809523Y-116672371D01*
X124809523Y-116672371D02*
X124714285Y-116672371D01*
X124714285Y-116672371D02*
X124666666Y-116700942D01*
X124666666Y-116700942D02*
X124642857Y-116729514D01*
X124642857Y-116729514D02*
X124619047Y-116786657D01*
X124619047Y-116786657D02*
X124619047Y-116815228D01*
X124619047Y-116815228D02*
X124642857Y-116872371D01*
X124642857Y-116872371D02*
X124666666Y-116900942D01*
X124666666Y-116900942D02*
X124714285Y-116929514D01*
X124714285Y-116929514D02*
X124809523Y-116929514D01*
X124809523Y-116929514D02*
X124857142Y-116958085D01*
X124857142Y-116958085D02*
X124880952Y-116986657D01*
X124880952Y-116986657D02*
X124904761Y-117043800D01*
X124904761Y-117043800D02*
X124904761Y-117158085D01*
X124904761Y-117158085D02*
X124880952Y-117215228D01*
X124880952Y-117215228D02*
X124857142Y-117243800D01*
X124857142Y-117243800D02*
X124809523Y-117272371D01*
X124809523Y-117272371D02*
X124714285Y-117272371D01*
X124714285Y-117272371D02*
X124666666Y-117243800D01*
X124666666Y-117243800D02*
X124642857Y-117215228D01*
X124642857Y-117215228D02*
X124619047Y-117158085D01*
X124619047Y-117158085D02*
X124619047Y-117043800D01*
X124619047Y-117043800D02*
X124642857Y-116986657D01*
X124642857Y-116986657D02*
X124666666Y-116958085D01*
X124666666Y-116958085D02*
X124714285Y-116929514D01*
X123845237Y-116700942D02*
X123892856Y-116672371D01*
X123892856Y-116672371D02*
X123964285Y-116672371D01*
X123964285Y-116672371D02*
X124035713Y-116700942D01*
X124035713Y-116700942D02*
X124083332Y-116758085D01*
X124083332Y-116758085D02*
X124107142Y-116815228D01*
X124107142Y-116815228D02*
X124130951Y-116929514D01*
X124130951Y-116929514D02*
X124130951Y-117015228D01*
X124130951Y-117015228D02*
X124107142Y-117129514D01*
X124107142Y-117129514D02*
X124083332Y-117186657D01*
X124083332Y-117186657D02*
X124035713Y-117243800D01*
X124035713Y-117243800D02*
X123964285Y-117272371D01*
X123964285Y-117272371D02*
X123916666Y-117272371D01*
X123916666Y-117272371D02*
X123845237Y-117243800D01*
X123845237Y-117243800D02*
X123821428Y-117215228D01*
X123821428Y-117215228D02*
X123821428Y-117015228D01*
X123821428Y-117015228D02*
X123916666Y-117015228D01*
X123607142Y-117272371D02*
X123607142Y-116672371D01*
X123607142Y-116672371D02*
X123416666Y-116672371D01*
X123416666Y-116672371D02*
X123369047Y-116700942D01*
X123369047Y-116700942D02*
X123345237Y-116729514D01*
X123345237Y-116729514D02*
X123321428Y-116786657D01*
X123321428Y-116786657D02*
X123321428Y-116872371D01*
X123321428Y-116872371D02*
X123345237Y-116929514D01*
X123345237Y-116929514D02*
X123369047Y-116958085D01*
X123369047Y-116958085D02*
X123416666Y-116986657D01*
X123416666Y-116986657D02*
X123607142Y-116986657D01*
X122845237Y-117272371D02*
X123130951Y-117272371D01*
X122988094Y-117272371D02*
X122988094Y-116672371D01*
X122988094Y-116672371D02*
X123035713Y-116758085D01*
X123035713Y-116758085D02*
X123083332Y-116815228D01*
X123083332Y-116815228D02*
X123130951Y-116843800D01*
X122678571Y-116672371D02*
X122345238Y-116672371D01*
X122345238Y-116672371D02*
X122559523Y-117272371D01*
X136410952Y-115440942D02*
X136458571Y-115412371D01*
X136458571Y-115412371D02*
X136530000Y-115412371D01*
X136530000Y-115412371D02*
X136601428Y-115440942D01*
X136601428Y-115440942D02*
X136649047Y-115498085D01*
X136649047Y-115498085D02*
X136672857Y-115555228D01*
X136672857Y-115555228D02*
X136696666Y-115669514D01*
X136696666Y-115669514D02*
X136696666Y-115755228D01*
X136696666Y-115755228D02*
X136672857Y-115869514D01*
X136672857Y-115869514D02*
X136649047Y-115926657D01*
X136649047Y-115926657D02*
X136601428Y-115983800D01*
X136601428Y-115983800D02*
X136530000Y-116012371D01*
X136530000Y-116012371D02*
X136482381Y-116012371D01*
X136482381Y-116012371D02*
X136410952Y-115983800D01*
X136410952Y-115983800D02*
X136387143Y-115955228D01*
X136387143Y-115955228D02*
X136387143Y-115755228D01*
X136387143Y-115755228D02*
X136482381Y-115755228D01*
X136172857Y-116012371D02*
X136172857Y-115412371D01*
X136172857Y-115412371D02*
X135887143Y-116012371D01*
X135887143Y-116012371D02*
X135887143Y-115412371D01*
X135649047Y-116012371D02*
X135649047Y-115412371D01*
X135649047Y-115412371D02*
X135529999Y-115412371D01*
X135529999Y-115412371D02*
X135458571Y-115440942D01*
X135458571Y-115440942D02*
X135410952Y-115498085D01*
X135410952Y-115498085D02*
X135387142Y-115555228D01*
X135387142Y-115555228D02*
X135363333Y-115669514D01*
X135363333Y-115669514D02*
X135363333Y-115755228D01*
X135363333Y-115755228D02*
X135387142Y-115869514D01*
X135387142Y-115869514D02*
X135410952Y-115926657D01*
X135410952Y-115926657D02*
X135458571Y-115983800D01*
X135458571Y-115983800D02*
X135529999Y-116012371D01*
X135529999Y-116012371D02*
X135649047Y-116012371D01*
X122605237Y-114700942D02*
X122652856Y-114672371D01*
X122652856Y-114672371D02*
X122724285Y-114672371D01*
X122724285Y-114672371D02*
X122795713Y-114700942D01*
X122795713Y-114700942D02*
X122843332Y-114758085D01*
X122843332Y-114758085D02*
X122867142Y-114815228D01*
X122867142Y-114815228D02*
X122890951Y-114929514D01*
X122890951Y-114929514D02*
X122890951Y-115015228D01*
X122890951Y-115015228D02*
X122867142Y-115129514D01*
X122867142Y-115129514D02*
X122843332Y-115186657D01*
X122843332Y-115186657D02*
X122795713Y-115243800D01*
X122795713Y-115243800D02*
X122724285Y-115272371D01*
X122724285Y-115272371D02*
X122676666Y-115272371D01*
X122676666Y-115272371D02*
X122605237Y-115243800D01*
X122605237Y-115243800D02*
X122581428Y-115215228D01*
X122581428Y-115215228D02*
X122581428Y-115015228D01*
X122581428Y-115015228D02*
X122676666Y-115015228D01*
X122367142Y-115272371D02*
X122367142Y-114672371D01*
X122367142Y-114672371D02*
X122176666Y-114672371D01*
X122176666Y-114672371D02*
X122129047Y-114700942D01*
X122129047Y-114700942D02*
X122105237Y-114729514D01*
X122105237Y-114729514D02*
X122081428Y-114786657D01*
X122081428Y-114786657D02*
X122081428Y-114872371D01*
X122081428Y-114872371D02*
X122105237Y-114929514D01*
X122105237Y-114929514D02*
X122129047Y-114958085D01*
X122129047Y-114958085D02*
X122176666Y-114986657D01*
X122176666Y-114986657D02*
X122367142Y-114986657D01*
X121605237Y-115272371D02*
X121890951Y-115272371D01*
X121748094Y-115272371D02*
X121748094Y-114672371D01*
X121748094Y-114672371D02*
X121795713Y-114758085D01*
X121795713Y-114758085D02*
X121843332Y-114815228D01*
X121843332Y-114815228D02*
X121890951Y-114843800D01*
X121367142Y-115272371D02*
X121271904Y-115272371D01*
X121271904Y-115272371D02*
X121224285Y-115243800D01*
X121224285Y-115243800D02*
X121200476Y-115215228D01*
X121200476Y-115215228D02*
X121152857Y-115129514D01*
X121152857Y-115129514D02*
X121129047Y-115015228D01*
X121129047Y-115015228D02*
X121129047Y-114786657D01*
X121129047Y-114786657D02*
X121152857Y-114729514D01*
X121152857Y-114729514D02*
X121176666Y-114700942D01*
X121176666Y-114700942D02*
X121224285Y-114672371D01*
X121224285Y-114672371D02*
X121319523Y-114672371D01*
X121319523Y-114672371D02*
X121367142Y-114700942D01*
X121367142Y-114700942D02*
X121390952Y-114729514D01*
X121390952Y-114729514D02*
X121414761Y-114786657D01*
X121414761Y-114786657D02*
X121414761Y-114929514D01*
X121414761Y-114929514D02*
X121390952Y-114986657D01*
X121390952Y-114986657D02*
X121367142Y-115015228D01*
X121367142Y-115015228D02*
X121319523Y-115043800D01*
X121319523Y-115043800D02*
X121224285Y-115043800D01*
X121224285Y-115043800D02*
X121176666Y-115015228D01*
X121176666Y-115015228D02*
X121152857Y-114986657D01*
X121152857Y-114986657D02*
X121129047Y-114929514D01*
X129345237Y-114700942D02*
X129392856Y-114672371D01*
X129392856Y-114672371D02*
X129464285Y-114672371D01*
X129464285Y-114672371D02*
X129535713Y-114700942D01*
X129535713Y-114700942D02*
X129583332Y-114758085D01*
X129583332Y-114758085D02*
X129607142Y-114815228D01*
X129607142Y-114815228D02*
X129630951Y-114929514D01*
X129630951Y-114929514D02*
X129630951Y-115015228D01*
X129630951Y-115015228D02*
X129607142Y-115129514D01*
X129607142Y-115129514D02*
X129583332Y-115186657D01*
X129583332Y-115186657D02*
X129535713Y-115243800D01*
X129535713Y-115243800D02*
X129464285Y-115272371D01*
X129464285Y-115272371D02*
X129416666Y-115272371D01*
X129416666Y-115272371D02*
X129345237Y-115243800D01*
X129345237Y-115243800D02*
X129321428Y-115215228D01*
X129321428Y-115215228D02*
X129321428Y-115015228D01*
X129321428Y-115015228D02*
X129416666Y-115015228D01*
X129107142Y-115272371D02*
X129107142Y-114672371D01*
X129107142Y-114672371D02*
X128916666Y-114672371D01*
X128916666Y-114672371D02*
X128869047Y-114700942D01*
X128869047Y-114700942D02*
X128845237Y-114729514D01*
X128845237Y-114729514D02*
X128821428Y-114786657D01*
X128821428Y-114786657D02*
X128821428Y-114872371D01*
X128821428Y-114872371D02*
X128845237Y-114929514D01*
X128845237Y-114929514D02*
X128869047Y-114958085D01*
X128869047Y-114958085D02*
X128916666Y-114986657D01*
X128916666Y-114986657D02*
X129107142Y-114986657D01*
X128630951Y-114729514D02*
X128607142Y-114700942D01*
X128607142Y-114700942D02*
X128559523Y-114672371D01*
X128559523Y-114672371D02*
X128440475Y-114672371D01*
X128440475Y-114672371D02*
X128392856Y-114700942D01*
X128392856Y-114700942D02*
X128369047Y-114729514D01*
X128369047Y-114729514D02*
X128345237Y-114786657D01*
X128345237Y-114786657D02*
X128345237Y-114843800D01*
X128345237Y-114843800D02*
X128369047Y-114929514D01*
X128369047Y-114929514D02*
X128654761Y-115272371D01*
X128654761Y-115272371D02*
X128345237Y-115272371D01*
X127916666Y-114672371D02*
X128011904Y-114672371D01*
X128011904Y-114672371D02*
X128059523Y-114700942D01*
X128059523Y-114700942D02*
X128083333Y-114729514D01*
X128083333Y-114729514D02*
X128130952Y-114815228D01*
X128130952Y-114815228D02*
X128154761Y-114929514D01*
X128154761Y-114929514D02*
X128154761Y-115158085D01*
X128154761Y-115158085D02*
X128130952Y-115215228D01*
X128130952Y-115215228D02*
X128107142Y-115243800D01*
X128107142Y-115243800D02*
X128059523Y-115272371D01*
X128059523Y-115272371D02*
X127964285Y-115272371D01*
X127964285Y-115272371D02*
X127916666Y-115243800D01*
X127916666Y-115243800D02*
X127892857Y-115215228D01*
X127892857Y-115215228D02*
X127869047Y-115158085D01*
X127869047Y-115158085D02*
X127869047Y-115015228D01*
X127869047Y-115015228D02*
X127892857Y-114958085D01*
X127892857Y-114958085D02*
X127916666Y-114929514D01*
X127916666Y-114929514D02*
X127964285Y-114900942D01*
X127964285Y-114900942D02*
X128059523Y-114900942D01*
X128059523Y-114900942D02*
X128107142Y-114929514D01*
X128107142Y-114929514D02*
X128130952Y-114958085D01*
X128130952Y-114958085D02*
X128154761Y-115015228D01*
X127105237Y-114700942D02*
X127152856Y-114672371D01*
X127152856Y-114672371D02*
X127224285Y-114672371D01*
X127224285Y-114672371D02*
X127295713Y-114700942D01*
X127295713Y-114700942D02*
X127343332Y-114758085D01*
X127343332Y-114758085D02*
X127367142Y-114815228D01*
X127367142Y-114815228D02*
X127390951Y-114929514D01*
X127390951Y-114929514D02*
X127390951Y-115015228D01*
X127390951Y-115015228D02*
X127367142Y-115129514D01*
X127367142Y-115129514D02*
X127343332Y-115186657D01*
X127343332Y-115186657D02*
X127295713Y-115243800D01*
X127295713Y-115243800D02*
X127224285Y-115272371D01*
X127224285Y-115272371D02*
X127176666Y-115272371D01*
X127176666Y-115272371D02*
X127105237Y-115243800D01*
X127105237Y-115243800D02*
X127081428Y-115215228D01*
X127081428Y-115215228D02*
X127081428Y-115015228D01*
X127081428Y-115015228D02*
X127176666Y-115015228D01*
X126867142Y-115272371D02*
X126867142Y-114672371D01*
X126867142Y-114672371D02*
X126676666Y-114672371D01*
X126676666Y-114672371D02*
X126629047Y-114700942D01*
X126629047Y-114700942D02*
X126605237Y-114729514D01*
X126605237Y-114729514D02*
X126581428Y-114786657D01*
X126581428Y-114786657D02*
X126581428Y-114872371D01*
X126581428Y-114872371D02*
X126605237Y-114929514D01*
X126605237Y-114929514D02*
X126629047Y-114958085D01*
X126629047Y-114958085D02*
X126676666Y-114986657D01*
X126676666Y-114986657D02*
X126867142Y-114986657D01*
X126390951Y-114729514D02*
X126367142Y-114700942D01*
X126367142Y-114700942D02*
X126319523Y-114672371D01*
X126319523Y-114672371D02*
X126200475Y-114672371D01*
X126200475Y-114672371D02*
X126152856Y-114700942D01*
X126152856Y-114700942D02*
X126129047Y-114729514D01*
X126129047Y-114729514D02*
X126105237Y-114786657D01*
X126105237Y-114786657D02*
X126105237Y-114843800D01*
X126105237Y-114843800D02*
X126129047Y-114929514D01*
X126129047Y-114929514D02*
X126414761Y-115272371D01*
X126414761Y-115272371D02*
X126105237Y-115272371D01*
X125629047Y-115272371D02*
X125914761Y-115272371D01*
X125771904Y-115272371D02*
X125771904Y-114672371D01*
X125771904Y-114672371D02*
X125819523Y-114758085D01*
X125819523Y-114758085D02*
X125867142Y-114815228D01*
X125867142Y-114815228D02*
X125914761Y-114843800D01*
X131595237Y-114700942D02*
X131642856Y-114672371D01*
X131642856Y-114672371D02*
X131714285Y-114672371D01*
X131714285Y-114672371D02*
X131785713Y-114700942D01*
X131785713Y-114700942D02*
X131833332Y-114758085D01*
X131833332Y-114758085D02*
X131857142Y-114815228D01*
X131857142Y-114815228D02*
X131880951Y-114929514D01*
X131880951Y-114929514D02*
X131880951Y-115015228D01*
X131880951Y-115015228D02*
X131857142Y-115129514D01*
X131857142Y-115129514D02*
X131833332Y-115186657D01*
X131833332Y-115186657D02*
X131785713Y-115243800D01*
X131785713Y-115243800D02*
X131714285Y-115272371D01*
X131714285Y-115272371D02*
X131666666Y-115272371D01*
X131666666Y-115272371D02*
X131595237Y-115243800D01*
X131595237Y-115243800D02*
X131571428Y-115215228D01*
X131571428Y-115215228D02*
X131571428Y-115015228D01*
X131571428Y-115015228D02*
X131666666Y-115015228D01*
X131357142Y-115272371D02*
X131357142Y-114672371D01*
X131357142Y-114672371D02*
X131166666Y-114672371D01*
X131166666Y-114672371D02*
X131119047Y-114700942D01*
X131119047Y-114700942D02*
X131095237Y-114729514D01*
X131095237Y-114729514D02*
X131071428Y-114786657D01*
X131071428Y-114786657D02*
X131071428Y-114872371D01*
X131071428Y-114872371D02*
X131095237Y-114929514D01*
X131095237Y-114929514D02*
X131119047Y-114958085D01*
X131119047Y-114958085D02*
X131166666Y-114986657D01*
X131166666Y-114986657D02*
X131357142Y-114986657D01*
X130880951Y-114729514D02*
X130857142Y-114700942D01*
X130857142Y-114700942D02*
X130809523Y-114672371D01*
X130809523Y-114672371D02*
X130690475Y-114672371D01*
X130690475Y-114672371D02*
X130642856Y-114700942D01*
X130642856Y-114700942D02*
X130619047Y-114729514D01*
X130619047Y-114729514D02*
X130595237Y-114786657D01*
X130595237Y-114786657D02*
X130595237Y-114843800D01*
X130595237Y-114843800D02*
X130619047Y-114929514D01*
X130619047Y-114929514D02*
X130904761Y-115272371D01*
X130904761Y-115272371D02*
X130595237Y-115272371D01*
X130428571Y-114672371D02*
X130095238Y-114672371D01*
X130095238Y-114672371D02*
X130309523Y-115272371D01*
X143110952Y-118580942D02*
X143158571Y-118552371D01*
X143158571Y-118552371D02*
X143230000Y-118552371D01*
X143230000Y-118552371D02*
X143301428Y-118580942D01*
X143301428Y-118580942D02*
X143349047Y-118638085D01*
X143349047Y-118638085D02*
X143372857Y-118695228D01*
X143372857Y-118695228D02*
X143396666Y-118809514D01*
X143396666Y-118809514D02*
X143396666Y-118895228D01*
X143396666Y-118895228D02*
X143372857Y-119009514D01*
X143372857Y-119009514D02*
X143349047Y-119066657D01*
X143349047Y-119066657D02*
X143301428Y-119123800D01*
X143301428Y-119123800D02*
X143230000Y-119152371D01*
X143230000Y-119152371D02*
X143182381Y-119152371D01*
X143182381Y-119152371D02*
X143110952Y-119123800D01*
X143110952Y-119123800D02*
X143087143Y-119095228D01*
X143087143Y-119095228D02*
X143087143Y-118895228D01*
X143087143Y-118895228D02*
X143182381Y-118895228D01*
X142872857Y-119152371D02*
X142872857Y-118552371D01*
X142872857Y-118552371D02*
X142587143Y-119152371D01*
X142587143Y-119152371D02*
X142587143Y-118552371D01*
X142349047Y-119152371D02*
X142349047Y-118552371D01*
X142349047Y-118552371D02*
X142229999Y-118552371D01*
X142229999Y-118552371D02*
X142158571Y-118580942D01*
X142158571Y-118580942D02*
X142110952Y-118638085D01*
X142110952Y-118638085D02*
X142087142Y-118695228D01*
X142087142Y-118695228D02*
X142063333Y-118809514D01*
X142063333Y-118809514D02*
X142063333Y-118895228D01*
X142063333Y-118895228D02*
X142087142Y-119009514D01*
X142087142Y-119009514D02*
X142110952Y-119066657D01*
X142110952Y-119066657D02*
X142158571Y-119123800D01*
X142158571Y-119123800D02*
X142229999Y-119152371D01*
X142229999Y-119152371D02*
X142349047Y-119152371D01*
%LPC*%
D11*
%TO.C,J1*%
X109740000Y-118250000D03*
X109740000Y-103750000D03*
D12*
X103780000Y-118250000D03*
X103780000Y-103750000D03*
%TD*%
D13*
%TO.C,J2*%
X143700000Y-113890000D03*
X143700000Y-108110000D03*
D14*
X143200000Y-115320000D03*
D15*
X147380000Y-115320000D03*
D14*
X143200000Y-106680000D03*
D15*
X147380000Y-106680000D03*
%TD*%
D16*
%TO.C,TP14*%
X130510000Y-118000000D03*
%TD*%
%TO.C,TP8*%
X124500000Y-116000000D03*
%TD*%
%TO.C,TP13*%
X128510000Y-118000000D03*
%TD*%
%TO.C,TP10*%
X127250000Y-113500000D03*
%TD*%
%TO.C,TP1*%
X134010000Y-114260000D03*
%TD*%
%TO.C,TP2*%
X140720000Y-117510000D03*
%TD*%
%TO.C,TP6*%
X125500000Y-118000000D03*
%TD*%
%TO.C,TP5*%
X123500000Y-118000000D03*
%TD*%
%TO.C,TP3*%
X136040000Y-114260000D03*
%TD*%
%TO.C,TP7*%
X122500000Y-116000000D03*
%TD*%
%TO.C,TP11*%
X128500000Y-116000000D03*
%TD*%
%TO.C,TP9*%
X126500000Y-116000000D03*
%TD*%
%TO.C,TP12*%
X130500000Y-116000000D03*
%TD*%
%TO.C,TP4*%
X142750000Y-117500000D03*
%TD*%
%LPD*%
M02*
